<svg width="30" height="30" viewBox="0 0 30 30" fill="none" xmlns="http://www.w3.org/2000/svg">
<circle cx="15" cy="15" r="15" fill="#99D6FF"/>
<path fill-rule="evenodd" clip-rule="evenodd" d="M23.4797 6.51605C21.2135 4.24938 18.2018 3 14.9975 3C11.7932 3 8.78152 4.24938 6.51533 6.51605C4.24913 8.78271 3 11.7951 3 15C3 18.2049 4.24913 21.2173 6.51533 23.4839C8.78152 25.7506 11.7932 27 14.9975 27C16.8589 27 18.5573 26.6543 19.9052 26.0074C21.1839 25.3901 22.1121 24.5062 22.5219 23.5234C23.0107 22.3432 22.7342 21.1136 21.7665 20.1457L21.7319 20.1111C21.7468 20.0914 21.7665 20.0765 21.7813 20.0617C22.4725 19.3358 22.4725 18.3827 21.7714 17.6815L20.0632 15.9728C19.7274 15.6272 19.3226 15.4395 18.893 15.4395C18.4635 15.4395 18.0537 15.6222 17.7081 15.9679L16.8194 16.8568C16.7749 16.8321 16.7354 16.8123 16.691 16.7926C16.5824 16.7383 16.4836 16.6889 16.3997 16.6346C15.4962 16.0617 14.6766 15.3111 13.8916 14.3481C13.546 13.9136 13.309 13.5432 13.1312 13.1778C13.3534 12.9704 13.5608 12.758 13.7632 12.5506C13.8471 12.4617 13.936 12.3778 14.0249 12.2889C14.7507 11.563 14.7507 10.6247 14.0249 9.89876L13.1806 9.05432C13.0819 8.95555 12.9881 8.86173 12.8943 8.76296C12.7066 8.57037 12.5141 8.37284 12.3067 8.18025C11.971 7.84938 11.5711 7.67654 11.1465 7.67654C10.7219 7.67654 10.317 7.84938 9.9714 8.18025C9.96647 8.18518 9.96647 8.18518 9.96153 8.19012L8.90002 9.25185C8.47541 9.67654 8.22855 10.2 8.17918 10.8025C8.10512 11.7407 8.37667 12.6099 8.58897 13.1778C9.09751 14.5506 9.85785 15.8247 10.9885 17.1877C12.361 18.8272 14.015 20.1259 15.906 21.0395C16.6318 21.3852 17.6044 21.7901 18.7005 21.8642C18.7696 21.8691 18.8387 21.8691 18.9078 21.8691C19.6731 21.8691 20.3199 21.5926 20.8235 21.0444C20.8284 21.0395 20.8383 21.0296 20.8432 21.0247C20.858 21.0049 20.8778 20.9852 20.8975 20.9654L20.9272 20.9951C21.5591 21.6272 21.7319 22.3481 21.4258 23.0839C20.858 24.4321 18.6511 25.8148 14.9975 25.8148C9.03332 25.8148 4.18494 20.9654 4.18494 15C4.18494 9.03457 9.03332 4.18518 14.9975 4.18518C20.9617 4.18518 25.8101 9.03457 25.8101 15C25.8101 15.9827 25.6768 16.9506 25.4201 17.8839C25.3312 18.2 25.5188 18.5259 25.8348 18.6148C26.1508 18.7037 26.4766 18.516 26.5655 18.2C26.8519 17.163 27 16.0864 27 15C26.9951 11.7951 25.7459 8.78271 23.4797 6.51605V6.51605Z" fill="#265785"/>
</svg>
