<svg width="30" height="30" viewBox="0 0 30 30" fill="none" xmlns="http://www.w3.org/2000/svg">
<circle cx="15" cy="15" r="15" fill="#99D6FF"/>
<path fill-rule="evenodd" clip-rule="evenodd" d="M10.6613 13.6308H20.2774C20.6523 13.6308 20.9457 13.3387 20.9457 12.9655C20.9457 12.5923 20.6523 12.3002 20.2774 12.3002H10.6613C10.2865 12.3002 9.99311 12.5923 9.99311 12.9655C9.99311 13.3387 10.2865 13.6308 10.6613 13.6308V13.6308ZM10.6613 16.8438H20.2774C20.6523 16.8438 20.9457 16.5517 20.9457 16.1785C20.9457 15.8053 20.6523 15.5132 20.2774 15.5132H10.6613C10.2865 15.5132 9.99311 15.8053 9.99311 16.1785C9.99311 16.5517 10.2865 16.8438 10.6613 16.8438V16.8438ZM6.66824 21.144H8.81963V23.3347C8.81963 23.5943 8.96631 23.8215 9.19449 23.9351C9.29228 23.9838 9.39007 24 9.48786 24C9.63455 24 9.78124 23.9513 9.89532 23.8702L13.481 21.1602H24.2705C24.6454 21.1602 24.9388 20.8682 24.9388 20.4949V8.66531C24.9388 8.29209 24.6454 8 24.2705 8H6.66824C6.29337 8 6 8.29209 6 8.66531V20.4787C6 20.8519 6.30967 21.144 6.66824 21.144V21.144ZM7.33647 9.33066H23.586V19.8134H13.2528C13.1061 19.8134 12.9594 19.8621 12.8453 19.9432L10.1561 21.9879V20.4787C10.1561 20.1055 9.86273 19.8134 9.48786 19.8134H7.33647V9.33066V9.33066Z" fill="#265785"/>
</svg>
