<svg width="138" height="80" viewBox="0 0 138 80" fill="none" xmlns="http://www.w3.org/2000/svg">
<path d="M67.7005 3.98152L65.596 3.69713L58.998 18.2581C58.8843 18.5425 58.5999 18.77 58.3155 18.8269C57.9742 18.8838 57.6898 18.8269 57.4054 18.6563L33.175 0L34.2557 9.78316L67.6436 29.6908V3.98152H67.7005Z" fill="url(#paint0_radial_2:95)"/>
<path d="M54.8458 51.3046L26.3495 36.6299L20.946 22.1827L19.8085 19.1681L14.1206 3.92456L32.3218 11.2619L33.3456 21.0451H33.4025L35.2226 37.4831C35.2795 37.7675 35.3933 38.0519 35.6777 38.2225L54.8458 51.3046Z" fill="#056CA5"/>
<path d="M124.409 3.92456L117.697 22.0689H117.583L112.123 36.6299L83.5697 51.3046L102.795 38.2225C103.079 38.0519 103.193 37.7675 103.25 37.4831L104.956 22.1827L105.07 20.9313L105.696 15.3572L106.151 11.0344L124.409 3.92456Z" fill="#3FA7E0"/>
<path d="M14.1775 3.92456L20.8892 22.0689H20.946L26.4064 36.6299L54.9596 51.3046L35.7345 38.2225C35.4501 38.0519 35.3364 37.7675 35.2795 37.4831L33.5731 22.1827L33.4594 20.9313L32.8337 15.4141L32.3787 11.0913L14.1775 3.92456Z" fill="#3FA7E0"/>
<path d="M24.9845 38.2795C24.7569 38.1657 24.5863 37.9382 24.4725 37.7107L17.4196 18.8838L0.810944 16.6086L17.1352 45.2756L59.2255 56.367L24.9845 38.2795Z" fill="#026089"/>
<path d="M73.4452 55.7981L69.2931 57.8457C69.2362 57.8457 69.2362 57.8457 69.1793 57.9026H69.1224C69.0656 57.9026 69.0656 57.9026 69.0087 57.9595H68.9518C68.8949 57.9595 68.838 57.9595 68.7243 57.9595C68.6674 57.9595 68.6674 57.9595 68.6105 57.9595C68.4968 57.9595 68.383 57.9595 68.2693 57.9026C68.2693 57.9026 68.2693 57.9026 68.2124 57.9026C68.1555 57.9026 68.1555 57.9026 68.0986 57.8457C68.0417 57.8457 67.9849 57.7889 67.928 57.7889L64.6859 56.1394L52.1725 67.1739L68.7243 79.2322L86.1861 67.117L73.7865 56.31C73.6728 56.2531 73.5021 56.0256 73.4452 55.7981Z" fill="#026089"/>
<path d="M72.4783 54.2056L69.2362 55.855H69.1793C69.1793 55.855 69.1793 55.855 69.1225 55.855H69.0656C69.0656 55.855 69.0656 55.855 69.0087 55.855C68.9518 55.855 68.895 55.855 68.8381 55.855H68.7812C68.6674 55.855 68.6106 55.8551 68.4968 55.7982C68.4968 55.7982 68.4399 55.7982 68.4399 55.7413C68.383 55.7413 68.383 55.7413 68.3262 55.6844L65.8235 54.3762L54.1633 64.33L68.8381 79.1185L84.4229 64.33L72.8765 54.5468C72.649 54.6037 72.5352 54.4331 72.4783 54.2056Z" fill="url(#paint1_radial_2:95)"/>
<path d="M68.8381 79.2891L84.366 64.5006L72.5352 54.2056C72.5352 54.2056 68.9518 55.9688 68.895 55.9688V79.2891H68.8381Z" fill="url(#paint2_radial_2:95)"/>
<path d="M121.053 18.8269L114 37.7676C113.886 37.9951 113.715 38.2226 113.488 38.3364L77.0855 57.0495L121.337 45.2756L137.661 16.6086L121.053 18.8269Z" fill="#026089"/>
<path d="M20.9461 22.1828L19.8085 19.1682L20.9461 22.1828Z" fill="url(#paint3_radial_2:95)"/>
<path d="M67.7004 54.2625L37.2703 36.8007L35.6776 22.5241L34.5401 12.1721L67.6436 32.3641L67.7004 54.2625Z" fill="url(#paint4_radial_2:95)"/>
<path d="M104.501 0.568848L78.6781 18.7701C78.4506 18.9407 78.1662 18.9976 77.8818 18.9407C77.5974 18.8838 77.3699 18.7132 77.1992 18.4857L72.0801 10.2383C71.8526 9.89698 71.8526 9.49883 72.0801 9.15755C72.2508 8.81628 72.5921 8.58877 72.9902 8.58877H76.3461C77.3699 8.58877 77.9955 7.50807 77.4836 6.59801L77.0286 5.85858C76.8011 5.51731 76.4598 5.28979 76.0617 5.23291L69.2362 4.32285V29.9752L103.42 9.95386L104.501 0.568848Z" fill="url(#paint5_radial_2:95)"/>
<path d="M102.908 21.2727H102.965L101.259 36.7438L69.2931 54.0918V32.421L103.989 12.0015L102.908 21.2727Z" fill="url(#paint6_radial_2:95)"/>
<path d="M66.2785 3.98152L64.174 3.69713L57.6329 18.2581C57.5192 18.5425 57.2348 18.77 56.9504 18.8269C56.6091 18.8838 56.3247 18.8269 56.0403 18.6563L31.8099 0L32.8906 9.78316L66.2785 29.6908V3.98152V3.98152Z" fill="#67D3F9"/>
<path d="M71.1132 54.2056L67.8711 55.855H67.8142C67.8142 55.855 67.8142 55.855 67.7573 55.855H67.7005C67.7005 55.855 67.7005 55.855 67.6436 55.855C67.5867 55.855 67.5298 55.855 67.473 55.855H67.4161C67.3023 55.855 67.2454 55.8551 67.1317 55.7982C67.1317 55.7982 67.0748 55.7982 67.0748 55.7413C67.0179 55.7413 67.0179 55.7413 66.961 55.6844L64.4584 54.3762L52.7413 64.5575L67.4161 79.346L83.0009 64.5575L71.4545 54.7744C71.2838 54.6037 71.1701 54.4331 71.1132 54.2056Z" fill="#67D3F9"/>
<path d="M67.473 79.2891L83.0009 64.5006L71.1701 54.2056C71.1701 54.2056 67.5867 55.9688 67.5298 55.9688V79.2891H67.473Z" fill="#67D3F9"/>
<path d="M66.3354 54.2625L35.9052 36.8007L34.3126 22.5241L33.175 12.1721L66.2785 32.3641L66.3354 54.2625Z" fill="#67D3F9"/>
<path d="M103.136 0.568848L77.313 18.7701C77.0855 18.9407 76.8011 18.9976 76.5167 18.9407C76.2323 18.8838 76.0048 18.7132 75.8342 18.4857L70.7151 10.2383C70.4876 9.89698 70.4876 9.49883 70.7151 9.15755C70.8857 8.81628 71.227 8.58877 71.6251 8.58877H74.981C76.0048 8.58877 76.6305 7.50807 76.1186 6.59801L75.6635 5.85858C75.436 5.51731 75.0947 5.28979 74.6966 5.23291L67.8711 4.32285V29.9752L102.055 9.95386L103.136 0.568848Z" fill="#67D3F9"/>
<path d="M101.543 21.2727L99.837 36.7438L67.928 54.0918V32.421L102.567 12.0015L101.543 21.2727Z" fill="#67D3F9"/>
<path d="M66.4492 78.4359V3.98145L68.0986 4.32272V78.6065L67.4161 79.4028L66.4492 78.4359Z" fill="white"/>
<defs>
<radialGradient id="paint0_radial_2:95" cx="0" cy="0" r="1" gradientUnits="userSpaceOnUse" gradientTransform="translate(43.2838 11.0061) scale(27.6816)">
<stop offset="0.2359" stop-color="white"/>
<stop offset="0.9651" stop-color="#D2D1D1"/>
</radialGradient>
<radialGradient id="paint1_radial_2:95" cx="0" cy="0" r="1" gradientUnits="userSpaceOnUse" gradientTransform="translate(55.1507 65.6917) scale(13.8982)">
<stop offset="0.2423" stop-color="white"/>
<stop offset="0.9651" stop-color="#D2D1D1"/>
</radialGradient>
<radialGradient id="paint2_radial_2:95" cx="0" cy="0" r="1" gradientUnits="userSpaceOnUse" gradientTransform="translate(71.4304 66.4471) scale(10.4234 16.8859)">
<stop offset="0.2359" stop-color="white"/>
<stop offset="0.9651" stop-color="#D2D1D1"/>
</radialGradient>
<radialGradient id="paint3_radial_2:95" cx="0" cy="0" r="1" gradientUnits="userSpaceOnUse" gradientTransform="translate(20.3869 20.6927) scale(1.1386)">
<stop offset="0.00436681" stop-color="#88D0EC"/>
<stop offset="1" stop-color="#B8E3F4"/>
</radialGradient>
<radialGradient id="paint4_radial_2:95" cx="0" cy="0" r="1" gradientUnits="userSpaceOnUse" gradientTransform="translate(37.6773 38.0607) scale(28.5671 63.2933)">
<stop offset="0.2359" stop-color="white"/>
<stop offset="0.9651" stop-color="#D2D1D1"/>
</radialGradient>
<radialGradient id="paint5_radial_2:95" cx="0" cy="0" r="1" gradientUnits="userSpaceOnUse" gradientTransform="translate(73.0242 23.9934) rotate(-29.9545) scale(44.8139 31.0874)">
<stop offset="0.2359" stop-color="white"/>
<stop offset="0.9651" stop-color="#D2D1D1"/>
</radialGradient>
<radialGradient id="paint6_radial_2:95" cx="0" cy="0" r="1" gradientUnits="userSpaceOnUse" gradientTransform="translate(78.6128 38.0667) rotate(-18.7176) scale(36.8119 23.9391)">
<stop offset="0.2359" stop-color="white"/>
<stop offset="0.9651" stop-color="#D2D1D1"/>
</radialGradient>
</defs>
</svg>
