<svg width="513" height="403" viewBox="0 0 513 403" fill="none" xmlns="http://www.w3.org/2000/svg">
<path opacity="0.3" d="M0 0V403H86.6905C70.1465 387.767 50.5143 376.321 36.6173 358.186C20.9557 337.795 16.2498 302.572 36.0291 287.097C50.3672 275.894 71.3965 279.763 85.4405 268.076C102.867 253.568 99.9992 223.504 90.5876 201.822C81.1758 180.141 66.7642 159.669 66.1024 135.569C65.5142 111.631 79.8524 88.9824 99.1904 77.6178C118.455 66.2532 141.69 65.1248 163.087 70.2832C195.734 78.182 230.66 99.7022 260.145 82.2926C277.13 72.2982 286.836 51.5034 303.012 39.9776C325.439 24.0994 355.144 29.0966 380.144 39.1716C405.218 49.2466 429.335 63.9964 455.952 66.2532C478.379 68.1876 504.187 57.7096 511.246 34.3356C514.702 22.971 512.79 10.8004 507.79 0H0Z" fill="url(#paint0_linear)"/>
<defs>
<linearGradient id="paint0_linear" x1="187.873" y1="120.863" x2="-39.3314" y2="-110.133" gradientUnits="userSpaceOnUse">
<stop stop-color="#0065BD"/>
<stop offset="0.1307" stop-color="#0759A5"/>
<stop offset="0.2991" stop-color="#033A84"/>
<stop offset="0.4399" stop-color="#012670"/>
<stop offset="0.5351" stop-color="#001F69"/>
<stop offset="1" stop-color="#0F181D"/>
</linearGradient>
</defs>
</svg>
