<svg width="631" height="396" viewBox="0 0 631 396" fill="none" xmlns="http://www.w3.org/2000/svg">
<path d="M184.1 321.445L183.891 357.447C183.768 378.618 166.506 395.682 145.334 395.559L144.168 395.552C123.641 395.433 107.097 378.695 107.216 358.168C107.335 337.641 124.072 321.097 144.6 321.216L184.1 321.445Z" fill="#00A87C"/>
<g opacity="0.5">
<path d="M197.11 358.119C197.71 358.119 198.25 358.599 198.25 359.199C198.25 359.799 197.77 360.339 197.17 360.339C196.57 360.339 196.03 359.859 196.03 359.259C196.03 358.659 196.51 358.119 197.11 358.119ZM197.29 364.419C197.89 364.419 198.43 364.899 198.43 365.499C198.43 366.098 197.95 366.638 197.35 366.638C196.75 366.638 196.21 366.158 196.21 365.559C196.21 364.959 196.69 364.419 197.29 364.419ZM197.53 370.718C198.13 370.718 198.67 371.198 198.67 371.798C198.67 372.398 198.19 372.938 197.59 372.938C196.99 372.938 196.45 372.458 196.45 371.858C196.45 371.258 196.93 370.718 197.53 370.718ZM149.593 374.438C148.993 374.438 148.453 373.958 148.453 373.358C148.453 372.758 148.933 372.218 149.533 372.218C150.133 372.218 150.673 372.698 150.673 373.298C150.673 373.898 150.193 374.438 149.593 374.438ZM149.353 368.138C148.753 368.138 148.213 367.658 148.213 367.058C148.213 366.458 148.693 365.918 149.293 365.918C149.893 365.918 150.433 366.398 150.433 366.998C150.433 367.598 149.953 368.138 149.353 368.138ZM149.173 361.839C148.573 361.839 148.033 361.359 148.033 360.759C148.033 360.159 148.513 359.619 149.113 359.619C149.713 359.619 150.253 360.099 150.253 360.699C150.253 361.299 149.773 361.839 149.173 361.839ZM156.613 380.498C156.013 380.498 155.473 380.018 155.473 379.418C155.473 378.818 155.953 378.278 156.553 378.278C157.153 378.278 157.693 378.758 157.693 379.358C157.693 380.018 157.273 380.498 156.613 380.498ZM156.433 374.198C155.833 374.198 155.293 373.718 155.293 373.118C155.293 372.518 155.773 371.978 156.373 371.978C156.973 371.978 157.513 372.458 157.513 373.058C157.513 373.718 157.033 374.198 156.433 374.198ZM156.253 367.898C155.653 367.898 155.113 367.418 155.113 366.818C155.113 366.218 155.593 365.678 156.193 365.678C156.793 365.678 157.333 366.158 157.333 366.758C157.333 367.418 156.853 367.898 156.253 367.898ZM156.013 361.599C155.413 361.599 154.873 361.119 154.873 360.519C154.873 359.919 155.353 359.379 155.953 359.379C156.553 359.379 157.093 359.859 157.093 360.459C157.093 361.119 156.613 361.599 156.013 361.599ZM155.833 355.299C155.233 355.299 154.693 354.819 154.693 354.219C154.693 353.619 155.173 353.079 155.773 353.079C156.373 353.079 156.913 353.559 156.913 354.159C156.913 354.819 156.433 355.299 155.833 355.299ZM163.692 386.617C163.092 386.617 162.552 386.137 162.552 385.537C162.552 384.937 163.032 384.397 163.632 384.397C164.232 384.397 164.772 384.877 164.772 385.477C164.772 386.077 164.292 386.557 163.692 386.617ZM163.512 380.318C162.912 380.318 162.372 379.838 162.372 379.238C162.372 378.638 162.852 378.098 163.452 378.098C164.052 378.098 164.592 378.578 164.592 379.178C164.592 379.778 164.112 380.258 163.512 380.318ZM163.272 374.018C162.672 374.018 162.132 373.538 162.132 372.938C162.132 372.338 162.612 371.798 163.212 371.798C163.812 371.798 164.352 372.278 164.352 372.878C164.352 373.478 163.872 373.958 163.272 374.018ZM163.092 367.718C162.492 367.718 161.952 367.238 161.952 366.638C161.952 366.038 162.432 365.499 163.032 365.499C163.632 365.499 164.172 365.978 164.172 366.578C164.172 367.178 163.692 367.658 163.092 367.718ZM162.912 361.419C162.312 361.419 161.772 360.939 161.772 360.339C161.772 359.739 162.252 359.199 162.852 359.199C163.452 359.199 163.992 359.679 163.992 360.279C163.992 360.879 163.512 361.359 162.912 361.419ZM162.672 355.119C162.072 355.119 161.532 354.639 161.532 354.039C161.532 353.439 162.012 352.899 162.612 352.899C163.212 352.899 163.752 353.379 163.752 353.979C163.752 354.579 163.272 355.059 162.672 355.119ZM162.492 348.819C161.892 348.819 161.352 348.339 161.352 347.74C161.352 347.14 161.832 346.6 162.432 346.6C163.032 346.6 163.572 347.08 163.572 347.68C163.572 348.28 163.092 348.759 162.492 348.819ZM170.532 386.377C169.932 386.377 169.392 385.897 169.392 385.297C169.392 384.697 169.872 384.157 170.472 384.157C171.072 384.157 171.612 384.637 171.612 385.237C171.612 385.837 171.132 386.377 170.532 386.377ZM170.352 380.078C169.752 380.078 169.212 379.598 169.212 378.998C169.212 378.398 169.692 377.858 170.292 377.858C170.892 377.858 171.432 378.338 171.432 378.938C171.432 379.538 170.952 380.078 170.352 380.078ZM170.172 373.778C169.572 373.778 169.032 373.298 169.032 372.698C169.032 372.098 169.512 371.558 170.112 371.558C170.712 371.558 171.252 372.038 171.252 372.638C171.252 373.238 170.772 373.778 170.172 373.778ZM169.932 367.478C169.332 367.478 168.792 366.998 168.792 366.398C168.792 365.798 169.272 365.259 169.872 365.259C170.472 365.259 171.012 365.738 171.012 366.338C171.012 366.938 170.532 367.478 169.932 367.478ZM169.752 361.179C169.152 361.179 168.612 360.699 168.612 360.099C168.612 359.499 169.092 358.959 169.692 358.959C170.292 358.959 170.832 359.439 170.832 360.039C170.832 360.639 170.352 361.179 169.752 361.179ZM169.572 354.879C168.972 354.879 168.432 354.399 168.432 353.799C168.432 353.199 168.912 352.659 169.512 352.659C170.112 352.659 170.652 353.139 170.652 353.739C170.652 354.339 170.172 354.879 169.572 354.879ZM169.332 348.579C168.732 348.579 168.192 348.1 168.192 347.5C168.192 346.9 168.672 346.36 169.272 346.36C169.872 346.36 170.412 346.84 170.412 347.44C170.412 348.04 169.932 348.579 169.332 348.579ZM177.431 386.137C176.831 386.137 176.292 385.657 176.292 385.057C176.292 384.457 176.772 383.917 177.371 383.917C177.971 383.917 178.511 384.397 178.511 384.997C178.511 385.657 178.031 386.137 177.431 386.137ZM177.191 379.838C176.592 379.838 176.052 379.358 176.052 378.758C176.052 378.158 176.532 377.618 177.131 377.618C177.731 377.618 178.271 378.098 178.271 378.698C178.271 379.358 177.791 379.838 177.191 379.838ZM177.011 373.538C176.412 373.538 175.872 373.058 175.872 372.458C175.872 371.858 176.352 371.318 176.951 371.318C177.551 371.318 178.091 371.798 178.091 372.398C178.091 373.058 177.611 373.538 177.011 373.538ZM176.831 367.238C176.232 367.238 175.692 366.758 175.692 366.158C175.692 365.559 176.172 365.019 176.772 365.019C177.371 365.019 177.911 365.499 177.911 366.098C177.911 366.758 177.431 367.238 176.831 367.238ZM176.592 360.939C175.992 360.939 175.452 360.459 175.452 359.859C175.452 359.259 175.932 358.719 176.532 358.719C177.131 358.719 177.671 359.199 177.671 359.799C177.671 360.459 177.191 360.939 176.592 360.939ZM176.412 354.639C175.812 354.639 175.272 354.159 175.272 353.559C175.272 352.959 175.752 352.419 176.352 352.419C176.951 352.419 177.491 352.899 177.491 353.499C177.491 354.159 177.011 354.639 176.412 354.639ZM176.172 348.339C175.572 348.339 175.032 347.86 175.032 347.26C175.032 346.66 175.512 346.12 176.112 346.12C176.712 346.12 177.251 346.6 177.251 347.2C177.251 347.86 176.831 348.339 176.172 348.339ZM184.271 385.957C183.671 385.957 183.131 385.477 183.131 384.877C183.131 384.277 183.611 383.737 184.211 383.737C184.811 383.737 185.351 384.217 185.351 384.817C185.351 385.417 184.871 385.897 184.271 385.957ZM184.091 379.658C183.491 379.658 182.951 379.178 182.951 378.578C182.951 377.978 183.431 377.438 184.031 377.438C184.631 377.438 185.171 377.918 185.171 378.518C185.171 379.118 184.691 379.598 184.091 379.658ZM183.851 373.358C183.251 373.358 182.711 372.878 182.711 372.278C182.711 371.678 183.191 371.138 183.791 371.138C184.391 371.138 184.931 371.618 184.931 372.218C184.931 372.818 184.451 373.298 183.851 373.358ZM183.671 367.058C183.071 367.058 182.531 366.578 182.531 365.978C182.531 365.379 183.011 364.839 183.611 364.839C184.211 364.839 184.751 365.319 184.751 365.918C184.751 366.518 184.271 366.998 183.671 367.058ZM183.431 360.759C182.831 360.759 182.291 360.279 182.291 359.679C182.291 359.079 182.771 358.539 183.371 358.539C183.971 358.539 184.511 359.019 184.511 359.619C184.571 360.219 184.091 360.699 183.431 360.759ZM183.251 354.459C182.651 354.459 182.111 353.979 182.111 353.379C182.111 352.779 182.591 352.239 183.191 352.239C183.791 352.239 184.331 352.719 184.331 353.319C184.331 353.919 183.851 354.399 183.251 354.459ZM183.071 348.16C182.471 348.16 181.931 347.68 181.931 347.08C181.931 346.48 182.411 345.94 183.011 345.94C183.611 345.94 184.151 346.42 184.151 347.02C184.151 347.62 183.671 348.1 183.071 348.16ZM190.931 379.418C190.331 379.418 189.791 378.938 189.791 378.338C189.791 377.738 190.271 377.198 190.871 377.198C191.471 377.198 192.011 377.678 192.011 378.278C192.011 378.878 191.531 379.418 190.931 379.418ZM190.691 373.118C190.091 373.118 189.551 372.638 189.551 372.038C189.551 371.438 190.031 370.898 190.631 370.898C191.231 370.898 191.771 371.378 191.771 371.978C191.831 372.578 191.351 373.118 190.691 373.118ZM190.511 366.818C189.911 366.818 189.371 366.338 189.371 365.738C189.371 365.139 189.851 364.599 190.451 364.599C191.051 364.599 191.591 365.079 191.591 365.678C191.591 366.278 191.111 366.818 190.511 366.818ZM190.331 360.519C189.731 360.519 189.191 360.039 189.191 359.439C189.191 358.839 189.671 358.299 190.271 358.299C190.871 358.299 191.411 358.779 191.411 359.379C191.411 359.979 190.931 360.519 190.331 360.519ZM190.091 354.219C189.491 354.219 188.951 353.739 188.951 353.139C188.951 352.539 189.431 351.999 190.031 351.999C190.631 351.999 191.171 352.479 191.171 353.079C191.171 353.679 190.751 354.219 190.091 354.219Z" fill="white"/>
<path d="M162.433 342.459C162.612 342.399 162.792 342.34 162.912 342.22C162.792 342.34 162.612 342.399 162.433 342.459Z" fill="white"/>
<path d="M169.151 342.28C169.751 342.28 170.231 341.74 170.231 341.14C170.231 340.78 169.991 340.42 169.751 340.24C169.271 340.3 168.791 340.42 168.311 340.48C168.191 340.66 168.071 340.9 168.071 341.2C168.011 341.8 168.551 342.28 169.151 342.28Z" fill="white"/>
<path d="M174.853 341.02C174.853 341.62 175.392 342.1 175.992 342.1C176.592 342.1 177.072 341.56 177.072 340.96C177.072 340.6 176.892 340.36 176.652 340.12C176.232 340.06 175.872 340.06 175.452 340C175.092 340.18 174.853 340.6 174.853 341.02Z" fill="white"/>
<path d="M182.831 341.86C183.011 341.86 183.131 341.8 183.251 341.74C182.771 341.56 182.291 341.38 181.811 341.2C181.991 341.62 182.411 341.86 182.831 341.86Z" fill="white"/>
<path d="M155.652 349C156.252 349 156.732 348.46 156.732 347.86C156.732 347.38 156.372 347.02 155.952 346.84C155.472 347.26 154.992 347.74 154.572 348.22C154.692 348.7 155.112 349.06 155.652 349Z" fill="white"/>
<path d="M162.467 348.761C163.063 348.742 163.531 348.244 163.511 347.647C163.492 347.051 162.994 346.583 162.397 346.603C161.801 346.622 161.333 347.12 161.353 347.717C161.372 348.313 161.87 348.781 162.467 348.761Z" fill="white"/>
<path d="M169.367 348.58C169.963 348.561 170.431 348.062 170.412 347.466C170.393 346.87 169.894 346.402 169.298 346.421C168.702 346.44 168.234 346.939 168.253 347.535C168.272 348.131 168.771 348.599 169.367 348.58Z" fill="white"/>
<path d="M176.206 348.341C176.802 348.321 177.27 347.823 177.251 347.227C177.232 346.63 176.733 346.163 176.137 346.182C175.541 346.201 175.073 346.7 175.092 347.296C175.111 347.892 175.61 348.36 176.206 348.341Z" fill="white"/>
<path d="M183.045 348.101C183.641 348.082 184.109 347.583 184.09 346.987C184.071 346.391 183.572 345.923 182.976 345.942C182.38 345.961 181.912 346.46 181.931 347.056C181.95 347.652 182.449 348.12 183.045 348.101Z" fill="white"/>
<path d="M188.77 346.84C188.77 347.44 189.31 347.92 189.91 347.92C190.51 347.92 190.99 347.38 190.99 346.78C190.99 346.6 190.93 346.36 190.81 346.24C190.63 346.12 190.45 345.94 190.27 345.82C190.15 345.76 189.97 345.76 189.85 345.76C189.25 345.76 188.77 346.24 188.77 346.84Z" fill="white"/>
<path d="M155.807 355.301C156.403 355.282 156.871 354.783 156.852 354.187C156.833 353.591 156.334 353.123 155.738 353.142C155.142 353.162 154.674 353.66 154.693 354.256C154.712 354.853 155.211 355.32 155.807 355.301Z" fill="white"/>
<path d="M162.707 355.06C163.303 355.041 163.771 354.542 163.751 353.946C163.732 353.35 163.234 352.882 162.637 352.901C162.041 352.92 161.573 353.419 161.593 354.015C161.612 354.611 162.11 355.079 162.707 355.06Z" fill="white"/>
<path d="M169.548 354.88C170.144 354.861 170.612 354.362 170.593 353.766C170.573 353.17 170.075 352.702 169.479 352.722C168.882 352.741 168.415 353.239 168.434 353.836C168.453 354.432 168.952 354.899 169.548 354.88Z" fill="white"/>
<path d="M176.387 354.641C176.983 354.622 177.451 354.123 177.432 353.527C177.412 352.931 176.914 352.463 176.318 352.482C175.721 352.501 175.254 353 175.273 353.596C175.292 354.192 175.791 354.66 176.387 354.641Z" fill="white"/>
<path d="M183.287 354.4C183.883 354.381 184.35 353.882 184.331 353.286C184.312 352.69 183.813 352.222 183.217 352.241C182.621 352.26 182.153 352.759 182.173 353.355C182.192 353.951 182.69 354.419 183.287 354.4Z" fill="white"/>
<path d="M190.126 354.22C190.722 354.201 191.19 353.702 191.171 353.106C191.152 352.51 190.653 352.042 190.057 352.061C189.461 352.08 188.993 352.579 189.012 353.175C189.031 353.771 189.53 354.239 190.126 354.22Z" fill="white"/>
<path d="M196.99 353.979C196.75 353.379 196.39 352.839 196.03 352.239C195.91 352.419 195.85 352.659 195.85 352.899C195.85 353.559 196.39 354.039 196.99 353.979Z" fill="white"/>
<path d="M149.149 361.841C149.745 361.822 150.213 361.323 150.193 360.727C150.174 360.131 149.676 359.663 149.079 359.682C148.483 359.701 148.015 360.2 148.035 360.796C148.054 361.392 148.552 361.86 149.149 361.841Z" fill="white"/>
<path d="M156.048 361.6C156.644 361.581 157.112 361.082 157.093 360.486C157.074 359.89 156.575 359.422 155.979 359.441C155.383 359.46 154.915 359.959 154.934 360.555C154.953 361.151 155.452 361.619 156.048 361.6Z" fill="white"/>
<path d="M162.887 361.36C163.483 361.341 163.951 360.842 163.932 360.246C163.913 359.65 163.414 359.182 162.818 359.202C162.222 359.221 161.754 359.719 161.773 360.316C161.792 360.912 162.291 361.379 162.887 361.36Z" fill="white"/>
<path d="M169.728 361.181C170.324 361.162 170.792 360.663 170.773 360.067C170.754 359.471 170.255 359.003 169.659 359.022C169.063 359.041 168.595 359.54 168.614 360.136C168.633 360.732 169.132 361.2 169.728 361.181Z" fill="white"/>
<path d="M176.627 360.939C177.223 360.92 177.69 360.422 177.671 359.825C177.652 359.229 177.153 358.762 176.557 358.781C175.961 358.8 175.493 359.299 175.513 359.895C175.532 360.491 176.03 360.959 176.627 360.939Z" fill="white"/>
<path d="M183.466 360.7C184.062 360.681 184.53 360.182 184.51 359.586C184.491 358.99 183.993 358.522 183.396 358.541C182.8 358.56 182.333 359.059 182.352 359.655C182.371 360.251 182.87 360.719 183.466 360.7Z" fill="white"/>
<path d="M190.307 360.521C190.903 360.501 191.371 360.003 191.352 359.407C191.332 358.81 190.834 358.343 190.238 358.362C189.641 358.381 189.174 358.88 189.193 359.476C189.212 360.072 189.711 360.54 190.307 360.521Z" fill="white"/>
<path d="M197.146 360.281C197.742 360.262 198.21 359.763 198.191 359.167C198.171 358.571 197.673 358.103 197.077 358.122C196.48 358.141 196.013 358.64 196.032 359.236C196.051 359.832 196.55 360.3 197.146 360.281Z" fill="white"/>
<path d="M149.388 368.14C149.984 368.12 150.452 367.622 150.432 367.026C150.413 366.429 149.915 365.962 149.318 365.981C148.722 366 148.254 366.499 148.274 367.095C148.293 367.691 148.791 368.159 149.388 368.14Z" fill="white"/>
<path d="M156.227 367.9C156.824 367.881 157.291 367.382 157.272 366.786C157.253 366.19 156.754 365.722 156.158 365.741C155.562 365.76 155.094 366.259 155.113 366.855C155.133 367.451 155.631 367.919 156.227 367.9Z" fill="white"/>
<path d="M163.067 367.661C163.663 367.642 164.13 367.143 164.111 366.547C164.092 365.951 163.593 365.483 162.997 365.502C162.401 365.521 161.933 366.02 161.953 366.616C161.972 367.212 162.47 367.68 163.067 367.661Z" fill="white"/>
<path d="M169.967 367.479C170.563 367.46 171.031 366.961 171.012 366.365C170.993 365.769 170.494 365.301 169.898 365.321C169.302 365.34 168.834 365.838 168.853 366.435C168.872 367.031 169.371 367.498 169.967 367.479Z" fill="white"/>
<path d="M176.807 367.24C177.403 367.221 177.871 366.722 177.852 366.126C177.833 365.53 177.334 365.062 176.738 365.081C176.142 365.1 175.674 365.599 175.693 366.195C175.712 366.791 176.211 367.259 176.807 367.24Z" fill="white"/>
<path d="M183.646 367.001C184.242 366.981 184.71 366.483 184.691 365.887C184.672 365.29 184.173 364.823 183.577 364.842C182.981 364.861 182.513 365.36 182.532 365.956C182.551 366.552 183.05 367.02 183.646 367.001Z" fill="white"/>
<path d="M190.547 366.819C191.143 366.8 191.61 366.301 191.591 365.705C191.572 365.109 191.073 364.641 190.477 364.66C189.881 364.679 189.413 365.178 189.433 365.774C189.452 366.37 189.95 366.838 190.547 366.819Z" fill="white"/>
<path d="M197.386 366.58C197.982 366.561 198.449 366.062 198.43 365.466C198.411 364.87 197.912 364.402 197.316 364.421C196.72 364.44 196.252 364.939 196.272 365.535C196.291 366.131 196.789 366.599 197.386 366.58Z" fill="white"/>
<path d="M149.569 374.44C150.165 374.421 150.633 373.922 150.613 373.326C150.594 372.73 150.096 372.262 149.5 372.281C148.903 372.3 148.436 372.799 148.455 373.395C148.474 373.991 148.973 374.459 149.569 374.44Z" fill="white"/>
<path d="M156.407 374.201C157.003 374.181 157.471 373.683 157.452 373.087C157.433 372.49 156.934 372.023 156.338 372.042C155.742 372.061 155.274 372.56 155.293 373.156C155.312 373.752 155.811 374.22 156.407 374.201Z" fill="white"/>
<path d="M163.307 373.959C163.903 373.94 164.371 373.441 164.352 372.845C164.333 372.249 163.834 371.781 163.238 371.8C162.642 371.82 162.174 372.318 162.193 372.914C162.212 373.511 162.711 373.978 163.307 373.959Z" fill="white"/>
<path d="M170.148 373.78C170.744 373.761 171.212 373.262 171.193 372.666C171.174 372.07 170.675 371.602 170.079 371.621C169.483 371.64 169.015 372.139 169.034 372.735C169.053 373.331 169.552 373.799 170.148 373.78Z" fill="white"/>
<path d="M176.986 373.54C177.583 373.521 178.05 373.022 178.031 372.426C178.012 371.83 177.513 371.362 176.917 371.382C176.321 371.401 175.853 371.899 175.872 372.496C175.892 373.092 176.39 373.559 176.986 373.54Z" fill="white"/>
<path d="M183.885 373.299C184.481 373.28 184.949 372.781 184.93 372.185C184.911 371.589 184.412 371.121 183.816 371.14C183.22 371.159 182.752 371.658 182.771 372.254C182.79 372.85 183.289 373.318 183.885 373.299Z" fill="white"/>
<path d="M190.727 373.12C191.323 373.101 191.791 372.602 191.772 372.006C191.753 371.409 191.254 370.942 190.658 370.961C190.061 370.98 189.594 371.479 189.613 372.075C189.632 372.671 190.131 373.139 190.727 373.12Z" fill="white"/>
<path d="M197.566 372.88C198.162 372.861 198.63 372.362 198.611 371.766C198.592 371.17 198.093 370.702 197.497 370.721C196.901 370.74 196.433 371.239 196.452 371.835C196.471 372.431 196.97 372.899 197.566 372.88Z" fill="white"/>
<path d="M156.648 380.499C157.244 380.48 157.711 379.981 157.692 379.385C157.673 378.789 157.174 378.321 156.578 378.34C155.982 378.359 155.514 378.858 155.534 379.454C155.553 380.05 156.051 380.518 156.648 380.499Z" fill="white"/>
<path d="M163.486 380.26C164.082 380.241 164.55 379.742 164.531 379.146C164.512 378.549 164.013 378.082 163.417 378.101C162.82 378.12 162.353 378.619 162.372 379.215C162.391 379.811 162.89 380.279 163.486 380.26Z" fill="white"/>
<path d="M170.327 380.08C170.923 380.061 171.391 379.562 171.372 378.966C171.353 378.37 170.854 377.902 170.258 377.921C169.662 377.941 169.194 378.439 169.213 379.035C169.232 379.632 169.731 380.099 170.327 380.08Z" fill="white"/>
<path d="M177.227 379.839C177.823 379.82 178.291 379.321 178.272 378.725C178.253 378.129 177.754 377.661 177.158 377.68C176.562 377.699 176.094 378.198 176.113 378.794C176.132 379.39 176.631 379.858 177.227 379.839Z" fill="white"/>
<path d="M184.065 379.6C184.661 379.58 185.129 379.082 185.11 378.486C185.091 377.889 184.592 377.422 183.996 377.441C183.4 377.46 182.932 377.959 182.951 378.555C182.97 379.151 183.469 379.619 184.065 379.6Z" fill="white"/>
<path d="M190.907 379.42C191.503 379.401 191.971 378.902 191.952 378.306C191.933 377.71 191.434 377.242 190.838 377.261C190.242 377.28 189.774 377.779 189.793 378.375C189.812 378.971 190.311 379.439 190.907 379.42Z" fill="white"/>
<path d="M196.631 378.158C196.631 378.398 196.751 378.638 196.871 378.818C197.171 378.218 197.471 377.618 197.771 377.018H197.711C197.111 377.018 196.631 377.558 196.631 378.158Z" fill="white"/>
<path d="M157.872 385.717C157.872 385.117 157.332 384.637 156.732 384.637C156.192 384.637 155.772 385.057 155.712 385.537C156.192 385.957 156.672 386.377 157.152 386.797C157.632 386.617 157.932 386.197 157.872 385.717Z" fill="white"/>
<path d="M163.666 386.56C164.263 386.541 164.73 386.042 164.711 385.446C164.692 384.85 164.193 384.382 163.597 384.401C163.001 384.42 162.533 384.919 162.552 385.515C162.572 386.111 163.07 386.579 163.666 386.56Z" fill="white"/>
<path d="M170.567 386.379C171.163 386.36 171.631 385.861 171.612 385.265C171.593 384.669 171.094 384.201 170.498 384.22C169.902 384.239 169.434 384.738 169.453 385.334C169.472 385.93 169.971 386.398 170.567 386.379Z" fill="white"/>
<path d="M177.406 386.139C178.002 386.12 178.47 385.621 178.451 385.025C178.432 384.429 177.933 383.961 177.337 383.98C176.741 383.999 176.273 384.498 176.292 385.094C176.311 385.69 176.81 386.158 177.406 386.139Z" fill="white"/>
<path d="M184.246 385.9C184.842 385.881 185.31 385.382 185.29 384.786C185.271 384.19 184.773 383.722 184.176 383.741C183.58 383.76 183.112 384.259 183.132 384.855C183.151 385.451 183.649 385.919 184.246 385.9Z" fill="white"/>
<path d="M191.051 383.557C190.451 383.557 189.971 384.097 189.971 384.697C189.971 385.297 190.511 385.777 191.111 385.777C191.351 385.777 191.531 385.717 191.711 385.597C191.771 385.537 191.891 385.417 191.951 385.357C192.131 385.177 192.191 384.937 192.191 384.637C192.191 383.977 191.651 383.497 191.051 383.557Z" fill="white"/>
<path d="M164.59 390.997C164.41 390.817 164.111 390.697 163.811 390.697C164.111 390.817 164.35 390.937 164.59 390.997Z" fill="white"/>
<path d="M171.791 391.537C171.791 390.937 171.251 390.457 170.651 390.457C170.051 390.457 169.571 390.997 169.571 391.597C169.571 391.897 169.691 392.137 169.871 392.317C170.351 392.377 170.771 392.437 171.251 392.497C171.611 392.317 171.851 391.957 171.791 391.537Z" fill="white"/>
<path d="M178.691 391.357C178.691 390.757 178.151 390.277 177.551 390.277C176.951 390.277 176.471 390.817 176.471 391.417C176.471 391.897 176.771 392.257 177.191 392.437C177.551 392.377 177.911 392.317 178.211 392.257C178.511 392.017 178.691 391.717 178.691 391.357Z" fill="white"/>
<path d="M183.371 390.817C183.851 390.637 184.391 390.397 184.871 390.157C184.751 390.097 184.571 390.037 184.391 390.037C183.911 390.037 183.551 390.397 183.371 390.817Z" fill="white"/>
</g>
<g opacity="0.5">
<path d="M68.2907 266.195C69.125 266.195 69.8758 266.863 69.8758 267.697C69.8758 268.531 69.2084 269.282 68.3741 269.282C67.5398 269.282 66.789 268.615 66.789 267.781C66.789 266.946 67.4564 266.195 68.2907 266.195ZM68.541 274.955C69.3753 274.955 70.1261 275.623 70.1261 276.457C70.1261 277.291 69.4587 278.042 68.6244 278.042C67.7901 278.042 67.0392 277.375 67.0392 276.541C67.0392 275.706 67.7067 274.955 68.541 274.955ZM68.8747 283.715C69.709 283.715 70.4598 284.383 70.4598 285.217C70.4598 286.051 69.7924 286.802 68.9581 286.802C68.1238 286.802 67.373 286.135 67.373 285.301C67.373 284.466 68.0404 283.715 68.8747 283.715ZM2.21531 288.888C1.38103 288.888 0.63017 288.221 0.63017 287.386C0.63017 286.552 1.2976 285.801 2.13189 285.801C2.96617 285.801 3.71703 286.469 3.71703 287.303C3.71703 288.137 3.0496 288.888 2.21531 288.888ZM1.8816 280.128C1.04731 280.128 0.296461 279.461 0.296461 278.626C0.296461 277.792 0.963885 277.041 1.79817 277.041C2.63245 277.041 3.38331 277.709 3.38331 278.543C3.38331 279.377 2.71588 280.128 1.8816 280.128ZM1.63132 271.368C0.797031 271.368 0.0461731 270.701 0.0461731 269.866C0.0461731 269.032 0.713603 268.281 1.54789 268.281C2.38217 268.281 3.13302 268.949 3.13302 269.783C3.13302 270.617 2.4656 271.368 1.63132 271.368ZM11.9764 297.314C11.1422 297.314 10.3913 296.647 10.3913 295.813C10.3913 294.978 11.0587 294.227 11.893 294.227C12.7273 294.227 13.4782 294.895 13.4782 295.729C13.4782 296.647 12.8942 297.314 11.9764 297.314ZM11.7262 288.554C10.8919 288.554 10.141 287.887 10.141 287.053C10.141 286.218 10.8084 285.467 11.6427 285.467C12.477 285.467 13.2279 286.135 13.2279 286.969C13.2279 287.887 12.5604 288.554 11.7262 288.554ZM11.4759 279.794C10.6416 279.794 9.89074 279.127 9.89074 278.293C9.89074 277.458 10.5582 276.707 11.3924 276.707C12.2267 276.707 12.9776 277.375 12.9776 278.209C12.9776 279.127 12.3102 279.794 11.4759 279.794ZM11.1422 271.034C10.3079 271.034 9.55702 270.367 9.55702 269.533C9.55702 268.698 10.2244 267.947 11.0587 267.947C11.893 267.947 12.6439 268.615 12.6439 269.449C12.6439 270.367 11.9764 271.034 11.1422 271.034ZM10.8919 262.274C10.0576 262.274 9.30673 261.607 9.30673 260.773C9.30673 259.938 9.97416 259.187 10.8084 259.187C11.6427 259.187 12.3936 259.855 12.3936 260.689C12.3936 261.607 11.7262 262.274 10.8919 262.274ZM21.821 305.824C20.9867 305.824 20.2359 305.156 20.2359 304.322C20.2359 303.488 20.9033 302.737 21.7376 302.737C22.5719 302.737 23.3227 303.404 23.3227 304.239C23.3227 305.073 22.6553 305.741 21.821 305.824ZM21.5707 297.064C20.7364 297.064 19.9856 296.396 19.9856 295.562C19.9856 294.728 20.653 293.977 21.4873 293.977C22.3216 293.977 23.0724 294.644 23.0724 295.479C23.0724 296.313 22.405 296.981 21.5707 297.064ZM21.237 288.304C20.4027 288.304 19.6519 287.637 19.6519 286.802C19.6519 285.968 20.3193 285.217 21.1536 285.217C21.9879 285.217 22.7387 285.885 22.7387 286.719C22.7387 287.553 22.0713 288.221 21.237 288.304ZM20.9867 279.544C20.1524 279.544 19.4016 278.877 19.4016 278.042C19.4016 277.208 20.069 276.457 20.9033 276.457C21.7376 276.457 22.4884 277.125 22.4884 277.959C22.4884 278.793 21.821 279.461 20.9867 279.544ZM20.7364 270.784C19.9022 270.784 19.1513 270.117 19.1513 269.282C19.1513 268.448 19.8187 267.697 20.653 267.697C21.4873 267.697 22.2381 268.365 22.2381 269.199C22.2381 270.033 21.5707 270.701 20.7364 270.784ZM20.4027 262.024C19.5684 262.024 18.8176 261.357 18.8176 260.522C18.8176 259.688 19.485 258.937 20.3193 258.937C21.1536 258.937 21.9044 259.605 21.9044 260.439C21.9044 261.273 21.237 261.941 20.4027 262.024ZM20.1524 253.264C19.3182 253.264 18.5673 252.597 18.5673 251.762C18.5673 250.928 19.2347 250.177 20.069 250.177C20.9033 250.177 21.6542 250.845 21.6542 251.679C21.6542 252.513 20.9867 253.181 20.1524 253.264ZM31.3319 305.49C30.4976 305.49 29.7467 304.823 29.7467 303.988C29.7467 303.154 30.4141 302.403 31.2484 302.403C32.0827 302.403 32.8336 303.071 32.8336 303.905C32.8336 304.739 32.1661 305.49 31.3319 305.49ZM31.0816 296.73C30.2473 296.73 29.4964 296.063 29.4964 295.229C29.4964 294.394 30.1639 293.643 30.9981 293.643C31.8324 293.643 32.5833 294.311 32.5833 295.145C32.5833 295.979 31.9159 296.73 31.0816 296.73ZM30.8313 287.97C29.997 287.97 29.2461 287.303 29.2461 286.469C29.2461 285.634 29.9136 284.883 30.7479 284.883C31.5821 284.883 32.333 285.551 32.333 286.385C32.333 287.219 31.6656 287.97 30.8313 287.97ZM30.4976 279.21C29.6633 279.21 28.9124 278.543 28.9124 277.709C28.9124 276.874 29.5799 276.123 30.4141 276.123C31.2484 276.123 31.9993 276.791 31.9993 277.625C31.9993 278.459 31.3319 279.21 30.4976 279.21ZM30.2473 270.45C29.413 270.45 28.6621 269.783 28.6621 268.949C28.6621 268.114 29.3296 267.363 30.1639 267.363C30.9981 267.363 31.749 268.031 31.749 268.865C31.749 269.699 31.0816 270.45 30.2473 270.45ZM29.997 261.69C29.1627 261.69 28.4119 261.023 28.4119 260.189C28.4119 259.354 29.0793 258.603 29.9136 258.603C30.7479 258.603 31.4987 259.271 31.4987 260.105C31.4987 260.939 30.8313 261.69 29.997 261.69ZM29.6633 252.93C28.829 252.93 28.0781 252.263 28.0781 251.429C28.0781 250.594 28.7456 249.843 29.5799 249.843C30.4141 249.843 31.165 250.511 31.165 251.345C31.165 252.179 30.4976 252.93 29.6633 252.93ZM40.9261 305.156C40.0918 305.156 39.341 304.489 39.341 303.655C39.341 302.82 40.0084 302.07 40.8427 302.07C41.677 302.07 42.4278 302.737 42.4278 303.571C42.4278 304.489 41.7604 305.156 40.9261 305.156ZM40.5924 296.396C39.7581 296.396 39.0073 295.729 39.0073 294.895C39.0073 294.061 39.6747 293.31 40.509 293.31C41.3433 293.31 42.0941 293.977 42.0941 294.811C42.0941 295.729 41.4267 296.396 40.5924 296.396ZM40.3421 287.637C39.5078 287.637 38.757 286.969 38.757 286.135C38.757 285.301 39.4244 284.55 40.2587 284.55C41.093 284.55 41.8438 285.217 41.8438 286.051C41.8438 286.969 41.1764 287.637 40.3421 287.637ZM40.0918 278.877C39.2576 278.877 38.5067 278.209 38.5067 277.375C38.5067 276.541 39.1741 275.79 40.0084 275.79C40.8427 275.79 41.5936 276.457 41.5936 277.291C41.5936 278.209 40.9261 278.877 40.0918 278.877ZM39.7581 270.117C38.9238 270.117 38.173 269.449 38.173 268.615C38.173 267.781 38.8404 267.03 39.6747 267.03C40.509 267.03 41.2598 267.697 41.2598 268.531C41.2598 269.449 40.5924 270.117 39.7581 270.117ZM39.5078 261.357C38.6736 261.357 37.9227 260.689 37.9227 259.855C37.9227 259.021 38.5901 258.27 39.4244 258.27C40.2587 258.27 41.0096 258.937 41.0096 259.771C41.0096 260.689 40.3421 261.357 39.5078 261.357ZM39.1741 252.597C38.3398 252.597 37.589 251.929 37.589 251.095C37.589 250.261 38.2564 249.51 39.0907 249.51C39.925 249.51 40.6758 250.177 40.6758 251.011C40.6758 251.929 40.0918 252.597 39.1741 252.597ZM50.437 304.906C49.6027 304.906 48.8518 304.239 48.8518 303.404C48.8518 302.57 49.5193 301.819 50.3535 301.819C51.1878 301.819 51.9387 302.487 51.9387 303.321C51.9387 304.155 51.2713 304.823 50.437 304.906ZM50.1867 296.146C49.3524 296.146 48.6015 295.479 48.6015 294.644C48.6015 293.81 49.269 293.059 50.1033 293.059C50.9375 293.059 51.6884 293.727 51.6884 294.561C51.6884 295.395 51.021 296.063 50.1867 296.146ZM49.853 287.386C49.0187 287.386 48.2678 286.719 48.2678 285.885C48.2678 285.05 48.9353 284.299 49.7696 284.299C50.6038 284.299 51.3547 284.967 51.3547 285.801C51.3547 286.635 50.6873 287.303 49.853 287.386ZM49.6027 278.626C48.7684 278.626 48.0176 277.959 48.0176 277.125C48.0176 276.29 48.685 275.539 49.5193 275.539C50.3535 275.539 51.1044 276.207 51.1044 277.041C51.1044 277.875 50.437 278.543 49.6027 278.626ZM49.269 269.866C48.4347 269.866 47.6838 269.199 47.6838 268.365C47.6838 267.53 48.3513 266.779 49.1855 266.779C50.0198 266.779 50.7707 267.447 50.7707 268.281C50.8541 269.115 50.1867 269.783 49.269 269.866ZM49.0187 261.106C48.1844 261.106 47.4336 260.439 47.4336 259.605C47.4336 258.77 48.101 258.019 48.9353 258.019C49.7696 258.019 50.5204 258.687 50.5204 259.521C50.5204 260.355 49.853 261.023 49.0187 261.106ZM48.7684 252.346C47.9341 252.346 47.1833 251.679 47.1833 250.845C47.1833 250.01 47.8507 249.259 48.685 249.259C49.5193 249.259 50.2701 249.927 50.2701 250.761C50.2701 251.595 49.6027 252.263 48.7684 252.346ZM59.6975 295.813C58.8633 295.813 58.1124 295.145 58.1124 294.311C58.1124 293.476 58.7798 292.726 59.6141 292.726C60.4484 292.726 61.1993 293.393 61.1993 294.227C61.1993 295.062 60.5318 295.813 59.6975 295.813ZM59.3638 287.053C58.5295 287.053 57.7787 286.385 57.7787 285.551C57.7787 284.717 58.4461 283.966 59.2804 283.966C60.1147 283.966 60.8655 284.633 60.8655 285.467C60.949 286.302 60.2815 287.053 59.3638 287.053ZM59.1135 278.293C58.2793 278.293 57.5284 277.625 57.5284 276.791C57.5284 275.957 58.1958 275.206 59.0301 275.206C59.8644 275.206 60.6153 275.873 60.6153 276.707C60.6153 277.542 59.9478 278.293 59.1135 278.293ZM58.8633 269.533C58.029 269.533 57.2781 268.865 57.2781 268.031C57.2781 267.197 57.9455 266.446 58.7798 266.446C59.6141 266.446 60.365 267.113 60.365 267.947C60.365 268.782 59.6975 269.533 58.8633 269.533ZM58.5295 260.773C57.6953 260.773 56.9444 260.105 56.9444 259.271C56.9444 258.437 57.6118 257.686 58.4461 257.686C59.2804 257.686 60.0312 258.353 60.0312 259.187C60.0312 260.022 59.4473 260.773 58.5295 260.773Z" fill="white"/>
<path d="M20.0694 244.42C20.3192 244.337 20.569 244.253 20.7356 244.087C20.569 244.253 20.3192 244.337 20.0694 244.42Z" fill="white"/>
<path d="M29.4115 244.17C30.2458 244.17 30.9132 243.419 30.9132 242.585C30.9132 242.085 30.5795 241.584 30.2458 241.334C29.5784 241.417 28.911 241.584 28.2435 241.667C28.0767 241.918 27.9098 242.251 27.9098 242.669C27.8264 243.503 28.5772 244.17 29.4115 244.17Z" fill="white"/>
<path d="M37.34 242.418C37.34 243.253 38.0908 243.92 38.9251 243.92C39.7594 243.92 40.4268 243.169 40.4268 242.335C40.4268 241.834 40.1765 241.501 39.8428 241.167C39.2588 241.083 38.7582 241.083 38.1742 241C37.6737 241.25 37.34 241.834 37.34 242.418Z" fill="white"/>
<path d="M48.4344 243.586C48.6847 243.586 48.8516 243.503 49.0184 243.419C48.351 243.169 47.6836 242.919 47.0161 242.669C47.2664 243.253 47.8504 243.586 48.4344 243.586Z" fill="white"/>
<path d="M10.6408 253.514C11.4751 253.514 12.1425 252.763 12.1425 251.929C12.1425 251.262 11.6419 250.761 11.058 250.511C10.3905 251.095 9.7231 251.762 9.1391 252.43C9.30596 253.097 9.88995 253.598 10.6408 253.514Z" fill="white"/>
<path d="M20.1165 253.183C20.9454 253.157 21.5959 252.463 21.5693 251.634C21.5427 250.805 20.8492 250.155 20.0202 250.181C19.1912 250.208 18.5408 250.901 18.5674 251.73C18.594 252.559 19.2875 253.21 20.1165 253.183Z" fill="white"/>
<path d="M29.7124 252.931C30.5414 252.904 31.1919 252.211 31.1653 251.382C31.1388 250.553 30.4452 249.902 29.6163 249.929C28.7873 249.955 28.1368 250.649 28.1634 251.478C28.1899 252.307 28.8835 252.957 29.7124 252.931Z" fill="white"/>
<path d="M39.2224 252.598C40.0513 252.571 40.7018 251.878 40.6752 251.049C40.6486 250.22 39.955 249.57 39.1261 249.596C38.2971 249.623 37.6467 250.316 37.6733 251.145C37.6998 251.974 38.3934 252.625 39.2224 252.598Z" fill="white"/>
<path d="M48.7321 252.265C49.5611 252.238 50.2115 251.545 50.185 250.716C50.1584 249.887 49.4649 249.237 48.6359 249.263C47.807 249.29 47.1565 249.983 47.183 250.812C47.2096 251.641 47.9031 252.292 48.7321 252.265Z" fill="white"/>
<path d="M56.6937 250.511C56.6937 251.345 57.4445 252.013 58.2788 252.013C59.1131 252.013 59.7805 251.262 59.7805 250.427C59.7805 250.177 59.6971 249.843 59.5302 249.677C59.28 249.51 59.0297 249.259 58.7794 249.093C58.6125 249.009 58.3622 249.009 58.1954 249.009C57.3611 249.009 56.6937 249.677 56.6937 250.511Z" fill="white"/>
<path d="M10.8565 262.277C11.6855 262.251 12.3359 261.557 12.3093 260.728C12.2828 259.899 11.5892 259.249 10.7602 259.275C9.93128 259.302 9.28083 259.995 9.30741 260.824C9.334 261.653 10.0276 262.304 10.8565 262.277Z" fill="white"/>
<path d="M20.4505 261.942C21.2795 261.915 21.9299 261.222 21.9034 260.393C21.8768 259.564 21.1832 258.913 20.3543 258.94C19.5253 258.966 18.8749 259.66 18.9014 260.489C18.928 261.318 19.6216 261.968 20.4505 261.942Z" fill="white"/>
<path d="M29.9631 261.692C30.792 261.665 31.4425 260.972 31.4159 260.143C31.3893 259.314 30.6958 258.663 29.8668 258.69C29.0379 258.717 28.3874 259.41 28.414 260.239C28.4406 261.068 29.1341 261.719 29.9631 261.692Z" fill="white"/>
<path d="M39.4736 261.359C40.3025 261.333 40.953 260.639 40.9264 259.81C40.8998 258.981 40.2063 258.331 39.3773 258.357C38.5483 258.384 37.8979 259.077 37.9245 259.906C37.9511 260.735 38.6446 261.386 39.4736 261.359Z" fill="white"/>
<path d="M49.0683 261.024C49.8972 260.997 50.5477 260.303 50.5211 259.474C50.4945 258.646 49.801 257.995 48.972 258.022C48.143 258.048 47.4926 258.742 47.5192 259.571C47.5458 260.4 48.2393 261.05 49.0683 261.024Z" fill="white"/>
<path d="M58.5787 260.774C59.4077 260.747 60.0581 260.054 60.0316 259.225C60.005 258.396 59.3115 257.745 58.4825 257.772C57.6536 257.798 57.0031 258.492 57.0296 259.321C57.0562 260.15 57.7497 260.8 58.5787 260.774Z" fill="white"/>
<path d="M68.1234 260.439C67.7897 259.605 67.2891 258.854 66.7885 258.019C66.6217 258.27 66.5382 258.603 66.5382 258.937C66.5382 259.855 67.2891 260.522 68.1234 260.439Z" fill="white"/>
<path d="M1.59723 271.371C2.42619 271.345 3.07664 270.651 3.05006 269.822C3.02347 268.993 2.32992 268.343 1.50096 268.369C0.672006 268.396 0.02155 269.089 0.0481332 269.918C0.0747164 270.747 0.768272 271.398 1.59723 271.371Z" fill="white"/>
<path d="M11.1913 271.036C12.0202 271.009 12.6707 270.315 12.6441 269.486C12.6175 268.657 11.9239 268.007 11.095 268.034C10.266 268.06 9.61557 268.754 9.64216 269.583C9.66874 270.412 10.3623 271.062 11.1913 271.036Z" fill="white"/>
<path d="M20.7011 270.703C21.53 270.676 22.1805 269.983 22.1539 269.154C22.1273 268.325 21.4338 267.674 20.6048 267.701C19.7759 267.727 19.1254 268.421 19.152 269.25C19.1786 270.079 19.8721 270.729 20.7011 270.703Z" fill="white"/>
<path d="M30.2143 270.453C31.0433 270.426 31.6937 269.733 31.6671 268.904C31.6405 268.075 30.947 267.425 30.118 267.451C29.2891 267.478 28.6386 268.171 28.6652 269C28.6918 269.829 29.3853 270.48 30.2143 270.453Z" fill="white"/>
<path d="M39.807 270.118C40.6359 270.091 41.2864 269.397 41.2598 268.568C41.2332 267.739 40.5396 267.089 39.7107 267.116C38.8817 267.142 38.2313 267.836 38.2579 268.665C38.2844 269.494 38.978 270.144 39.807 270.118Z" fill="white"/>
<path d="M49.3168 269.785C50.1457 269.758 50.7962 269.065 50.7696 268.236C50.743 267.407 50.0495 266.756 49.2205 266.783C48.3915 266.809 47.7411 267.503 47.7677 268.332C47.7943 269.161 48.4878 269.811 49.3168 269.785Z" fill="white"/>
<path d="M58.83 269.535C59.6589 269.508 60.3094 268.815 60.2828 267.986C60.2562 267.157 59.5627 266.507 58.7337 266.533C57.9048 266.56 57.2543 267.253 57.2809 268.082C57.3075 268.911 58.001 269.562 58.83 269.535Z" fill="white"/>
<path d="M68.3397 269.202C69.1687 269.175 69.8192 268.482 69.7926 267.653C69.7661 266.824 69.0725 266.173 68.2436 266.2C67.4146 266.227 66.7641 266.92 66.7907 267.749C66.8173 268.578 67.5108 269.228 68.3397 269.202Z" fill="white"/>
<path d="M1.92924 280.13C2.7582 280.103 3.40866 279.41 3.38207 278.581C3.35549 277.752 2.66193 277.101 1.83297 277.128C1.00402 277.154 0.353566 277.848 0.38015 278.677C0.406733 279.506 1.10028 280.156 1.92924 280.13Z" fill="white"/>
<path d="M11.4404 279.797C12.2694 279.77 12.9198 279.077 12.8933 278.248C12.8667 277.419 12.1731 276.768 11.3442 276.795C10.5152 276.821 9.86475 277.515 9.89133 278.344C9.91792 279.173 10.6115 279.823 11.4404 279.797Z" fill="white"/>
<path d="M20.9509 279.464C21.7799 279.437 22.4304 278.744 22.4038 277.915C22.3772 277.086 21.6836 276.435 20.8547 276.462C20.0257 276.488 19.3753 277.182 19.4018 278.011C19.4284 278.84 20.122 279.49 20.9509 279.464Z" fill="white"/>
<path d="M30.5463 279.212C31.3753 279.185 32.0257 278.491 31.9991 277.662C31.9726 276.834 31.279 276.183 30.45 276.21C29.6211 276.236 28.9706 276.93 28.9972 277.759C29.0238 278.588 29.7174 279.238 30.5463 279.212Z" fill="white"/>
<path d="M40.0575 278.879C40.8865 278.852 41.5369 278.158 41.5103 277.33C41.4837 276.501 40.7902 275.85 39.9612 275.877C39.1323 275.903 38.4818 276.597 38.5084 277.426C38.535 278.255 39.2285 278.905 40.0575 278.879Z" fill="white"/>
<path d="M49.568 278.546C50.397 278.519 51.0474 277.826 51.0208 276.997C50.9943 276.168 50.3007 275.517 49.4717 275.544C48.6428 275.57 47.9923 276.264 48.0189 277.093C48.0455 277.922 48.7391 278.572 49.568 278.546Z" fill="white"/>
<path d="M59.1634 278.293C59.9923 278.267 60.6428 277.573 60.6162 276.744C60.5896 275.915 59.8961 275.265 59.0671 275.292C58.2382 275.318 57.5877 276.012 57.6143 276.841C57.6409 277.67 58.3344 278.32 59.1634 278.293Z" fill="white"/>
<path d="M68.6732 277.961C69.5022 277.934 70.1526 277.24 70.126 276.412C70.0995 275.583 69.4059 274.932 68.5769 274.959C67.748 274.985 67.0975 275.679 67.1241 276.508C67.1507 277.337 67.8442 277.987 68.6732 277.961Z" fill="white"/>
<path d="M2.18107 288.891C3.01003 288.864 3.66051 288.171 3.63395 287.342C3.60739 286.513 2.91385 285.862 2.08489 285.889C1.25593 285.915 0.605456 286.609 0.632017 287.438C0.658579 288.267 1.35212 288.917 2.18107 288.891Z" fill="white"/>
<path d="M11.6903 288.558C12.5193 288.531 13.1697 287.838 13.1431 287.009C13.1166 286.18 12.423 285.529 11.594 285.556C10.7651 285.582 10.1146 286.276 10.1412 287.105C10.1678 287.934 10.8614 288.584 11.6903 288.558Z" fill="white"/>
<path d="M21.285 288.222C22.114 288.196 22.7644 287.502 22.7378 286.673C22.7112 285.844 22.0177 285.194 21.1887 285.22C20.3598 285.247 19.7093 285.94 19.7359 286.769C19.7625 287.598 20.456 288.249 21.285 288.222Z" fill="white"/>
<path d="M30.7982 287.973C31.6272 287.946 32.2776 287.253 32.251 286.424C32.2245 285.595 31.5309 284.944 30.702 284.971C29.873 284.997 29.2225 285.691 29.2491 286.52C29.2757 287.349 29.9693 287.999 30.7982 287.973Z" fill="white"/>
<path d="M40.3074 287.64C41.1363 287.613 41.7868 286.92 41.7602 286.091C41.7336 285.262 41.0401 284.611 40.2111 284.638C39.3821 284.664 38.7317 285.358 38.7583 286.187C38.7849 287.016 39.4784 287.666 40.3074 287.64Z" fill="white"/>
<path d="M49.9 287.304C50.729 287.278 51.3794 286.584 51.3529 285.755C51.3263 284.926 50.6327 284.276 49.8038 284.302C48.9748 284.329 48.3243 285.022 48.3509 285.851C48.3775 286.68 49.0711 287.331 49.9 287.304Z" fill="white"/>
<path d="M59.4139 287.055C60.2429 287.028 60.8933 286.335 60.8667 285.506C60.8402 284.677 60.1466 284.026 59.3177 284.053C58.4887 284.079 57.8382 284.773 57.8648 285.602C57.8914 286.431 58.585 287.081 59.4139 287.055Z" fill="white"/>
<path d="M68.9244 286.722C69.7534 286.695 70.4039 286.001 70.3773 285.173C70.3507 284.344 69.6571 283.693 68.8282 283.72C67.9992 283.746 67.3488 284.44 67.3753 285.269C67.4019 286.098 68.0955 286.748 68.9244 286.722Z" fill="white"/>
<path d="M12.025 297.316C12.854 297.29 13.5044 296.596 13.4779 295.767C13.4513 294.938 12.7577 294.288 11.9288 294.314C11.0998 294.341 10.4494 295.034 10.4759 295.863C10.5025 296.692 11.1961 297.343 12.025 297.316Z" fill="white"/>
<path d="M21.5342 296.983C22.3631 296.957 23.0136 296.263 22.987 295.434C22.9604 294.605 22.2669 293.955 21.4379 293.981C20.609 294.008 19.9585 294.701 19.9851 295.53C20.0117 296.359 20.7052 297.01 21.5342 296.983Z" fill="white"/>
<path d="M31.0474 296.734C31.8764 296.707 32.5268 296.014 32.5002 295.185C32.4737 294.356 31.7801 293.705 30.9511 293.732C30.1222 293.759 29.4717 294.452 29.4983 295.281C29.5249 296.11 30.2184 296.76 31.0474 296.734Z" fill="white"/>
<path d="M40.6414 296.398C41.4704 296.372 42.1208 295.678 42.0942 294.849C42.0677 294.02 41.3741 293.37 40.5451 293.396C39.7162 293.423 39.0657 294.116 39.0923 294.945C39.1189 295.774 39.8125 296.425 40.6414 296.398Z" fill="white"/>
<path d="M50.1506 296.065C50.9795 296.039 51.63 295.345 51.6034 294.516C51.5768 293.687 50.8833 293.037 50.0543 293.063C49.2254 293.09 48.5749 293.784 48.6015 294.613C48.6281 295.441 49.3216 296.092 50.1506 296.065Z" fill="white"/>
<path d="M59.6645 295.816C60.4934 295.789 61.1439 295.096 61.1173 294.267C61.0907 293.438 60.3972 292.787 59.5682 292.814C58.7392 292.84 58.0888 293.534 58.1154 294.363C58.142 295.192 58.8355 295.842 59.6645 295.816Z" fill="white"/>
<path d="M67.6239 294.061C67.6239 294.394 67.7908 294.728 67.9576 294.978C68.3748 294.144 68.7919 293.31 69.2091 292.476H69.1256C68.2913 292.476 67.6239 293.226 67.6239 294.061Z" fill="white"/>
<path d="M13.7279 304.573C13.7279 303.738 12.9771 303.071 12.1428 303.071C11.3919 303.071 10.8079 303.655 10.7245 304.322C11.3919 304.906 12.0594 305.49 12.7268 306.074C13.3942 305.824 13.8114 305.24 13.7279 304.573Z" fill="white"/>
<path d="M21.7847 305.744C22.6137 305.718 23.2641 305.024 23.2376 304.195C23.211 303.366 22.5174 302.716 21.6885 302.742C20.8595 302.769 20.2091 303.463 20.2356 304.292C20.2622 305.12 20.9558 305.771 21.7847 305.744Z" fill="white"/>
<path d="M31.3808 305.492C32.2097 305.466 32.8602 304.772 32.8336 303.943C32.807 303.114 32.1135 302.464 31.2845 302.49C30.4556 302.517 29.8051 303.21 29.8317 304.039C29.8583 304.868 30.5518 305.519 31.3808 305.492Z" fill="white"/>
<path d="M40.8905 305.159C41.7195 305.133 42.37 304.439 42.3434 303.61C42.3168 302.781 41.6233 302.131 40.7943 302.157C39.9654 302.184 39.3149 302.877 39.3415 303.706C39.368 304.535 40.0616 305.186 40.8905 305.159Z" fill="white"/>
<path d="M50.4018 304.826C51.2308 304.8 51.8812 304.106 51.8546 303.277C51.828 302.448 51.1345 301.798 50.3055 301.824C49.4766 301.851 48.8261 302.545 48.8527 303.374C48.8793 304.203 49.5728 304.853 50.4018 304.826Z" fill="white"/>
<path d="M59.8643 301.569C59.03 301.569 58.3626 302.32 58.3626 303.154C58.3626 303.989 59.1135 304.656 59.9477 304.656C60.2815 304.656 60.5317 304.573 60.782 304.406C60.8655 304.322 61.0323 304.155 61.1157 304.072C61.366 303.822 61.4495 303.488 61.4495 303.071C61.4495 302.153 60.6986 301.486 59.8643 301.569Z" fill="white"/>
<path d="M23.0687 311.914C22.8189 311.664 22.4025 311.497 21.9861 311.497C22.4025 311.664 22.7356 311.83 23.0687 311.914Z" fill="white"/>
<path d="M33.0822 312.665C33.0822 311.831 32.3314 311.163 31.4971 311.163C30.6628 311.163 29.9954 311.914 29.9954 312.749C29.9954 313.166 30.1622 313.499 30.4125 313.75C31.08 313.833 31.664 313.917 32.3314 314C32.832 313.75 33.1657 313.249 33.0822 312.665Z" fill="white"/>
<path d="M42.6776 312.415C42.6776 311.58 41.9268 310.913 41.0925 310.913C40.2582 310.913 39.5908 311.664 39.5908 312.498C39.5908 313.166 40.0079 313.666 40.5919 313.916C41.0925 313.833 41.5931 313.75 42.0102 313.666C42.4273 313.332 42.6776 312.915 42.6776 312.415Z" fill="white"/>
<path d="M49.1848 311.664C49.8522 311.414 50.6031 311.08 51.2705 310.746C51.1037 310.663 50.8534 310.579 50.6031 310.579C49.9357 310.579 49.4351 311.08 49.1848 311.664Z" fill="white"/>
</g>
<g opacity="0.5">
<path d="M574.291 284.195C575.125 284.195 575.876 284.863 575.876 285.697C575.876 286.531 575.208 287.282 574.374 287.282C573.54 287.282 572.789 286.615 572.789 285.781C572.789 284.946 573.456 284.195 574.291 284.195ZM574.541 292.955C575.375 292.955 576.126 293.623 576.126 294.457C576.126 295.291 575.459 296.042 574.624 296.042C573.79 296.042 573.039 295.375 573.039 294.541C573.039 293.706 573.707 292.955 574.541 292.955ZM574.875 301.715C575.709 301.715 576.46 302.383 576.46 303.217C576.46 304.051 575.792 304.802 574.958 304.802C574.124 304.802 573.373 304.135 573.373 303.301C573.373 302.466 574.04 301.715 574.875 301.715ZM508.215 306.888C507.381 306.888 506.63 306.221 506.63 305.386C506.63 304.552 507.298 303.801 508.132 303.801C508.966 303.801 509.717 304.469 509.717 305.303C509.717 306.137 509.05 306.888 508.215 306.888ZM507.882 298.128C507.047 298.128 506.296 297.461 506.296 296.626C506.296 295.792 506.964 295.041 507.798 295.041C508.632 295.041 509.383 295.709 509.383 296.543C509.383 297.377 508.716 298.128 507.882 298.128ZM507.631 289.368C506.797 289.368 506.046 288.701 506.046 287.866C506.046 287.032 506.714 286.281 507.548 286.281C508.382 286.281 509.133 286.949 509.133 287.783C509.133 288.617 508.466 289.368 507.631 289.368ZM517.976 315.314C517.142 315.314 516.391 314.647 516.391 313.813C516.391 312.978 517.059 312.227 517.893 312.227C518.727 312.227 519.478 312.895 519.478 313.729C519.478 314.647 518.894 315.314 517.976 315.314ZM517.726 306.554C516.892 306.554 516.141 305.887 516.141 305.053C516.141 304.218 516.808 303.467 517.643 303.467C518.477 303.467 519.228 304.135 519.228 304.969C519.228 305.887 518.56 306.554 517.726 306.554ZM517.476 297.794C516.642 297.794 515.891 297.127 515.891 296.293C515.891 295.458 516.558 294.707 517.392 294.707C518.227 294.707 518.978 295.375 518.978 296.209C518.978 297.127 518.31 297.794 517.476 297.794ZM517.142 289.034C516.308 289.034 515.557 288.367 515.557 287.533C515.557 286.698 516.224 285.947 517.059 285.947C517.893 285.947 518.644 286.615 518.644 287.449C518.644 288.367 517.976 289.034 517.142 289.034ZM516.892 280.274C516.058 280.274 515.307 279.607 515.307 278.773C515.307 277.938 515.974 277.187 516.808 277.187C517.643 277.187 518.394 277.855 518.394 278.689C518.394 279.607 517.726 280.274 516.892 280.274ZM527.821 323.824C526.987 323.824 526.236 323.156 526.236 322.322C526.236 321.488 526.903 320.737 527.738 320.737C528.572 320.737 529.323 321.404 529.323 322.239C529.323 323.073 528.655 323.741 527.821 323.824ZM527.571 315.064C526.736 315.064 525.986 314.396 525.986 313.562C525.986 312.728 526.653 311.977 527.487 311.977C528.322 311.977 529.072 312.644 529.072 313.479C529.072 314.313 528.405 314.981 527.571 315.064ZM527.237 306.304C526.403 306.304 525.652 305.637 525.652 304.802C525.652 303.968 526.319 303.217 527.154 303.217C527.988 303.217 528.739 303.885 528.739 304.719C528.739 305.553 528.071 306.221 527.237 306.304ZM526.987 297.544C526.152 297.544 525.402 296.877 525.402 296.042C525.402 295.208 526.069 294.457 526.903 294.457C527.738 294.457 528.488 295.125 528.488 295.959C528.488 296.793 527.821 297.461 526.987 297.544ZM526.736 288.784C525.902 288.784 525.151 288.117 525.151 287.282C525.151 286.448 525.819 285.697 526.653 285.697C527.487 285.697 528.238 286.365 528.238 287.199C528.238 288.033 527.571 288.701 526.736 288.784ZM526.403 280.024C525.568 280.024 524.818 279.357 524.818 278.522C524.818 277.688 525.485 276.937 526.319 276.937C527.154 276.937 527.904 277.605 527.904 278.439C527.904 279.273 527.237 279.941 526.403 280.024ZM526.152 271.264C525.318 271.264 524.567 270.597 524.567 269.762C524.567 268.928 525.235 268.177 526.069 268.177C526.903 268.177 527.654 268.845 527.654 269.679C527.654 270.513 526.987 271.181 526.152 271.264ZM537.332 323.49C536.498 323.49 535.747 322.823 535.747 321.988C535.747 321.154 536.414 320.403 537.248 320.403C538.083 320.403 538.834 321.071 538.834 321.905C538.834 322.739 538.166 323.49 537.332 323.49ZM537.082 314.73C536.247 314.73 535.496 314.063 535.496 313.229C535.496 312.394 536.164 311.643 536.998 311.643C537.832 311.643 538.583 312.311 538.583 313.145C538.583 313.979 537.916 314.73 537.082 314.73ZM536.831 305.97C535.997 305.97 535.246 305.303 535.246 304.469C535.246 303.634 535.914 302.883 536.748 302.883C537.582 302.883 538.333 303.551 538.333 304.385C538.333 305.219 537.666 305.97 536.831 305.97ZM536.498 297.21C535.663 297.21 534.912 296.543 534.912 295.709C534.912 294.874 535.58 294.123 536.414 294.123C537.248 294.123 537.999 294.791 537.999 295.625C537.999 296.459 537.332 297.21 536.498 297.21ZM536.247 288.45C535.413 288.45 534.662 287.783 534.662 286.949C534.662 286.114 535.33 285.363 536.164 285.363C536.998 285.363 537.749 286.031 537.749 286.865C537.749 287.699 537.082 288.45 536.247 288.45ZM535.997 279.69C535.163 279.69 534.412 279.023 534.412 278.189C534.412 277.354 535.079 276.603 535.914 276.603C536.748 276.603 537.499 277.271 537.499 278.105C537.499 278.939 536.831 279.69 535.997 279.69ZM535.663 270.93C534.829 270.93 534.078 270.263 534.078 269.429C534.078 268.594 534.746 267.843 535.58 267.843C536.414 267.843 537.165 268.511 537.165 269.345C537.165 270.179 536.498 270.93 535.663 270.93ZM546.926 323.156C546.092 323.156 545.341 322.489 545.341 321.655C545.341 320.82 546.008 320.07 546.843 320.07C547.677 320.07 548.428 320.737 548.428 321.571C548.428 322.489 547.76 323.156 546.926 323.156ZM546.592 314.396C545.758 314.396 545.007 313.729 545.007 312.895C545.007 312.061 545.675 311.31 546.509 311.31C547.343 311.31 548.094 311.977 548.094 312.811C548.094 313.729 547.427 314.396 546.592 314.396ZM546.342 305.637C545.508 305.637 544.757 304.969 544.757 304.135C544.757 303.301 545.424 302.55 546.259 302.55C547.093 302.55 547.844 303.217 547.844 304.051C547.844 304.969 547.176 305.637 546.342 305.637ZM546.092 296.877C545.258 296.877 544.507 296.209 544.507 295.375C544.507 294.541 545.174 293.79 546.008 293.79C546.843 293.79 547.594 294.457 547.594 295.291C547.594 296.209 546.926 296.877 546.092 296.877ZM545.758 288.117C544.924 288.117 544.173 287.449 544.173 286.615C544.173 285.781 544.84 285.03 545.675 285.03C546.509 285.03 547.26 285.697 547.26 286.531C547.26 287.449 546.592 288.117 545.758 288.117ZM545.508 279.357C544.674 279.357 543.923 278.689 543.923 277.855C543.923 277.021 544.59 276.27 545.424 276.27C546.259 276.27 547.01 276.937 547.01 277.771C547.01 278.689 546.342 279.357 545.508 279.357ZM545.174 270.597C544.34 270.597 543.589 269.929 543.589 269.095C543.589 268.261 544.256 267.51 545.091 267.51C545.925 267.51 546.676 268.177 546.676 269.011C546.676 269.929 546.092 270.597 545.174 270.597ZM556.437 322.906C555.603 322.906 554.852 322.239 554.852 321.404C554.852 320.57 555.519 319.819 556.354 319.819C557.188 319.819 557.939 320.487 557.939 321.321C557.939 322.155 557.271 322.823 556.437 322.906ZM556.187 314.146C555.352 314.146 554.602 313.479 554.602 312.644C554.602 311.81 555.269 311.059 556.103 311.059C556.938 311.059 557.688 311.727 557.688 312.561C557.688 313.395 557.021 314.063 556.187 314.146ZM555.853 305.386C555.019 305.386 554.268 304.719 554.268 303.885C554.268 303.05 554.935 302.299 555.77 302.299C556.604 302.299 557.355 302.967 557.355 303.801C557.355 304.635 556.687 305.303 555.853 305.386ZM555.603 296.626C554.768 296.626 554.018 295.959 554.018 295.125C554.018 294.29 554.685 293.539 555.519 293.539C556.354 293.539 557.104 294.207 557.104 295.041C557.104 295.875 556.437 296.543 555.603 296.626ZM555.269 287.866C554.435 287.866 553.684 287.199 553.684 286.365C553.684 285.53 554.351 284.779 555.186 284.779C556.02 284.779 556.771 285.447 556.771 286.281C556.854 287.115 556.187 287.783 555.269 287.866ZM555.019 279.106C554.184 279.106 553.434 278.439 553.434 277.605C553.434 276.77 554.101 276.019 554.935 276.019C555.77 276.019 556.52 276.687 556.52 277.521C556.52 278.355 555.853 279.023 555.019 279.106ZM554.768 270.346C553.934 270.346 553.183 269.679 553.183 268.845C553.183 268.01 553.851 267.259 554.685 267.259C555.519 267.259 556.27 267.927 556.27 268.761C556.27 269.595 555.603 270.263 554.768 270.346ZM565.698 313.813C564.863 313.813 564.112 313.145 564.112 312.311C564.112 311.476 564.78 310.726 565.614 310.726C566.448 310.726 567.199 311.393 567.199 312.227C567.199 313.062 566.532 313.813 565.698 313.813ZM565.364 305.053C564.53 305.053 563.779 304.385 563.779 303.551C563.779 302.717 564.446 301.966 565.28 301.966C566.115 301.966 566.866 302.633 566.866 303.467C566.949 304.302 566.282 305.053 565.364 305.053ZM565.114 296.293C564.279 296.293 563.528 295.625 563.528 294.791C563.528 293.957 564.196 293.206 565.03 293.206C565.864 293.206 566.615 293.873 566.615 294.707C566.615 295.542 565.948 296.293 565.114 296.293ZM564.863 287.533C564.029 287.533 563.278 286.865 563.278 286.031C563.278 285.197 563.946 284.446 564.78 284.446C565.614 284.446 566.365 285.113 566.365 285.947C566.365 286.782 565.698 287.533 564.863 287.533ZM564.53 278.773C563.695 278.773 562.944 278.105 562.944 277.271C562.944 276.437 563.612 275.686 564.446 275.686C565.28 275.686 566.031 276.353 566.031 277.187C566.031 278.022 565.447 278.773 564.53 278.773Z" fill="white"/>
<path d="M526.069 262.42C526.319 262.337 526.569 262.253 526.736 262.087C526.569 262.253 526.319 262.337 526.069 262.42Z" fill="white"/>
<path d="M535.412 262.17C536.246 262.17 536.913 261.419 536.913 260.585C536.913 260.085 536.58 259.584 536.246 259.334C535.578 259.417 534.911 259.584 534.244 259.667C534.077 259.918 533.91 260.251 533.91 260.669C533.826 261.503 534.577 262.17 535.412 262.17Z" fill="white"/>
<path d="M543.34 260.418C543.34 261.253 544.091 261.92 544.925 261.92C545.759 261.92 546.427 261.169 546.427 260.335C546.427 259.834 546.177 259.501 545.843 259.167C545.259 259.083 544.758 259.083 544.174 259C543.674 259.25 543.34 259.834 543.34 260.418Z" fill="white"/>
<path d="M554.434 261.586C554.685 261.586 554.852 261.503 555.018 261.419C554.351 261.169 553.684 260.919 553.016 260.669C553.266 261.253 553.85 261.586 554.434 261.586Z" fill="white"/>
<path d="M516.641 271.514C517.475 271.514 518.143 270.763 518.143 269.929C518.143 269.262 517.642 268.761 517.058 268.511C516.391 269.095 515.723 269.762 515.139 270.43C515.306 271.097 515.89 271.598 516.641 271.514Z" fill="white"/>
<path d="M526.116 271.183C526.945 271.157 527.596 270.463 527.569 269.634C527.543 268.805 526.849 268.155 526.02 268.181C525.191 268.208 524.541 268.901 524.567 269.73C524.594 270.559 525.287 271.21 526.116 271.183Z" fill="white"/>
<path d="M535.712 270.931C536.541 270.904 537.192 270.211 537.165 269.382C537.139 268.553 536.445 267.902 535.616 267.929C534.787 267.955 534.137 268.649 534.163 269.478C534.19 270.307 534.883 270.957 535.712 270.931Z" fill="white"/>
<path d="M545.222 270.598C546.051 270.571 546.702 269.878 546.675 269.049C546.649 268.22 545.955 267.57 545.126 267.596C544.297 267.623 543.647 268.316 543.673 269.145C543.7 269.974 544.393 270.625 545.222 270.598Z" fill="white"/>
<path d="M554.732 270.265C555.561 270.238 556.212 269.545 556.185 268.716C556.158 267.887 555.465 267.237 554.636 267.263C553.807 267.29 553.156 267.983 553.183 268.812C553.21 269.641 553.903 270.292 554.732 270.265Z" fill="white"/>
<path d="M562.694 268.511C562.694 269.345 563.445 270.013 564.279 270.013C565.113 270.013 565.781 269.262 565.781 268.427C565.781 268.177 565.697 267.843 565.53 267.677C565.28 267.51 565.03 267.259 564.779 267.093C564.613 267.009 564.362 267.009 564.195 267.009C563.361 267.009 562.694 267.677 562.694 268.511Z" fill="white"/>
<path d="M516.857 280.277C517.685 280.251 518.336 279.557 518.309 278.728C518.283 277.899 517.589 277.249 516.76 277.275C515.931 277.302 515.281 277.995 515.307 278.824C515.334 279.653 516.028 280.304 516.857 280.277Z" fill="white"/>
<path d="M526.451 279.942C527.279 279.915 527.93 279.222 527.903 278.393C527.877 277.564 527.183 276.913 526.354 276.94C525.525 276.966 524.875 277.66 524.901 278.489C524.928 279.318 525.622 279.968 526.451 279.942Z" fill="white"/>
<path d="M535.963 279.692C536.792 279.665 537.442 278.972 537.416 278.143C537.389 277.314 536.696 276.663 535.867 276.69C535.038 276.717 534.387 277.41 534.414 278.239C534.441 279.068 535.134 279.719 535.963 279.692Z" fill="white"/>
<path d="M545.474 279.359C546.303 279.333 546.953 278.639 546.926 277.81C546.9 276.981 546.206 276.331 545.377 276.357C544.548 276.384 543.898 277.077 543.924 277.906C543.951 278.735 544.645 279.386 545.474 279.359Z" fill="white"/>
<path d="M555.068 279.024C555.897 278.997 556.548 278.303 556.521 277.474C556.495 276.646 555.801 275.995 554.972 276.022C554.143 276.048 553.493 276.742 553.519 277.571C553.546 278.4 554.239 279.05 555.068 279.024Z" fill="white"/>
<path d="M564.579 278.774C565.408 278.747 566.058 278.054 566.032 277.225C566.005 276.396 565.311 275.745 564.483 275.772C563.654 275.798 563.003 276.492 563.03 277.321C563.056 278.15 563.75 278.8 564.579 278.774Z" fill="white"/>
<path d="M574.123 278.439C573.79 277.605 573.289 276.854 572.788 276.019C572.622 276.27 572.538 276.603 572.538 276.937C572.538 277.855 573.289 278.522 574.123 278.439Z" fill="white"/>
<path d="M507.597 289.371C508.426 289.345 509.077 288.651 509.05 287.822C509.023 286.993 508.33 286.343 507.501 286.369C506.672 286.396 506.022 287.089 506.048 287.918C506.075 288.747 506.768 289.398 507.597 289.371Z" fill="white"/>
<path d="M517.191 289.036C518.02 289.009 518.671 288.315 518.644 287.486C518.617 286.657 517.924 286.007 517.095 286.034C516.266 286.06 515.616 286.754 515.642 287.583C515.669 288.412 516.362 289.062 517.191 289.036Z" fill="white"/>
<path d="M526.701 288.703C527.53 288.676 528.18 287.983 528.154 287.154C528.127 286.325 527.434 285.674 526.605 285.701C525.776 285.727 525.125 286.421 525.152 287.25C525.179 288.079 525.872 288.729 526.701 288.703Z" fill="white"/>
<path d="M536.214 288.453C537.043 288.426 537.694 287.733 537.667 286.904C537.641 286.075 536.947 285.425 536.118 285.451C535.289 285.478 534.639 286.171 534.665 287C534.692 287.829 535.385 288.48 536.214 288.453Z" fill="white"/>
<path d="M545.807 288.118C546.636 288.091 547.286 287.397 547.26 286.568C547.233 285.739 546.54 285.089 545.711 285.116C544.882 285.142 544.231 285.836 544.258 286.665C544.284 287.494 544.978 288.144 545.807 288.118Z" fill="white"/>
<path d="M555.317 287.785C556.146 287.758 556.796 287.065 556.77 286.236C556.743 285.407 556.049 284.756 555.221 284.783C554.392 284.809 553.741 285.503 553.768 286.332C553.794 287.161 554.488 287.811 555.317 287.785Z" fill="white"/>
<path d="M564.83 287.535C565.659 287.508 566.309 286.815 566.283 285.986C566.256 285.157 565.563 284.507 564.734 284.533C563.905 284.56 563.254 285.253 563.281 286.082C563.308 286.911 564.001 287.562 564.83 287.535Z" fill="white"/>
<path d="M574.34 287.202C575.169 287.175 575.819 286.482 575.793 285.653C575.766 284.824 575.073 284.173 574.244 284.2C573.415 284.227 572.764 284.92 572.791 285.749C572.817 286.578 573.511 287.228 574.34 287.202Z" fill="white"/>
<path d="M507.929 298.13C508.758 298.103 509.409 297.41 509.382 296.581C509.356 295.752 508.662 295.101 507.833 295.128C507.004 295.154 506.354 295.848 506.38 296.677C506.407 297.506 507.1 298.156 507.929 298.13Z" fill="white"/>
<path d="M517.44 297.797C518.269 297.77 518.92 297.077 518.893 296.248C518.867 295.419 518.173 294.768 517.344 294.795C516.515 294.821 515.865 295.515 515.891 296.344C515.918 297.173 516.611 297.823 517.44 297.797Z" fill="white"/>
<path d="M526.951 297.464C527.78 297.437 528.43 296.744 528.404 295.915C528.377 295.086 527.684 294.435 526.855 294.462C526.026 294.488 525.375 295.182 525.402 296.011C525.428 296.84 526.122 297.49 526.951 297.464Z" fill="white"/>
<path d="M536.546 297.212C537.375 297.185 538.026 296.491 537.999 295.662C537.973 294.834 537.279 294.183 536.45 294.21C535.621 294.236 534.971 294.93 534.997 295.759C535.024 296.588 535.717 297.238 536.546 297.212Z" fill="white"/>
<path d="M546.057 296.879C546.886 296.852 547.537 296.158 547.51 295.33C547.484 294.501 546.79 293.85 545.961 293.877C545.132 293.903 544.482 294.597 544.508 295.426C544.535 296.255 545.229 296.905 546.057 296.879Z" fill="white"/>
<path d="M555.568 296.546C556.397 296.519 557.047 295.826 557.021 294.997C556.994 294.168 556.301 293.517 555.472 293.544C554.643 293.57 553.992 294.264 554.019 295.093C554.045 295.922 554.739 296.572 555.568 296.546Z" fill="white"/>
<path d="M565.163 296.293C565.992 296.267 566.643 295.573 566.616 294.744C566.59 293.915 565.896 293.265 565.067 293.292C564.238 293.318 563.588 294.012 563.614 294.841C563.641 295.67 564.334 296.32 565.163 296.293Z" fill="white"/>
<path d="M574.673 295.961C575.502 295.934 576.153 295.24 576.126 294.412C576.099 293.583 575.406 292.932 574.577 292.959C573.748 292.985 573.098 293.679 573.124 294.508C573.151 295.337 573.844 295.987 574.673 295.961Z" fill="white"/>
<path d="M508.181 306.891C509.01 306.864 509.661 306.171 509.634 305.342C509.607 304.513 508.914 303.862 508.085 303.889C507.256 303.915 506.605 304.609 506.632 305.438C506.659 306.267 507.352 306.917 508.181 306.891Z" fill="white"/>
<path d="M517.69 306.558C518.519 306.531 519.17 305.838 519.143 305.009C519.117 304.18 518.423 303.529 517.594 303.556C516.765 303.582 516.115 304.276 516.141 305.105C516.168 305.934 516.861 306.584 517.69 306.558Z" fill="white"/>
<path d="M527.285 306.222C528.114 306.196 528.764 305.502 528.738 304.673C528.711 303.844 528.018 303.194 527.189 303.22C526.36 303.247 525.709 303.94 525.736 304.769C525.762 305.598 526.456 306.249 527.285 306.222Z" fill="white"/>
<path d="M536.798 305.973C537.627 305.946 538.278 305.253 538.251 304.424C538.224 303.595 537.531 302.944 536.702 302.971C535.873 302.997 535.223 303.691 535.249 304.52C535.276 305.349 535.969 305.999 536.798 305.973Z" fill="white"/>
<path d="M546.307 305.64C547.136 305.613 547.787 304.92 547.76 304.091C547.734 303.262 547.04 302.611 546.211 302.638C545.382 302.664 544.732 303.358 544.758 304.187C544.785 305.016 545.478 305.666 546.307 305.64Z" fill="white"/>
<path d="M555.9 305.304C556.729 305.278 557.379 304.584 557.353 303.755C557.326 302.926 556.633 302.276 555.804 302.302C554.975 302.329 554.324 303.022 554.351 303.851C554.378 304.68 555.071 305.331 555.9 305.304Z" fill="white"/>
<path d="M565.414 305.055C566.243 305.028 566.893 304.335 566.867 303.506C566.84 302.677 566.147 302.026 565.318 302.053C564.489 302.079 563.838 302.773 563.865 303.602C563.891 304.431 564.585 305.081 565.414 305.055Z" fill="white"/>
<path d="M574.924 304.722C575.753 304.695 576.404 304.001 576.377 303.173C576.351 302.344 575.657 301.693 574.828 301.72C573.999 301.746 573.349 302.44 573.375 303.269C573.402 304.098 574.095 304.748 574.924 304.722Z" fill="white"/>
<path d="M518.025 315.316C518.854 315.29 519.504 314.596 519.478 313.767C519.451 312.938 518.758 312.288 517.929 312.314C517.1 312.341 516.449 313.034 516.476 313.863C516.503 314.692 517.196 315.343 518.025 315.316Z" fill="white"/>
<path d="M527.534 314.983C528.363 314.957 529.014 314.263 528.987 313.434C528.96 312.605 528.267 311.955 527.438 311.981C526.609 312.008 525.959 312.701 525.985 313.53C526.012 314.359 526.705 315.01 527.534 314.983Z" fill="white"/>
<path d="M537.047 314.734C537.876 314.707 538.527 314.014 538.5 313.185C538.474 312.356 537.78 311.705 536.951 311.732C536.122 311.759 535.472 312.452 535.498 313.281C535.525 314.11 536.218 314.76 537.047 314.734Z" fill="white"/>
<path d="M546.641 314.398C547.47 314.372 548.121 313.678 548.094 312.849C548.068 312.02 547.374 311.37 546.545 311.396C545.716 311.423 545.066 312.116 545.092 312.945C545.119 313.774 545.812 314.425 546.641 314.398Z" fill="white"/>
<path d="M556.151 314.065C556.98 314.039 557.63 313.345 557.603 312.516C557.577 311.687 556.883 311.037 556.054 311.063C555.225 311.09 554.575 311.784 554.601 312.613C554.628 313.441 555.322 314.092 556.151 314.065Z" fill="white"/>
<path d="M565.664 313.816C566.493 313.789 567.144 313.096 567.117 312.267C567.091 311.438 566.397 310.787 565.568 310.814C564.739 310.84 564.089 311.534 564.115 312.363C564.142 313.192 564.836 313.842 565.664 313.816Z" fill="white"/>
<path d="M573.624 312.061C573.624 312.394 573.791 312.728 573.958 312.978C574.375 312.144 574.792 311.31 575.209 310.476H575.126C574.291 310.476 573.624 311.226 573.624 312.061Z" fill="white"/>
<path d="M519.728 322.573C519.728 321.738 518.977 321.071 518.143 321.071C517.392 321.071 516.808 321.655 516.725 322.322C517.392 322.906 518.059 323.49 518.727 324.074C519.394 323.824 519.811 323.24 519.728 322.573Z" fill="white"/>
<path d="M527.785 323.744C528.614 323.718 529.264 323.024 529.238 322.195C529.211 321.366 528.517 320.716 527.688 320.742C526.86 320.769 526.209 321.463 526.236 322.292C526.262 323.12 526.956 323.771 527.785 323.744Z" fill="white"/>
<path d="M537.381 323.492C538.21 323.466 538.86 322.772 538.834 321.943C538.807 321.114 538.113 320.464 537.285 320.49C536.456 320.517 535.805 321.21 535.832 322.039C535.858 322.868 536.552 323.519 537.381 323.492Z" fill="white"/>
<path d="M546.891 323.159C547.72 323.133 548.37 322.439 548.343 321.61C548.317 320.781 547.623 320.131 546.794 320.157C545.965 320.184 545.315 320.877 545.341 321.706C545.368 322.535 546.062 323.186 546.891 323.159Z" fill="white"/>
<path d="M556.402 322.826C557.231 322.8 557.881 322.106 557.855 321.277C557.828 320.448 557.134 319.798 556.306 319.824C555.477 319.851 554.826 320.545 554.853 321.374C554.879 322.203 555.573 322.853 556.402 322.826Z" fill="white"/>
<path d="M565.864 319.569C565.03 319.569 564.363 320.32 564.363 321.154C564.363 321.989 565.113 322.656 565.948 322.656C566.281 322.656 566.532 322.573 566.782 322.406C566.865 322.322 567.032 322.155 567.116 322.072C567.366 321.822 567.449 321.488 567.449 321.071C567.449 320.153 566.699 319.486 565.864 319.569Z" fill="white"/>
<path d="M529.069 329.914C528.819 329.664 528.403 329.497 527.986 329.497C528.403 329.664 528.736 329.83 529.069 329.914Z" fill="white"/>
<path d="M539.082 330.665C539.082 329.831 538.331 329.163 537.497 329.163C536.663 329.163 535.995 329.914 535.995 330.749C535.995 331.166 536.162 331.499 536.413 331.75C537.08 331.833 537.664 331.917 538.331 332C538.832 331.75 539.166 331.249 539.082 330.665Z" fill="white"/>
<path d="M548.678 330.415C548.678 329.58 547.927 328.913 547.092 328.913C546.258 328.913 545.591 329.664 545.591 330.498C545.591 331.166 546.008 331.666 546.592 331.916C547.092 331.833 547.593 331.75 548.01 331.666C548.427 331.332 548.678 330.915 548.678 330.415Z" fill="white"/>
<path d="M555.185 329.664C555.852 329.414 556.603 329.08 557.271 328.746C557.104 328.663 556.853 328.579 556.603 328.579C555.936 328.579 555.435 329.08 555.185 329.664Z" fill="white"/>
</g>
<g opacity="0.5">
<path d="M210.495 40.2706C211.331 40.2706 212.085 40.9401 212.085 41.7768C212.085 42.6136 211.415 43.3667 210.578 43.3667C209.742 43.3667 208.988 42.6973 208.988 41.8605C208.988 41.0237 209.658 40.2706 210.495 40.2706ZM210.746 49.0568C211.582 49.0568 212.336 49.7262 212.336 50.563C212.336 51.3998 211.666 52.1529 210.829 52.1529C209.993 52.1529 209.239 51.4835 209.239 50.6467C209.239 49.8099 209.909 49.0568 210.746 49.0568ZM211.08 57.843C211.917 57.843 212.67 58.5124 212.67 59.3492C212.67 60.1859 212.001 60.939 211.164 60.939C210.327 60.939 209.574 60.2696 209.574 59.4328C209.574 58.5961 210.244 57.843 211.08 57.843ZM144.222 63.031C143.385 63.031 142.632 62.3616 142.632 61.5248C142.632 60.688 143.301 59.9349 144.138 59.9349C144.975 59.9349 145.728 60.6043 145.728 61.4411C145.728 62.2779 145.059 63.031 144.222 63.031ZM143.887 54.2448C143.05 54.2448 142.297 53.5754 142.297 52.7386C142.297 51.9018 142.967 51.1487 143.804 51.1487C144.64 51.1487 145.393 51.8182 145.393 52.6549C145.393 53.4917 144.724 54.2448 143.887 54.2448ZM143.636 45.4586C142.799 45.4586 142.046 44.7892 142.046 43.9525C142.046 43.1157 142.716 42.3626 143.552 42.3626C144.389 42.3626 145.142 43.032 145.142 43.8688C145.142 44.7056 144.473 45.4586 143.636 45.4586ZM154.012 71.4824C153.175 71.4824 152.422 70.813 152.422 69.9762C152.422 69.1395 153.092 68.3863 153.929 68.3863C154.765 68.3863 155.518 69.0558 155.518 69.8925C155.518 70.813 154.933 71.4824 154.012 71.4824ZM153.761 62.6963C152.924 62.6963 152.171 62.0268 152.171 61.1901C152.171 60.3533 152.841 59.6002 153.677 59.6002C154.514 59.6002 155.267 60.2696 155.267 61.1064C155.267 62.0268 154.598 62.6963 153.761 62.6963ZM153.51 53.9101C152.673 53.9101 151.92 53.2407 151.92 52.4039C151.92 51.5671 152.59 50.814 153.426 50.814C154.263 50.814 155.016 51.4835 155.016 52.3202C155.016 53.2407 154.347 53.9101 153.51 53.9101ZM153.175 45.1239C152.339 45.1239 151.586 44.4545 151.586 43.6177C151.586 42.781 152.255 42.0279 153.092 42.0279C153.929 42.0279 154.682 42.6973 154.682 43.5341C154.682 44.4545 154.012 45.1239 153.175 45.1239ZM152.924 36.3378C152.088 36.3378 151.335 35.6684 151.335 34.8316C151.335 33.9948 152.004 33.2417 152.841 33.2417C153.677 33.2417 154.431 33.9111 154.431 34.7479C154.431 35.6684 153.761 36.3378 152.924 36.3378ZM163.886 80.0176C163.049 80.0176 162.296 79.3481 162.296 78.5113C162.296 77.6746 162.966 76.9215 163.802 76.9215C164.639 76.9215 165.392 77.5909 165.392 78.4277C165.392 79.2644 164.723 79.9339 163.886 80.0176ZM163.635 71.2314C162.798 71.2314 162.045 70.562 162.045 69.7252C162.045 68.8884 162.715 68.1353 163.551 68.1353C164.388 68.1353 165.141 68.8047 165.141 69.6415C165.141 70.4783 164.472 71.1477 163.635 71.2314ZM163.3 62.4452C162.464 62.4452 161.711 61.7758 161.711 60.939C161.711 60.1022 162.38 59.3492 163.217 59.3492C164.054 59.3492 164.807 60.0186 164.807 60.8553C164.807 61.6921 164.137 62.3616 163.3 62.4452ZM163.049 53.6591C162.213 53.6591 161.46 52.9896 161.46 52.1529C161.46 51.3161 162.129 50.563 162.966 50.563C163.802 50.563 164.556 51.2324 164.556 52.0692C164.556 52.906 163.886 53.5754 163.049 53.6591ZM162.798 44.8729C161.962 44.8729 161.208 44.2035 161.208 43.3667C161.208 42.5299 161.878 41.7768 162.715 41.7768C163.551 41.7768 164.305 42.4463 164.305 43.283C164.305 44.1198 163.635 44.7892 162.798 44.8729ZM162.464 36.0867C161.627 36.0867 160.874 35.4173 160.874 34.5805C160.874 33.7438 161.543 32.9907 162.38 32.9907C163.217 32.9907 163.97 33.6601 163.97 34.4969C163.97 35.3337 163.3 36.0031 162.464 36.0867ZM162.213 27.3006C161.376 27.3006 160.623 26.6312 160.623 25.7944C160.623 24.9576 161.292 24.2045 162.129 24.2045C162.966 24.2045 163.719 24.8739 163.719 25.7107C163.719 26.5475 163.049 27.2169 162.213 27.3006ZM173.425 79.6828C172.589 79.6828 171.836 79.0134 171.836 78.1766C171.836 77.3399 172.505 76.5868 173.342 76.5868C174.179 76.5868 174.932 77.2562 174.932 78.0929C174.932 78.9297 174.262 79.6828 173.425 79.6828ZM173.174 70.8967C172.338 70.8967 171.585 70.2272 171.585 69.3905C171.585 68.5537 172.254 67.8006 173.091 67.8006C173.927 67.8006 174.681 68.47 174.681 69.3068C174.681 70.1436 174.011 70.8967 173.174 70.8967ZM172.923 62.1105C172.087 62.1105 171.333 61.4411 171.333 60.6043C171.333 59.7675 172.003 59.0144 172.84 59.0144C173.676 59.0144 174.43 59.6839 174.43 60.5206C174.43 61.3574 173.76 62.1105 172.923 62.1105ZM172.589 53.3243C171.752 53.3243 170.999 52.6549 170.999 51.8182C170.999 50.9814 171.668 50.2283 172.505 50.2283C173.342 50.2283 174.095 50.8977 174.095 51.7345C174.095 52.5713 173.425 53.3243 172.589 53.3243ZM172.338 44.5382C171.501 44.5382 170.748 43.8688 170.748 43.032C170.748 42.1952 171.417 41.4421 172.254 41.4421C173.091 41.4421 173.844 42.1115 173.844 42.9483C173.844 43.7851 173.174 44.5382 172.338 44.5382ZM172.087 35.752C171.25 35.752 170.497 35.0826 170.497 34.2458C170.497 33.4091 171.166 32.656 172.003 32.656C172.84 32.656 173.593 33.3254 173.593 34.1622C173.593 34.9989 172.923 35.752 172.087 35.752ZM171.752 26.9659C170.915 26.9659 170.162 26.2965 170.162 25.4597C170.162 24.6229 170.831 23.8698 171.668 23.8698C172.505 23.8698 173.258 24.5392 173.258 25.376C173.258 26.2128 172.589 26.9659 171.752 26.9659ZM183.048 79.3481C182.212 79.3481 181.458 78.6787 181.458 77.8419C181.458 77.0051 182.128 76.2521 182.965 76.2521C183.801 76.2521 184.555 76.9215 184.555 77.7582C184.555 78.6787 183.885 79.3481 183.048 79.3481ZM182.714 70.562C181.877 70.562 181.124 69.8925 181.124 69.0558C181.124 68.219 181.793 67.4659 182.63 67.4659C183.467 67.4659 184.22 68.1353 184.22 68.9721C184.22 69.8925 183.55 70.562 182.714 70.562ZM182.463 61.7758C181.626 61.7758 180.873 61.1064 180.873 60.2696C180.873 59.4328 181.542 58.6797 182.379 58.6797C183.216 58.6797 183.969 59.3492 183.969 60.1859C183.969 61.1064 183.299 61.7758 182.463 61.7758ZM182.212 52.9896C181.375 52.9896 180.622 52.3202 180.622 51.4835C180.622 50.6467 181.291 49.8936 182.128 49.8936C182.965 49.8936 183.718 50.563 183.718 51.3998C183.718 52.3202 183.048 52.9896 182.212 52.9896ZM181.877 44.2035C181.04 44.2035 180.287 43.5341 180.287 42.6973C180.287 41.8605 180.956 41.1074 181.793 41.1074C182.63 41.1074 183.383 41.7768 183.383 42.6136C183.383 43.5341 182.714 44.2035 181.877 44.2035ZM181.626 35.4173C180.789 35.4173 180.036 34.7479 180.036 33.9111C180.036 33.0744 180.705 32.3213 181.542 32.3213C182.379 32.3213 183.132 32.9907 183.132 33.8275C183.132 34.7479 182.463 35.4173 181.626 35.4173ZM181.291 26.6312C180.454 26.6312 179.701 25.9618 179.701 25.125C179.701 24.2882 180.371 23.5351 181.207 23.5351C182.044 23.5351 182.797 24.2045 182.797 25.0413C182.797 25.9617 182.212 26.6312 181.291 26.6312ZM192.588 79.0971C191.751 79.0971 190.998 78.4277 190.998 77.5909C190.998 76.7541 191.667 76.001 192.504 76.001C193.341 76.001 194.094 76.6704 194.094 77.5072C194.094 78.344 193.424 79.0134 192.588 79.0971ZM192.337 70.3109C191.5 70.3109 190.747 69.6415 190.747 68.8047C190.747 67.9679 191.416 67.2148 192.253 67.2148C193.09 67.2148 193.843 67.8843 193.843 68.7211C193.843 69.5578 193.173 70.2273 192.337 70.3109ZM192.002 61.5248C191.165 61.5248 190.412 60.8553 190.412 60.0186C190.412 59.1818 191.081 58.4287 191.918 58.4287C192.755 58.4287 193.508 59.0981 193.508 59.9349C193.508 60.7717 192.839 61.4411 192.002 61.5248ZM191.751 52.7386C190.914 52.7386 190.161 52.0692 190.161 51.2324C190.161 50.3956 190.83 49.6425 191.667 49.6425C192.504 49.6425 193.257 50.312 193.257 51.1487C193.257 51.9855 192.588 52.6549 191.751 52.7386ZM191.416 43.9525C190.579 43.9525 189.826 43.283 189.826 42.4463C189.826 41.6095 190.496 40.8564 191.332 40.8564C192.169 40.8564 192.922 41.5258 192.922 42.3626C193.006 43.1994 192.337 43.8688 191.416 43.9525ZM191.165 35.1663C190.328 35.1663 189.575 34.4969 189.575 33.6601C189.575 32.8233 190.245 32.0702 191.081 32.0702C191.918 32.0702 192.671 32.7396 192.671 33.5764C192.671 34.4132 192.002 35.0826 191.165 35.1663ZM190.914 26.3801C190.077 26.3801 189.324 25.7107 189.324 24.8739C189.324 24.0372 189.994 23.2841 190.83 23.2841C191.667 23.2841 192.42 23.9535 192.42 24.7903C192.42 25.627 191.751 26.2965 190.914 26.3801ZM201.876 69.9762C201.039 69.9762 200.286 69.3068 200.286 68.47C200.286 67.6332 200.955 66.8801 201.792 66.8801C202.629 66.8801 203.382 67.5496 203.382 68.3863C203.382 69.2231 202.713 69.9762 201.876 69.9762ZM201.541 61.1901C200.704 61.1901 199.951 60.5206 199.951 59.6839C199.951 58.8471 200.621 58.094 201.457 58.094C202.294 58.094 203.047 58.7634 203.047 59.6002C203.131 60.437 202.462 61.1901 201.541 61.1901ZM201.29 52.4039C200.453 52.4039 199.7 51.7345 199.7 50.8977C199.7 50.0609 200.37 49.3078 201.206 49.3078C202.043 49.3078 202.796 49.9772 202.796 50.814C202.796 51.6508 202.127 52.4039 201.29 52.4039ZM201.039 43.6177C200.202 43.6177 199.449 42.9483 199.449 42.1115C199.449 41.2748 200.119 40.5217 200.955 40.5217C201.792 40.5217 202.545 41.1911 202.545 42.0279C202.545 42.8646 201.876 43.6177 201.039 43.6177ZM200.704 34.8316C199.868 34.8316 199.114 34.1622 199.114 33.3254C199.114 32.4886 199.784 31.7355 200.621 31.7355C201.457 31.7355 202.211 32.4049 202.211 33.2417C202.211 34.0785 201.625 34.8316 200.704 34.8316Z" fill="white"/>
<path d="M162.129 18.4301C162.38 18.3465 162.63 18.263 162.798 18.0959C162.63 18.263 162.38 18.3465 162.129 18.4301Z" fill="white"/>
<path d="M171.499 18.1797C172.336 18.1797 173.006 17.4266 173.006 16.5898C173.006 16.0878 172.671 15.5857 172.336 15.3347C171.667 15.4183 170.997 15.5857 170.328 15.6694C170.161 15.9204 169.993 16.2551 169.993 16.6735C169.91 17.5103 170.663 18.1797 171.499 18.1797Z" fill="white"/>
<path d="M179.451 16.4225C179.451 17.2593 180.205 17.9287 181.041 17.9287C181.878 17.9287 182.548 17.1756 182.548 16.3388C182.548 15.8368 182.297 15.5021 181.962 15.1674C181.376 15.0837 180.874 15.0837 180.288 15C179.786 15.251 179.451 15.8368 179.451 16.4225Z" fill="white"/>
<path d="M190.579 17.594C190.83 17.594 190.997 17.5103 191.165 17.4266C190.495 17.1756 189.826 16.9246 189.157 16.6735C189.408 17.2593 189.993 17.594 190.579 17.594Z" fill="white"/>
<path d="M152.673 27.5516C153.509 27.5516 154.179 26.7986 154.179 25.9618C154.179 25.2924 153.677 24.7903 153.091 24.5392C152.422 25.125 151.752 25.7944 151.166 26.4638C151.334 27.1333 151.92 27.6353 152.673 27.5516Z" fill="white"/>
<path d="M162.177 27.2196C163.008 27.1929 163.66 26.4973 163.634 25.6659C163.607 24.8344 162.911 24.182 162.08 24.2087C161.249 24.2353 160.596 24.931 160.623 25.7624C160.649 26.5938 161.345 27.2462 162.177 27.2196Z" fill="white"/>
<path d="M171.801 26.9664C172.633 26.9398 173.285 26.2442 173.258 25.4128C173.232 24.5813 172.536 23.9289 171.705 23.9555C170.873 23.9822 170.221 24.6778 170.248 25.5092C170.274 26.3407 170.97 26.9931 171.801 26.9664Z" fill="white"/>
<path d="M181.34 26.6327C182.171 26.606 182.823 25.9104 182.797 25.079C182.77 24.2476 182.074 23.5952 181.243 23.6218C180.412 23.6485 179.759 24.3441 179.786 25.1756C179.812 26.007 180.508 26.6594 181.34 26.6327Z" fill="white"/>
<path d="M190.878 26.2987C191.709 26.272 192.362 25.5764 192.335 24.745C192.308 23.9135 191.613 23.2611 190.781 23.2878C189.95 23.3144 189.297 24.01 189.324 24.8414C189.351 25.6729 190.046 26.3253 190.878 26.2987Z" fill="white"/>
<path d="M198.863 24.5392C198.863 25.376 199.616 26.0454 200.453 26.0454C201.29 26.0454 201.959 25.2923 201.959 24.4555C201.959 24.2045 201.875 23.8698 201.708 23.7024C201.457 23.5351 201.206 23.284 200.955 23.1167C200.788 23.033 200.537 23.033 200.369 23.033C199.532 23.033 198.863 23.7024 198.863 24.5392Z" fill="white"/>
<path d="M152.889 36.3407C153.72 36.3141 154.373 35.6184 154.346 34.787C154.319 33.9556 153.624 33.3032 152.792 33.3298C151.961 33.3565 151.309 34.0521 151.335 34.8836C151.362 35.715 152.057 36.3674 152.889 36.3407Z" fill="white"/>
<path d="M162.512 36.0042C163.343 35.9775 163.995 35.2819 163.969 34.4505C163.942 33.619 163.246 32.9666 162.415 32.9933C161.584 33.0199 160.931 33.7156 160.958 34.547C160.985 35.3784 161.68 36.0308 162.512 36.0042Z" fill="white"/>
<path d="M172.053 35.7538C172.884 35.7271 173.536 35.0315 173.51 34.2C173.483 33.3686 172.787 32.7162 171.956 32.7429C171.125 32.7695 170.472 33.4652 170.499 34.2966C170.526 35.128 171.221 35.7804 172.053 35.7538Z" fill="white"/>
<path d="M181.591 35.4199C182.423 35.3933 183.075 34.6977 183.049 33.8662C183.022 33.0348 182.326 32.3824 181.495 32.4091C180.663 32.4357 180.011 33.1313 180.038 33.9628C180.064 34.7942 180.76 35.4466 181.591 35.4199Z" fill="white"/>
<path d="M191.215 35.0834C192.046 35.0567 192.699 34.3611 192.672 33.5297C192.645 32.6982 191.95 32.0458 191.118 32.0725C190.287 32.0992 189.634 32.7948 189.661 33.6262C189.688 34.4577 190.383 35.1101 191.215 35.0834Z" fill="white"/>
<path d="M200.754 34.8329C201.585 34.8062 202.238 34.1106 202.211 33.2792C202.184 32.4478 201.489 31.7954 200.657 31.822C199.826 31.8486 199.173 32.5442 199.2 33.3757C199.227 34.2071 199.922 34.8595 200.754 34.8329Z" fill="white"/>
<path d="M210.327 34.4969C209.992 33.6601 209.49 32.907 208.988 32.0702C208.821 32.3212 208.737 32.6559 208.737 32.9907C208.737 33.9111 209.49 34.5805 210.327 34.4969Z" fill="white"/>
<path d="M143.602 45.462C144.433 45.4353 145.086 44.7397 145.059 43.9083C145.033 43.0768 144.337 42.4245 143.505 42.4511C142.674 42.4778 142.022 43.1734 142.048 44.0048C142.075 44.8363 142.771 45.4887 143.602 45.462Z" fill="white"/>
<path d="M153.225 45.1253C154.056 45.0987 154.709 44.403 154.682 43.5716C154.655 42.7402 153.96 42.0878 153.128 42.1144C152.297 42.1411 151.644 42.8367 151.671 43.6682C151.698 44.4996 152.393 45.152 153.225 45.1253Z" fill="white"/>
<path d="M162.763 44.7915C163.594 44.7649 164.247 44.0692 164.22 43.2378C164.193 42.4064 163.498 41.754 162.666 41.7806C161.835 41.8073 161.183 42.5029 161.209 43.3344C161.236 44.1658 161.931 44.8182 162.763 44.7915Z" fill="white"/>
<path d="M172.305 44.541C173.136 44.5143 173.788 43.8187 173.762 42.9873C173.735 42.1558 173.039 41.5034 172.208 41.5301C171.377 41.5568 170.724 42.2524 170.751 43.0838C170.777 43.9153 171.473 44.5677 172.305 44.541Z" fill="white"/>
<path d="M181.926 44.2045C182.757 44.1778 183.41 43.4822 183.383 42.6508C183.356 41.8193 182.661 41.1669 181.829 41.1936C180.998 41.2203 180.345 41.9159 180.372 42.7473C180.399 43.5788 181.094 44.2312 181.926 44.2045Z" fill="white"/>
<path d="M191.464 43.8706C192.296 43.844 192.948 43.1484 192.921 42.3169C192.895 41.4855 192.199 40.8331 191.368 40.8597C190.536 40.8864 189.884 41.582 189.91 42.4135C189.937 43.2449 190.633 43.8973 191.464 43.8706Z" fill="white"/>
<path d="M201.006 43.6203C201.837 43.5936 202.49 42.898 202.463 42.0665C202.436 41.2351 201.741 40.5827 200.909 40.6094C200.078 40.636 199.425 41.3317 199.452 42.1631C199.479 42.9945 200.174 43.6469 201.006 43.6203Z" fill="white"/>
<path d="M210.544 43.2862C211.375 43.2596 212.028 42.564 212.001 41.7325C211.974 40.9011 211.279 40.2487 210.447 40.2753C209.616 40.302 208.964 40.9976 208.99 41.829C209.017 42.6604 209.712 43.3128 210.544 43.2862Z" fill="white"/>
<path d="M143.935 54.2465C144.766 54.2198 145.419 53.5242 145.392 52.6928C145.366 51.8613 144.67 51.2089 143.838 51.2356C143.007 51.2623 142.355 51.9579 142.381 52.7893C142.408 53.6208 143.104 54.2732 143.935 54.2465Z" fill="white"/>
<path d="M153.475 53.9126C154.306 53.8859 154.958 53.1903 154.932 52.3589C154.905 51.5274 154.209 50.875 153.378 50.9017C152.547 50.9283 151.894 51.624 151.921 52.4554C151.948 53.2868 152.643 53.9392 153.475 53.9126Z" fill="white"/>
<path d="M163.014 53.5787C163.845 53.552 164.497 52.8564 164.471 52.025C164.444 51.1935 163.748 50.5411 162.917 50.5678C162.086 50.5945 161.433 51.2901 161.46 52.1215C161.486 52.953 162.182 53.6054 163.014 53.5787Z" fill="white"/>
<path d="M172.638 53.3257C173.469 53.299 174.121 52.6034 174.095 51.772C174.068 50.9405 173.372 50.2882 172.541 50.3148C171.71 50.3415 171.057 51.0371 171.084 51.8685C171.11 52.7 171.806 53.3524 172.638 53.3257Z" fill="white"/>
<path d="M182.177 52.9917C183.009 52.9651 183.661 52.2695 183.634 51.438C183.608 50.6066 182.912 49.9542 182.081 49.9808C181.249 50.0075 180.597 50.7031 180.623 51.5346C180.65 52.366 181.346 53.0184 182.177 52.9917Z" fill="white"/>
<path d="M191.716 52.6579C192.548 52.6312 193.2 51.9356 193.173 51.1042C193.147 50.2727 192.451 49.6203 191.62 49.647C190.788 49.6736 190.136 50.3693 190.162 51.2007C190.189 52.0321 190.885 52.6845 191.716 52.6579Z" fill="white"/>
<path d="M201.34 52.4049C202.172 52.3782 202.824 51.6826 202.797 50.8511C202.771 50.0197 202.075 49.3673 201.244 49.394C200.412 49.4206 199.76 50.1163 199.786 50.9477C199.813 51.7791 200.509 52.4315 201.34 52.4049Z" fill="white"/>
<path d="M210.878 52.071C211.71 52.0443 212.362 51.3487 212.336 50.5173C212.309 49.6859 211.613 49.0335 210.782 49.0601C209.95 49.0868 209.298 49.7824 209.325 50.6138C209.351 51.4453 210.047 52.0977 210.878 52.071Z" fill="white"/>
<path d="M144.188 63.0336C145.019 63.007 145.671 62.3114 145.645 61.48C145.618 60.6485 144.923 59.9961 144.091 60.0227C143.26 60.0494 142.607 60.745 142.634 61.5764C142.661 62.4079 143.356 63.0603 144.188 63.0336Z" fill="white"/>
<path d="M153.725 62.6999C154.557 62.6733 155.209 61.9776 155.182 61.1462C155.156 60.3148 154.46 59.6624 153.629 59.689C152.797 59.7157 152.145 60.4113 152.172 61.2428C152.198 62.0742 152.894 62.7266 153.725 62.6999Z" fill="white"/>
<path d="M163.349 62.3632C164.18 62.3365 164.832 61.6409 164.806 60.8095C164.779 59.978 164.083 59.3256 163.252 59.3523C162.421 59.379 161.768 60.0746 161.795 60.906C161.822 61.7374 162.517 62.3899 163.349 62.3632Z" fill="white"/>
<path d="M172.89 62.113C173.722 62.0863 174.374 61.3907 174.347 60.5593C174.321 59.7278 173.625 59.0755 172.794 59.1021C171.962 59.1288 171.31 59.8244 171.336 60.6558C171.363 61.4873 172.059 62.1396 172.89 62.113Z" fill="white"/>
<path d="M182.428 61.779C183.259 61.7524 183.912 61.0567 183.885 60.2253C183.858 59.3939 183.163 58.7415 182.331 58.7681C181.5 58.7948 180.847 59.4904 180.874 60.3219C180.901 61.1533 181.596 61.8057 182.428 61.779Z" fill="white"/>
<path d="M192.049 61.4426C192.881 61.4159 193.533 60.7203 193.506 59.8889C193.48 59.0575 192.784 58.405 191.953 58.4317C191.121 58.4584 190.469 59.154 190.495 59.9854C190.522 60.8169 191.218 61.4693 192.049 61.4426Z" fill="white"/>
<path d="M201.591 61.1923C202.423 61.1656 203.075 60.47 203.049 59.6386C203.022 58.8071 202.326 58.1547 201.495 58.1814C200.663 58.2081 200.011 58.9037 200.038 59.7351C200.064 60.5665 200.76 61.219 201.591 61.1923Z" fill="white"/>
<path d="M211.13 60.8582C211.962 60.8315 212.614 60.1359 212.587 59.3044C212.561 58.473 211.865 57.8206 211.034 57.8473C210.202 57.874 209.55 58.5696 209.577 59.401C209.603 60.2324 210.299 60.8848 211.13 60.8582Z" fill="white"/>
<path d="M154.061 71.4844C154.892 71.4577 155.545 70.7621 155.518 69.9307C155.491 69.0993 154.796 68.4469 153.964 68.4735C153.133 68.5002 152.481 69.1958 152.507 70.0273C152.534 70.8587 153.23 71.5111 154.061 71.4844Z" fill="white"/>
<path d="M163.599 71.1505C164.43 71.1238 165.082 70.4282 165.056 69.5967C165.029 68.7653 164.333 68.1129 163.502 68.1396C162.671 68.1663 162.018 68.8619 162.045 69.6933C162.071 70.5247 162.767 71.1771 163.599 71.1505Z" fill="white"/>
<path d="M173.14 70.9003C173.972 70.8736 174.624 70.178 174.597 69.3466C174.571 68.5151 173.875 67.8627 173.044 67.8894C172.212 67.9161 171.56 68.6117 171.586 69.4431C171.613 70.2746 172.309 70.9269 173.14 70.9003Z" fill="white"/>
<path d="M182.763 70.5637C183.594 70.537 184.247 69.8414 184.22 69.01C184.193 68.1785 183.498 67.5261 182.666 67.5528C181.835 67.5795 181.182 68.2751 181.209 69.1065C181.236 69.938 181.931 70.5904 182.763 70.5637Z" fill="white"/>
<path d="M192.3 70.2298C193.132 70.2032 193.784 69.5076 193.758 68.6761C193.731 67.8447 193.035 67.1923 192.204 67.2189C191.372 67.2456 190.72 67.9412 190.747 68.7727C190.773 69.6041 191.469 70.2565 192.3 70.2298Z" fill="white"/>
<path d="M201.843 69.9795C202.674 69.9528 203.327 69.2572 203.3 68.4257C203.273 67.5943 202.578 66.9419 201.746 66.9686C200.915 66.9952 200.262 67.6908 200.289 68.5223C200.316 69.3537 201.011 70.0061 201.843 69.9795Z" fill="white"/>
<path d="M209.826 68.2191C209.826 68.5539 209.993 68.8886 210.161 69.1396C210.579 68.3028 210.997 67.466 211.416 66.6293H211.332C210.495 66.6293 209.826 67.3824 209.826 68.2191Z" fill="white"/>
<path d="M155.769 78.7625C155.769 77.9257 155.016 77.2563 154.179 77.2563C153.426 77.2563 152.84 77.842 152.757 78.5115C153.426 79.0972 154.095 79.6829 154.765 80.2687C155.434 80.0177 155.853 79.4319 155.769 78.7625Z" fill="white"/>
<path d="M163.85 79.9378C164.681 79.9111 165.334 79.2155 165.307 78.384C165.28 77.5526 164.585 76.9002 163.753 76.9269C162.922 76.9535 162.269 77.6492 162.296 78.4806C162.323 79.312 163.018 79.9644 163.85 79.9378Z" fill="white"/>
<path d="M173.475 79.6849C174.306 79.6582 174.958 78.9626 174.932 78.1312C174.905 77.2997 174.209 76.6473 173.378 76.674C172.547 76.7007 171.894 77.3963 171.921 78.2277C171.947 79.0592 172.643 79.7115 173.475 79.6849Z" fill="white"/>
<path d="M183.013 79.3507C183.844 79.3241 184.497 78.6285 184.47 77.797C184.443 76.9656 183.748 76.3132 182.916 76.3398C182.085 76.3665 181.432 77.0621 181.459 77.8935C181.486 78.725 182.181 79.3774 183.013 79.3507Z" fill="white"/>
<path d="M192.552 79.0171C193.384 78.9904 194.036 78.2948 194.01 77.4633C193.983 76.6319 193.287 75.9795 192.456 76.0062C191.624 76.0328 190.972 76.7285 190.999 77.5599C191.025 78.3913 191.721 79.0437 192.552 79.0171Z" fill="white"/>
<path d="M202.043 75.75C201.206 75.75 200.537 76.5031 200.537 77.3399C200.537 78.1767 201.29 78.8461 202.127 78.8461C202.462 78.8461 202.713 78.7624 202.964 78.5951C203.047 78.5114 203.215 78.3441 203.298 78.2604C203.549 78.0093 203.633 77.6746 203.633 77.2562C203.633 76.3358 202.88 75.6664 202.043 75.75Z" fill="white"/>
<path d="M165.138 86.1253C164.887 85.8748 164.469 85.7077 164.052 85.7077C164.469 85.8748 164.804 86.0418 165.138 86.1253Z" fill="white"/>
<path d="M175.181 86.8792C175.181 86.0425 174.428 85.373 173.591 85.373C172.754 85.373 172.085 86.1261 172.085 86.9629C172.085 87.3813 172.252 87.716 172.503 87.9671C173.173 88.0507 173.759 88.1344 174.428 88.2181C174.93 87.9671 175.265 87.465 175.181 86.8792Z" fill="white"/>
<path d="M184.805 86.6282C184.805 85.7914 184.052 85.1219 183.215 85.1219C182.378 85.1219 181.709 85.8751 181.709 86.7118C181.709 87.3813 182.127 87.8833 182.713 88.1344C183.215 88.0507 183.717 87.967 184.136 87.8833C184.554 87.5486 184.805 87.1302 184.805 86.6282Z" fill="white"/>
<path d="M191.332 85.8749C192.001 85.6239 192.754 85.2892 193.424 84.9545C193.256 84.8708 193.005 84.7871 192.754 84.7871C192.085 84.7871 191.583 85.2892 191.332 85.8749Z" fill="white"/>
</g>
<path d="M631 87H544V0C592.027 0 631 38.9729 631 87Z" fill="#FF9E32"/>
<path d="M631 174C582.973 174 544 135.027 544 87H631V174Z" fill="#74DBEE"/>
<path d="M587.434 217C563.421 217 544 197.773 544 174H631C630.869 197.773 611.448 217 587.434 217Z" fill="#FF5683"/>
</svg>
