<svg width="127" height="121" viewBox="0 0 127 121" fill="none" xmlns="http://www.w3.org/2000/svg">
<path d="M123.411 119.24L123.06 58.7997C122.875 26.7985 96.782 1.00708 64.7809 1.19284L58.532 1.22911C26.5308 1.41487 0.739267 27.5075 0.925024 59.5087L0.939521 62.0062C1.12528 94.0074 27.218 119.799 59.2191 119.613L123.411 119.24Z" stroke="#00A87C" stroke-width="1.17059"/>
<path d="M96.8753 70.2738C92.3985 70.2738 92.2133 72.2542 88.2961 72.2542C84.4263 72.2542 84.1589 70.2738 79.7129 70.2738C75.2411 70.2738 75.051 72.2542 71.1277 72.2542H63.1753C63.8061 72.0443 64.4359 71.8324 65.0567 71.6017C65.2754 70.4793 65.2134 69.3204 64.876 68.2278C64.5387 67.1353 63.9365 66.1431 63.1231 65.3395C62.3097 64.5359 61.3102 63.9458 60.2137 63.6217C59.1172 63.2976 57.9575 63.2496 56.838 63.4819C55.7216 66.6009 54.8771 69.8106 54.3139 73.0751C54.2893 73.2171 54.2959 73.3627 54.3334 73.5019C54.3708 73.641 54.4382 73.7703 54.5308 73.8807C54.6234 73.9911 54.739 74.08 54.8694 74.1411C54.9999 74.2022 55.1422 74.2342 55.2863 74.2346H71.1297C75.6104 74.2346 75.7837 72.2542 79.7149 72.2542C83.5846 72.2542 83.851 74.2346 88.298 74.2346C92.7679 74.2346 92.9659 72.2542 96.8773 72.2542C97.1399 72.2542 97.3917 72.1499 97.5774 71.9642C97.7631 71.7785 97.8675 71.5266 97.8675 71.264C97.8675 71.0014 97.7631 70.7495 97.5774 70.5638C97.3917 70.3781 97.1399 70.2738 96.8773 70.2738H96.8753Z" fill="#00A87C" fill-opacity="0.5"/>
<path d="M102.794 44.748L99.0629 40.9634L100.143 39.8613C100.793 39.1955 101.156 38.3021 101.156 37.3719C101.156 36.4417 100.793 35.5483 100.143 34.8825L93.0791 27.7074C92.4176 27.0636 91.531 26.7034 90.608 26.7034C89.6849 26.7034 88.7984 27.0636 88.1369 27.7074L84.7949 31.1009C85.1174 31.2477 85.4109 31.4513 85.6614 31.7019L96.2566 42.4606C96.4833 42.6901 96.6709 42.955 96.8122 43.2449L97.6727 42.3705L101.383 46.1333C101.669 46.4273 101.83 46.8215 101.83 47.232C101.83 47.6424 101.669 48.0366 101.383 48.3306L87.2546 62.6838C87.1551 62.7744 87.075 62.8844 87.0194 63.007C86.9638 63.1297 86.9338 63.2623 86.9312 63.397C86.9287 63.5316 86.9536 63.6653 87.0044 63.79C87.0553 63.9147 87.131 64.0277 87.2271 64.122C87.3231 64.2164 87.4373 64.2903 87.5628 64.339C87.6884 64.3877 87.8225 64.4104 87.9571 64.4055C88.0916 64.4006 88.2238 64.3684 88.3454 64.3107C88.4671 64.253 88.5757 64.1711 88.6647 64.0701L102.795 49.7219C103.443 49.0561 103.806 48.1637 103.805 47.2347C103.805 46.3057 103.442 45.4135 102.794 44.748V44.748Z" fill="#00A87C" fill-opacity="0.5"/>
<path d="M67.1444 70.7788C70.2852 69.4687 73.2972 67.8692 76.1415 66.001C84.107 60.7116 90.6015 53.4891 95.0179 45.0084C95.115 44.8227 95.1506 44.6109 95.1197 44.4036C95.0887 44.1963 94.9927 44.0041 94.8456 43.8548L84.2503 33.0922C84.0999 32.9396 83.904 32.8399 83.692 32.8081C83.4801 32.7763 83.2636 32.8142 83.075 32.916C71.5092 39.1201 62.4989 49.2008 57.6265 61.3876C58.8891 61.2958 60.1567 61.4748 61.3445 61.9125C62.5323 62.3503 63.613 63.0367 64.5141 63.9258C65.4152 64.8149 66.116 65.8862 66.5697 67.0681C67.0233 68.2499 67.2192 69.5151 67.1444 70.7788V70.7788Z" fill="#00A87C" fill-opacity="0.5"/>
<path d="M80.5401 21.9999H36.9706C36.1828 21.9999 35.4272 22.3129 34.8701 22.87C34.313 23.4271 34 24.1827 34 24.9706V52.6966C34 53.4844 34.313 54.24 34.8701 54.7971C35.4272 55.3542 36.1828 55.6672 36.9706 55.6672H53.626L51.9754 64.5791H50.8336C50.571 64.5791 50.3192 64.6835 50.1334 64.8692C49.9477 65.0549 49.8434 65.3067 49.8434 65.5694C49.8434 65.832 49.9477 66.0838 50.1334 66.2695C50.3192 66.4552 50.571 66.5596 50.8336 66.5596H66.6771C66.9397 66.5596 67.1915 66.4552 67.3772 66.2695C67.5629 66.0838 67.6673 65.832 67.6673 65.5694C67.6673 65.3067 67.5629 65.0549 67.3772 64.8692C67.1915 64.6835 66.9397 64.5791 66.6771 64.5791H65.5353L63.8847 55.6672H80.5401C81.3279 55.6672 82.0835 55.3542 82.6406 54.7971C83.1977 54.24 83.5107 53.4844 83.5107 52.6966V24.9706C83.5107 24.1827 83.1977 23.4271 82.6406 22.87C82.0835 22.3129 81.3279 21.9999 80.5401 21.9999V21.9999ZM63.5272 64.5791H53.9835L55.6332 55.6672H61.8775L63.5272 64.5791ZM81.5303 52.6966C81.5303 52.9592 81.4259 53.2111 81.2402 53.3968C81.0545 53.5825 80.8027 53.6868 80.5401 53.6868H36.9706C36.708 53.6868 36.4562 53.5825 36.2705 53.3968C36.0848 53.2111 35.9804 52.9592 35.9804 52.6966V24.9706C35.9804 24.708 36.0848 24.4561 36.2705 24.2704C36.4562 24.0847 36.708 23.9804 36.9706 23.9804H80.5401C80.8027 23.9804 81.0545 24.0847 81.2402 24.2704C81.4259 24.4561 81.5303 24.708 81.5303 24.9706V52.6966Z" fill="#151A6A"/>
<path d="M76.5793 25.9608H40.9316C40.1437 25.9608 39.3881 26.2737 38.831 26.8308C38.2739 27.3879 37.9609 28.1435 37.9609 28.9314V44.7748C37.9609 45.5627 38.2739 46.3183 38.831 46.8754C39.3881 47.4325 40.1437 47.7455 40.9316 47.7455H76.5793C77.3671 47.7455 78.1227 47.4325 78.6798 46.8754C79.2369 46.3183 79.5499 45.5627 79.5499 44.7748V28.9314C79.5499 28.1435 79.2369 27.3879 78.6798 26.8308C78.1227 26.2737 77.3671 25.9608 76.5793 25.9608ZM77.5695 44.7748C77.5695 45.0374 77.4652 45.2893 77.2795 45.475C77.0938 45.6607 76.8419 45.765 76.5793 45.765H40.9316C40.669 45.765 40.4171 45.6607 40.2314 45.475C40.0457 45.2893 39.9414 45.0374 39.9414 44.7748V28.9314C39.9414 28.6688 40.0457 28.4169 40.2314 28.2312C40.4171 28.0455 40.669 27.9412 40.9316 27.9412H76.5793C76.8419 27.9412 77.0938 28.0455 77.2795 28.2312C77.4652 28.4169 77.5695 28.6688 77.5695 28.9314V44.7748Z" fill="#151A6A"/>
<path d="M60.7357 49.726H56.7749C56.5123 49.726 56.2604 49.8303 56.0747 50.016C55.889 50.2017 55.7847 50.4535 55.7847 50.7162C55.7847 50.9788 55.889 51.2307 56.0747 51.4164C56.2604 51.6021 56.5123 51.7064 56.7749 51.7064H60.7357C60.9984 51.7064 61.2502 51.6021 61.4359 51.4164C61.6216 51.2307 61.726 50.9788 61.726 50.7162C61.726 50.4535 61.6216 50.2017 61.4359 50.016C61.2502 49.8303 60.9984 49.726 60.7357 49.726Z" fill="#151A6A"/>
<path d="M60.3655 99.9999H42.4055V85.7199H45.4255V97.4799H49.8655V85.7199H52.9055V97.4799H57.3455V85.7199H60.3655V99.9999ZM72.708 99.9999L71.668 96.5999H66.468L65.428 99.9999H62.168L67.208 85.6599H70.908L75.968 99.9999H72.708ZM69.908 90.7399C69.8413 90.5132 69.7546 90.2265 69.648 89.8799C69.5413 89.5332 69.4346 89.1799 69.328 88.8199C69.2213 88.4599 69.1346 88.1465 69.068 87.8799C69.0013 88.1465 68.908 88.4799 68.788 88.8799C68.6813 89.2665 68.5746 89.6399 68.468 89.9999C68.3746 90.3465 68.3013 90.5932 68.248 90.7399L67.228 94.0599H70.948L69.908 90.7399ZM86.7966 85.7199V88.2199H80.7966V99.9999H77.7766V85.7199H86.7966ZM93.5675 99.9999H102.988V97.7999H96.6075L100.688 93.8999C101.948 92.6999 102.968 91.4399 102.968 89.6199C102.968 86.8999 100.708 85.4799 98.2475 85.4799C95.6475 85.4799 93.7475 87.1999 93.4675 89.5399L95.8075 89.8999C95.9875 88.5199 96.8475 87.4799 98.2075 87.4799C99.4875 87.4799 100.468 88.3399 100.468 89.6599C100.468 90.7599 99.9075 91.5799 99.0275 92.4399L93.5675 97.7999V99.9999Z" fill="#061058"/>
</svg>
