<?xml version="1.0" encoding="utf-8"?>
<!-- Generator: Adobe Illustrator 25.4.1, SVG Export Plug-In . SVG Version: 6.00 Build 0)  -->
<svg version="1.1" id="Слой_1" xmlns="http://www.w3.org/2000/svg" xmlns:xlink="http://www.w3.org/1999/xlink" x="0px" y="0px"
	 viewBox="0 0 51.7 51" style="enable-background:new 0 0 51.7 51;" xml:space="preserve">
<style type="text/css">
	.st0{fill:none;stroke:#00A87C;stroke-width:1.1706;}
	.st1{fill:#00A87C;fill-opacity:0.5;}
	.st2{fill:#061058;}
</style>
<path class="st0" d="M51,0.9l-0.1,23.5c-0.1,13.8-11.4,25-25.2,24.9l-0.8,0c-13.4-0.1-24.2-11-24.1-24.4c0.1-13.4,11-24.2,24.4-24.1
	L51,0.9z"/>
<path class="st1" d="M41.7,21.3C39.9,20.5,38,20,36,20s-3.9,0.5-5.7,1.3c-0.1,0-0.2,0.1-0.2,0.2S30,21.7,30,21.8v17.6
	c0,0.1,0,0.2,0.1,0.3c0,0.1,0.1,0.2,0.2,0.2c0.1,0,0.2,0.1,0.3,0.1c0.1,0,0.2,0,0.3-0.1c1.6-0.8,3.4-1.2,5.2-1.2s3.6,0.4,5.2,1.2
	c0.1,0,0.2,0.1,0.3,0.1c0.1,0,0.2,0,0.3-0.1c0.1,0,0.1-0.1,0.2-0.2c0-0.1,0.1-0.2,0.1-0.3V21.8c0-0.1,0-0.2-0.1-0.3
	S41.8,21.4,41.7,21.3z M39.8,34.8c0,0.1-0.1,0.3-0.3,0.3c-0.1,0.1-0.3,0.1-0.4,0c-2-0.7-4.2-0.7-6.2,0c-0.1,0-0.1,0-0.2,0
	c-0.1,0-0.1,0-0.2-0.1c-0.1,0-0.1-0.1-0.2-0.1c0-0.1-0.1-0.1-0.1-0.2c0-0.1,0-0.1,0-0.2c0-0.1,0-0.1,0.1-0.2c0-0.1,0.1-0.1,0.1-0.2
	c0.1,0,0.1-0.1,0.2-0.1c2.2-0.7,4.7-0.7,6.9,0c0.1,0,0.1,0.1,0.2,0.1c0.1,0,0.1,0.1,0.1,0.2c0,0.1,0.1,0.1,0.1,0.2
	C39.8,34.7,39.8,34.8,39.8,34.8L39.8,34.8z M39.8,30.4c0,0.1-0.1,0.3-0.3,0.3c-0.1,0.1-0.3,0.1-0.4,0c-2-0.7-4.2-0.7-6.2,0
	c-0.1,0-0.1,0-0.2,0c-0.1,0-0.1,0-0.2-0.1c-0.1,0-0.1-0.1-0.2-0.1c0-0.1-0.1-0.1-0.1-0.2c0-0.1,0-0.1,0-0.2c0-0.1,0-0.1,0.1-0.2
	c0-0.1,0.1-0.1,0.1-0.2c0.1,0,0.1-0.1,0.2-0.1c2.2-0.7,4.7-0.7,6.9,0c0.1,0,0.1,0.1,0.2,0.1c0.1,0,0.1,0.1,0.1,0.2
	c0,0.1,0.1,0.1,0.1,0.2C39.8,30.3,39.8,30.4,39.8,30.4L39.8,30.4z M39.8,26c0,0.1-0.1,0.3-0.3,0.3c-0.1,0.1-0.3,0.1-0.4,0
	c-2-0.7-4.2-0.7-6.2,0c-0.1,0-0.1,0-0.2,0c-0.1,0-0.1,0-0.2-0.1c-0.1,0-0.1-0.1-0.2-0.1c0-0.1-0.1-0.1-0.1-0.2c0-0.1,0-0.1,0-0.2
	s0-0.1,0.1-0.2c0-0.1,0.1-0.1,0.1-0.2c0.1,0,0.1-0.1,0.2-0.1c2.2-0.7,4.7-0.7,6.9,0c0.1,0,0.1,0.1,0.2,0.1c0.1,0,0.1,0.1,0.1,0.2
	c0,0.1,0.1,0.1,0.1,0.2C39.8,25.9,39.8,26,39.8,26L39.8,26z"/>
<path class="st1" d="M28.7,21.3c-1.9-0.9-4-1.3-6.2-1.3s-4.3,0.5-6.2,1.3c-0.1,0-0.2,0.1-0.2,0.2C16,21.6,16,21.7,16,21.8v17.6
	c0,0.1,0,0.2,0.1,0.3c0,0.1,0.1,0.2,0.2,0.2c0.1,0,0.2,0.1,0.3,0.1c0.1,0,0.2,0,0.3-0.1c1.8-0.8,3.7-1.2,5.6-1.2s3.9,0.4,5.6,1.2
	c0.1,0,0.2,0.1,0.3,0.1c0.1,0,0.2,0,0.3-0.1c0.1,0,0.2-0.1,0.2-0.2c0-0.1,0.1-0.2,0.1-0.3V21.8c0-0.1,0-0.2-0.1-0.3
	C28.9,21.5,28.8,21.4,28.7,21.3z M26.6,34.8c0,0.1-0.2,0.3-0.3,0.3c-0.1,0.1-0.3,0.1-0.5,0c-2.2-0.7-4.5-0.7-6.7,0
	c-0.1,0-0.2,0-0.2,0c-0.1,0-0.2,0-0.2-0.1c-0.1,0-0.1-0.1-0.2-0.1c-0.1-0.1-0.1-0.1-0.1-0.2c0-0.1,0-0.1,0-0.2c0-0.1,0-0.1,0.1-0.2
	c0-0.1,0.1-0.1,0.1-0.2c0.1,0,0.1-0.1,0.2-0.1c2.4-0.7,5-0.7,7.5,0c0.1,0,0.1,0.1,0.2,0.1c0.1,0,0.1,0.1,0.1,0.2
	c0,0.1,0.1,0.1,0.1,0.2C26.6,34.7,26.6,34.8,26.6,34.8L26.6,34.8z M26.6,30.4c0,0.1-0.2,0.3-0.3,0.3c-0.1,0.1-0.3,0.1-0.5,0
	c-2.2-0.7-4.5-0.7-6.7,0c-0.1,0-0.2,0-0.2,0c-0.1,0-0.2,0-0.2-0.1c-0.1,0-0.1-0.1-0.2-0.1c-0.1-0.1-0.1-0.1-0.1-0.2
	c0-0.1,0-0.1,0-0.2c0-0.1,0-0.1,0.1-0.2c0-0.1,0.1-0.1,0.1-0.2c0.1,0,0.1-0.1,0.2-0.1c2.4-0.7,5-0.7,7.5,0c0.1,0,0.1,0.1,0.2,0.1
	c0.1,0,0.1,0.1,0.1,0.2c0,0.1,0.1,0.1,0.1,0.2C26.6,30.3,26.6,30.4,26.6,30.4L26.6,30.4z M26.6,26c0,0.1-0.2,0.3-0.3,0.3
	c-0.1,0.1-0.3,0.1-0.5,0c-2.2-0.7-4.5-0.7-6.7,0c-0.1,0-0.2,0-0.2,0c-0.1,0-0.2,0-0.2-0.1c-0.1,0-0.1-0.1-0.2-0.1
	c-0.1-0.1-0.1-0.1-0.1-0.2c0-0.1,0-0.1,0-0.2c0-0.1,0-0.1,0.1-0.2c0-0.1,0.1-0.1,0.1-0.2c0.1,0,0.1-0.1,0.2-0.1c2.4-0.7,5-0.7,7.5,0
	c0.1,0,0.1,0.1,0.2,0.1c0.1,0,0.1,0.1,0.1,0.2c0,0.1,0.1,0.1,0.1,0.2C26.6,25.9,26.6,26,26.6,26L26.6,26z"/>
<path class="st2" d="M36,28.5h-1.6V15.9h1.1c0.1,0,0.2,0,0.3-0.1c0.1,0,0.2-0.1,0.2-0.2c0-0.1,0.1-0.2,0.1-0.3c0-0.1,0-0.2-0.1-0.3
	l-2.4-3.9c-0.1-0.2-0.4-0.4-0.6-0.6c-0.2-0.1-0.5-0.2-0.8-0.2h-9.3V9.3h3.8c0.1,0,0.3-0.1,0.4-0.2c0.1-0.1,0.2-0.2,0.2-0.4V6.5
	c0-0.1-0.1-0.3-0.2-0.4C26.9,6.1,26.8,6,26.6,6h-4.4c-0.1,0-0.3,0.1-0.4,0.2c-0.1,0.1-0.2,0.2-0.2,0.4v3.8h-9.3
	c-0.3,0-0.6,0.1-0.8,0.2c-0.2,0.1-0.4,0.3-0.6,0.6L8.6,15c-0.1,0.1-0.1,0.2-0.1,0.3c0,0.1,0,0.2,0.1,0.3s0.1,0.2,0.2,0.2
	c0.1,0,0.2,0.1,0.3,0.1h1.1v12.6H8.5c-0.1,0-0.3,0.1-0.4,0.2C8.1,28.7,8,28.9,8,29c0,0.1,0.1,0.3,0.2,0.4c0.1,0.1,0.2,0.2,0.4,0.2
	H36c0.1,0,0.3-0.1,0.4-0.2c0.1-0.1,0.2-0.2,0.2-0.4c0-0.1-0.1-0.3-0.2-0.4C36.3,28.5,36.1,28.5,36,28.5z M32.5,11.7l1.9,3h-6
	l-4.5-3.3h8.1c0.1,0,0.2,0,0.3,0.1C32.4,11.6,32.5,11.7,32.5,11.7z M22.8,7.1h3.3v1.1h-3.3V7.1z M12,11.7c0-0.1,0.1-0.1,0.2-0.2
	c0.1,0,0.2-0.1,0.3-0.1h8.1L16,14.8h-6L12,11.7z M11.3,15.9h4.4v12.6h-4.4V15.9z M16.8,15.6l5.5-4l5.5,4v12.9h-2.2v-3.8
	c0-0.4-0.2-0.9-0.5-1.2c-0.3-0.3-0.7-0.5-1.2-0.5h-3.3c-0.4,0-0.9,0.2-1.2,0.5c-0.3,0.3-0.5,0.7-0.5,1.2v3.8h-2.2V15.6z M20.1,24.6
	c0-0.1,0.1-0.3,0.2-0.4c0.1-0.1,0.2-0.2,0.4-0.2h1.1v4.4h-1.6V24.6z M22.8,28.5v-4.4h1.1c0.1,0,0.3,0.1,0.4,0.2
	c0.1,0.1,0.2,0.2,0.2,0.4v3.8H22.8z M28.8,28.5V15.9h4.4v12.6H28.8z"/>
<path class="st2" d="M22.3,18.1c0.4,0,0.9-0.1,1.2-0.4c0.4-0.2,0.6-0.6,0.8-1c0.2-0.4,0.2-0.8,0.1-1.3c-0.1-0.4-0.3-0.8-0.6-1.1
	c-0.3-0.3-0.7-0.5-1.1-0.6c-0.4-0.1-0.9,0-1.3,0.1c-0.4,0.2-0.7,0.4-1,0.8c-0.2,0.4-0.4,0.8-0.4,1.2c0,0.6,0.2,1.1,0.6,1.6
	C21.1,17.8,21.7,18.1,22.3,18.1z M22.3,14.8c0.2,0,0.4,0.1,0.6,0.2c0.2,0.1,0.3,0.3,0.4,0.5c0.1,0.2,0.1,0.4,0.1,0.6
	c0,0.2-0.1,0.4-0.3,0.6c-0.2,0.2-0.3,0.3-0.6,0.3c-0.2,0-0.4,0-0.6-0.1c-0.2-0.1-0.4-0.2-0.5-0.4c-0.1-0.2-0.2-0.4-0.2-0.6
	c0-0.3,0.1-0.6,0.3-0.8C21.7,14.9,22,14.8,22.3,14.8z"/>
<path class="st2" d="M19,20.8h1.1c0.1,0,0.3-0.1,0.4-0.2c0.1-0.1,0.2-0.2,0.2-0.4c0-0.1-0.1-0.3-0.2-0.4c-0.1-0.1-0.2-0.2-0.4-0.2
	H19c-0.1,0-0.3,0.1-0.4,0.2c-0.1,0.1-0.2,0.2-0.2,0.4c0,0.1,0.1,0.3,0.2,0.4C18.7,20.7,18.8,20.8,19,20.8z"/>
<path class="st2" d="M14,17.5h-1.1c-0.1,0-0.3,0.1-0.4,0.2c-0.1,0.1-0.2,0.2-0.2,0.4c0,0.1,0.1,0.3,0.2,0.4c0.1,0.1,0.2,0.2,0.4,0.2
	H14c0.1,0,0.3-0.1,0.4-0.2c0.1-0.1,0.2-0.2,0.2-0.4c0-0.1-0.1-0.3-0.2-0.4C14.3,17.6,14.2,17.5,14,17.5z"/>
<path class="st2" d="M14,21.4h-1.1c-0.1,0-0.3,0.1-0.4,0.2c-0.1,0.1-0.2,0.2-0.2,0.4c0,0.1,0.1,0.3,0.2,0.4c0.1,0.1,0.2,0.2,0.4,0.2
	H14c0.1,0,0.3-0.1,0.4-0.2c0.1-0.1,0.2-0.2,0.2-0.4c0-0.1-0.1-0.3-0.2-0.4C14.3,21.4,14.2,21.4,14,21.4z"/>
<path class="st2" d="M14,25.2h-1.1c-0.1,0-0.3,0.1-0.4,0.2c-0.1,0.1-0.2,0.2-0.2,0.4c0,0.1,0.1,0.3,0.2,0.4c0.1,0.1,0.2,0.2,0.4,0.2
	H14c0.1,0,0.3-0.1,0.4-0.2c0.1-0.1,0.2-0.2,0.2-0.4c0-0.1-0.1-0.3-0.2-0.4C14.3,25.3,14.2,25.2,14,25.2z"/>
<path class="st2" d="M31.6,17.5h-1.1c-0.1,0-0.3,0.1-0.4,0.2c-0.1,0.1-0.2,0.2-0.2,0.4c0,0.1,0.1,0.3,0.2,0.4
	c0.1,0.1,0.2,0.2,0.4,0.2h1.1c0.1,0,0.3-0.1,0.4-0.2c0.1-0.1,0.2-0.2,0.2-0.4c0-0.1-0.1-0.3-0.2-0.4C31.9,17.6,31.7,17.5,31.6,17.5z
	"/>
<path class="st2" d="M31.6,21.4h-1.1c-0.1,0-0.3,0.1-0.4,0.2c-0.1,0.1-0.2,0.2-0.2,0.4c0,0.1,0.1,0.3,0.2,0.4
	c0.1,0.1,0.2,0.2,0.4,0.2h1.1c0.1,0,0.3-0.1,0.4-0.2c0.1-0.1,0.2-0.2,0.2-0.4c0-0.1-0.1-0.3-0.2-0.4C31.9,21.4,31.7,21.4,31.6,21.4z
	"/>
<path class="st2" d="M31.6,25.2h-1.1c-0.1,0-0.3,0.1-0.4,0.2c-0.1,0.1-0.2,0.2-0.2,0.4c0,0.1,0.1,0.3,0.2,0.4
	c0.1,0.1,0.2,0.2,0.4,0.2h1.1c0.1,0,0.3-0.1,0.4-0.2c0.1-0.1,0.2-0.2,0.2-0.4c0-0.1-0.1-0.3-0.2-0.4C31.9,25.3,31.7,25.2,31.6,25.2z
	"/>
<path class="st2" d="M23.9,20.3c0,0.1,0.1,0.3,0.2,0.4c0.1,0.1,0.2,0.2,0.4,0.2h1.1c0.1,0,0.3-0.1,0.4-0.2c0.1-0.1,0.2-0.2,0.2-0.4
	c0-0.1-0.1-0.3-0.2-0.4c-0.1-0.1-0.2-0.2-0.4-0.2h-1.1c-0.1,0-0.3,0.1-0.4,0.2C24,20,23.9,20.1,23.9,20.3z"/>
</svg>
