<?xml version="1.0" encoding="utf-8"?>
<!-- Generator: Adobe Illustrator 25.4.1, SVG Export Plug-In . SVG Version: 6.00 Build 0)  -->
<svg version="1.1" id="Слой_1" xmlns="http://www.w3.org/2000/svg" xmlns:xlink="http://www.w3.org/1999/xlink" x="0px" y="0px"
	 viewBox="0 0 51.7 51" style="enable-background:new 0 0 51.7 51;" xml:space="preserve">
<style type="text/css">
	.st0{fill:none;stroke:#00A87C;stroke-width:1.1706;}
	.st1{fill:#00A87C;fill-opacity:0.5;}
	.st2{fill:#151A6A;}
</style>
<path class="st0" d="M51,0.9l-0.1,23.5c-0.1,13.8-11.4,25-25.2,24.9l-0.8,0c-13.4-0.1-24.2-11-24.1-24.4c0.1-13.4,11-24.2,24.4-24.1
	L51,0.9z"/>
<path class="st1" d="M27.8,36.7c0.2,0,0.5,0,0.7-0.1c0.2-0.1,0.5-0.2,0.6-0.4l13.3-13.3c0.2-0.1,0.3-0.3,0.4-0.5
	c0.1-0.2,0.1-0.4,0.1-0.6v-7.1c0-0.4-0.2-0.8-0.5-1.1c-0.3-0.3-0.7-0.5-1.1-0.5h-7.1c-0.2,0-0.4,0-0.6,0.1c-0.2,0.1-0.4,0.2-0.5,0.4
	L19.4,27.7c-0.1,0.1-0.1,0.1-0.1,0.2c0,0.1,0,0.2,0,0.2l0.8,5.4L37,16.7c0-0.1,0.1-0.1,0.2-0.1c0.1,0,0.1,0,0.2,0c0.1,0,0.1,0,0.2,0
	c0.1,0,0.1,0.1,0.2,0.1s0.1,0.1,0.1,0.2c0,0.1,0,0.1,0,0.2c0,0.1,0,0.1,0,0.2c0,0.1-0.1,0.1-0.1,0.2L16.2,39.1
	c-0.1,0.1-0.1,0.2-0.1,0.3c0,0.1,0,0.2,0,0.3c0,0.1,0.1,0.2,0.2,0.2c0.1,0.1,0.2,0.1,0.3,0.1h23.8c0.7,0,1.4-0.3,1.9-0.8
	c0.5-0.5,0.8-1.2,0.8-1.9c0-0.7-0.3-1.4-0.8-1.9c-0.5-0.5-1.2-0.8-1.9-0.8h-1.6c-0.4,0-0.8-0.2-1.1-0.5c-0.3-0.3-0.5-0.7-0.5-1.1
	c0-0.4,0.2-0.8,0.5-1.1c0.3-0.3,0.7-0.5,1.1-0.5h3.8c0.1,0,0.3-0.1,0.4-0.2c0.1-0.1,0.2-0.2,0.2-0.4s-0.1-0.3-0.2-0.4
	c-0.1-0.1-0.2-0.2-0.4-0.2h-3.8c-0.7,0-1.4,0.3-1.9,0.8C36.3,31.6,36,32.3,36,33s0.3,1.4,0.8,1.9c0.5,0.5,1.2,0.8,1.9,0.8h1.6
	c0.4,0,0.8,0.2,1.1,0.5c0.3,0.3,0.5,0.7,0.5,1.1s-0.2,0.8-0.5,1.1s-0.7,0.5-1.1,0.5H17.8l3.2-3.2L27.8,36.7z"/>
<path class="st2" d="M32.1,10.4c-0.2-0.1-4.5-2.8-9.5-0.4l-1.1,0.5L20.4,10c-4.9-2.4-9.4,0.3-9.5,0.4c-0.3,0.1-0.5,0.3-0.7,0.6
	c-0.2,0.3-0.2,0.5-0.2,0.8v16.4c0,0.2,0.1,0.5,0.2,0.7c0.1,0.2,0.3,0.4,0.4,0.5c0.2,0.1,0.4,0.2,0.6,0.3c0.2,0,0.5,0,0.7-0.1
	c5-1.6,8.8,0.3,9.4,0.4c0.1,0,0.2,0,0.3,0c0.7-0.1,4.3-2.1,9.4-0.4c0.2,0.1,0.5,0.1,0.7,0.1c0.2,0,0.4-0.1,0.6-0.3
	c0.2-0.1,0.3-0.3,0.4-0.5c0.1-0.2,0.2-0.4,0.2-0.7V11.8c0-0.3-0.1-0.6-0.2-0.8C32.6,10.7,32.4,10.5,32.1,10.4z M28.1,10.2v4.3
	l-0.8-0.5c-0.1-0.1-0.2-0.1-0.3-0.1s-0.2,0-0.3,0.1l-0.8,0.5v-4.3C26.6,10.1,27.3,10.1,28.1,10.2z M23.1,11c0.5-0.3,1.1-0.5,1.7-0.6
	v5.1c0,0.1,0,0.2,0.1,0.3c0.1,0.1,0.1,0.2,0.2,0.2c0.1,0,0.2,0.1,0.3,0.1c0.1,0,0.2,0,0.3-0.1L27,15l1.3,0.9
	c0.1,0.1,0.2,0.1,0.3,0.1c0.1,0,0.2,0,0.3-0.1c0.1,0,0.2-0.1,0.2-0.2c0.1-0.1,0.1-0.2,0.1-0.3v-5.1c0.8,0.2,1.7,0.5,2.4,1
	c0.1,0,0.2,0.1,0.2,0.2c0.1,0.1,0.1,0.2,0.1,0.3V26l-0.5-0.2c-3.1-1-6.4-0.9-9.4,0.2V11.5L23.1,11z M11.1,11.8c0-0.1,0-0.2,0.1-0.3
	c0.1-0.1,0.1-0.2,0.2-0.2c0.2-0.1,4-2.6,8.5-0.4l1,0.5V26c-3-1.1-6.3-1.2-9.4-0.2L11.1,26V11.8z M31.4,28.6
	c-5.2-1.7-9.6,0.3-9.9,0.3c-3.2-1.2-6.7-1.4-9.9-0.3c-0.1,0-0.1,0-0.2,0c-0.1,0-0.1,0-0.2-0.1c0,0-0.1-0.1-0.1-0.1
	c0-0.1,0-0.1,0-0.2v-1.1l0.8-0.3c5-1.6,8.8,0.3,9.4,0.4c0.1,0,0.2,0,0.3,0c0.7-0.1,4.3-2.1,9.4-0.4l0.8,0.3v1.1c0,0.1,0,0.1,0,0.2
	c0,0.1-0.1,0.1-0.1,0.1c0,0-0.1,0.1-0.2,0.1S31.5,28.6,31.4,28.6z"/>
</svg>
