<svg width="127" height="121" viewBox="0 0 127 121" fill="none" xmlns="http://www.w3.org/2000/svg">
<path d="M123.411 119.24L123.06 58.7997C122.875 26.7985 96.782 1.00702 64.7809 1.19278L58.532 1.22905C26.5308 1.41481 0.739267 27.5075 0.925024 59.5087L0.939521 62.0061C1.12528 94.0073 27.218 119.799 59.2191 119.613L123.411 119.24Z" stroke="#00A87C" stroke-width="1.17059"/>
<path d="M60.3655 99.9998H42.4055V85.7198H45.4255V97.4798H49.8655V85.7198H52.9055V97.4798H57.3455V85.7198H60.3655V99.9998ZM72.708 99.9998L71.668 96.5998H66.468L65.428 99.9998H62.168L67.208 85.6598H70.908L75.968 99.9998H72.708ZM69.908 90.7398C69.8413 90.5131 69.7546 90.2265 69.648 89.8798C69.5413 89.5331 69.4346 89.1798 69.328 88.8198C69.2213 88.4598 69.1346 88.1465 69.068 87.8798C69.0013 88.1465 68.908 88.4798 68.788 88.8798C68.6813 89.2665 68.5746 89.6398 68.468 89.9998C68.3746 90.3465 68.3013 90.5931 68.248 90.7398L67.228 94.0598H70.948L69.908 90.7398ZM86.7966 85.7198V88.2198H80.7966V99.9998H77.7766V85.7198H86.7966ZM97.7675 99.9998H100.168V85.8398H97.9875L93.5675 89.3998L94.9675 91.0598L97.7675 88.7598V99.9998Z" fill="#061058"/>
</svg>
