<svg width="127" height="121" viewBox="0 0 127 121" fill="none" xmlns="http://www.w3.org/2000/svg">
<path d="M123.411 119.24L123.06 58.7997C122.875 26.7985 96.782 1.00702 64.7809 1.19278L58.532 1.22905C26.5308 1.41481 0.739267 27.5075 0.925024 59.5087L0.939521 62.0061C1.12528 94.0073 27.218 119.799 59.2191 119.613L123.411 119.24Z" stroke="#00A87C" stroke-width="1.17059"/>
<path d="M96.8753 70.2737C92.3985 70.2737 92.2133 72.2541 88.2961 72.2541C84.4263 72.2541 84.1589 70.2737 79.7129 70.2737C75.2411 70.2737 75.051 72.2541 71.1277 72.2541H63.1753C63.8061 72.0442 64.4359 71.8323 65.0567 71.6016C65.2754 70.4793 65.2134 69.3203 64.876 68.2278C64.5387 67.1353 63.9365 66.1431 63.1231 65.3395C62.3097 64.5358 61.3102 63.9457 60.2137 63.6217C59.1172 63.2976 57.9575 63.2495 56.838 63.4818C55.7216 66.6008 54.8771 69.8105 54.3139 73.075C54.2893 73.217 54.2959 73.3627 54.3334 73.5018C54.3708 73.6409 54.4382 73.7702 54.5308 73.8806C54.6234 73.9911 54.739 74.0799 54.8694 74.1411C54.9999 74.2022 55.1422 74.2341 55.2863 74.2346H71.1297C75.6104 74.2346 75.7837 72.2541 79.7149 72.2541C83.5846 72.2541 83.851 74.2346 88.298 74.2346C92.7679 74.2346 92.9659 72.2541 96.8773 72.2541C97.1399 72.2541 97.3917 72.1498 97.5774 71.9641C97.7631 71.7784 97.8675 71.5266 97.8675 71.2639C97.8675 71.0013 97.7631 70.7494 97.5774 70.5637C97.3917 70.378 97.1399 70.2737 96.8773 70.2737H96.8753Z" fill="#00A87C" fill-opacity="0.5"/>
<path d="M102.794 44.7479L99.0629 40.9633L100.143 39.8612C100.793 39.1954 101.156 38.3021 101.156 37.3718C101.156 36.4416 100.793 35.5483 100.143 34.8824L93.0791 27.7074C92.4176 27.0636 91.531 26.7034 90.608 26.7034C89.6849 26.7034 88.7984 27.0636 88.1369 27.7074L84.7949 31.1008C85.1174 31.2477 85.4109 31.4512 85.6614 31.7019L96.2566 42.4606C96.4833 42.69 96.6709 42.9549 96.8122 43.2448L97.6727 42.3704L101.383 46.1333C101.669 46.4272 101.83 46.8215 101.83 47.2319C101.83 47.6423 101.669 48.0365 101.383 48.3305L87.2546 62.6837C87.1551 62.7743 87.075 62.8843 87.0194 63.007C86.9638 63.1296 86.9338 63.2623 86.9312 63.3969C86.9287 63.5315 86.9536 63.6653 87.0044 63.7899C87.0553 63.9146 87.131 64.0276 87.2271 64.122C87.3231 64.2164 87.4373 64.2902 87.5628 64.3389C87.6884 64.3877 87.8225 64.4103 87.9571 64.4054C88.0916 64.4006 88.2238 64.3683 88.3454 64.3106C88.4671 64.253 88.5757 64.1711 88.6647 64.07L102.795 49.7218C103.443 49.0561 103.806 48.1637 103.805 47.2347C103.805 46.3057 103.442 45.4134 102.794 44.7479Z" fill="#00A87C" fill-opacity="0.5"/>
<path d="M67.1444 70.7787C70.2852 69.4687 73.2972 67.8692 76.1415 66.0009C84.107 60.7116 90.6015 53.4891 95.0179 45.0084C95.115 44.8226 95.1506 44.6108 95.1197 44.4035C95.0887 44.1962 94.9927 44.0041 94.8456 43.8548L84.2503 33.0922C84.0999 32.9395 83.904 32.8399 83.692 32.8081C83.4801 32.7763 83.2636 32.8141 83.075 32.9159C71.5092 39.1201 62.4989 49.2007 57.6265 61.3875C58.8891 61.2958 60.1567 61.4747 61.3445 61.9125C62.5323 62.3502 63.613 63.0366 64.5141 63.9257C65.4152 64.8148 66.116 65.8862 66.5697 67.068C67.0233 68.2499 67.2192 69.515 67.1444 70.7787Z" fill="#00A87C" fill-opacity="0.5"/>
<path d="M80.5401 21.9999H36.9706C36.1828 21.9999 35.4272 22.3129 34.8701 22.87C34.313 23.4271 34 24.1827 34 24.9705V52.6965C34 53.4844 34.313 54.24 34.8701 54.7971C35.4272 55.3542 36.1828 55.6672 36.9706 55.6672H53.626L51.9754 64.5791H50.8336C50.571 64.5791 50.3192 64.6834 50.1334 64.8691C49.9477 65.0548 49.8434 65.3067 49.8434 65.5693C49.8434 65.8319 49.9477 66.0838 50.1334 66.2695C50.3192 66.4552 50.571 66.5595 50.8336 66.5595H66.6771C66.9397 66.5595 67.1915 66.4552 67.3772 66.2695C67.563 66.0838 67.6673 65.8319 67.6673 65.5693C67.6673 65.3067 67.563 65.0548 67.3772 64.8691C67.1915 64.6834 66.9397 64.5791 66.6771 64.5791H65.5353L63.8847 55.6672H80.5401C81.3279 55.6672 82.0835 55.3542 82.6406 54.7971C83.1977 54.24 83.5107 53.4844 83.5107 52.6965V24.9705C83.5107 24.1827 83.1977 23.4271 82.6406 22.87C82.0835 22.3129 81.3279 21.9999 80.5401 21.9999ZM63.5272 64.5791H53.9835L55.6332 55.6672H61.8775L63.5272 64.5791ZM81.5303 52.6965C81.5303 52.9591 81.4259 53.211 81.2402 53.3967C81.0545 53.5824 80.8027 53.6867 80.5401 53.6867H36.9706C36.708 53.6867 36.4562 53.5824 36.2705 53.3967C36.0848 53.211 35.9804 52.9591 35.9804 52.6965V24.9705C35.9804 24.7079 36.0848 24.456 36.2705 24.2703C36.4562 24.0846 36.708 23.9803 36.9706 23.9803H80.5401C80.8027 23.9803 81.0545 24.0846 81.2402 24.2703C81.4259 24.456 81.5303 24.7079 81.5303 24.9705V52.6965Z" fill="#151A6A"/>
<path d="M76.5793 25.9607H40.9316C40.1437 25.9607 39.3881 26.2737 38.831 26.8308C38.2739 27.3879 37.9609 28.1435 37.9609 28.9313V44.7748C37.9609 45.5626 38.2739 46.3182 38.831 46.8753C39.3881 47.4324 40.1437 47.7454 40.9316 47.7454H76.5793C77.3671 47.7454 78.1227 47.4324 78.6798 46.8753C79.2369 46.3182 79.5499 45.5626 79.5499 44.7748V28.9313C79.5499 28.1435 79.2369 27.3879 78.6798 26.8308C78.1227 26.2737 77.3671 25.9607 76.5793 25.9607ZM77.5695 44.7748C77.5695 45.0374 77.4652 45.2892 77.2795 45.4749C77.0938 45.6606 76.8419 45.765 76.5793 45.765H40.9316C40.669 45.765 40.4171 45.6606 40.2314 45.4749C40.0457 45.2892 39.9414 45.0374 39.9414 44.7748V28.9313C39.9414 28.6687 40.0457 28.4168 40.2314 28.2311C40.4171 28.0454 40.669 27.9411 40.9316 27.9411H76.5793C76.8419 27.9411 77.0938 28.0454 77.2795 28.2311C77.4652 28.4168 77.5695 28.6687 77.5695 28.9313V44.7748Z" fill="#151A6A"/>
<path d="M60.7357 49.7259H56.7749C56.5123 49.7259 56.2604 49.8302 56.0747 50.0159C55.889 50.2016 55.7847 50.4535 55.7847 50.7161C55.7847 50.9787 55.889 51.2306 56.0747 51.4163C56.2604 51.602 56.5123 51.7063 56.7749 51.7063H60.7357C60.9984 51.7063 61.2502 51.602 61.4359 51.4163C61.6216 51.2306 61.726 50.9787 61.726 50.7161C61.726 50.4535 61.6216 50.2016 61.4359 50.0159C61.2502 49.8302 60.9984 49.7259 60.7357 49.7259Z" fill="#151A6A"/>
<path d="M60.3655 99.9998H42.4055V85.7198H45.4255V97.4798H49.8655V85.7198H52.9055V97.4798H57.3455V85.7198H60.3655V99.9998ZM72.708 99.9998L71.668 96.5998H66.468L65.428 99.9998H62.168L67.208 85.6598H70.908L75.968 99.9998H72.708ZM69.908 90.7398C69.8413 90.5131 69.7546 90.2265 69.648 89.8798C69.5413 89.5331 69.4346 89.1798 69.328 88.8198C69.2213 88.4598 69.1346 88.1465 69.068 87.8798C69.0013 88.1465 68.908 88.4798 68.788 88.8798C68.6813 89.2665 68.5746 89.6398 68.468 89.9998C68.3746 90.3465 68.3013 90.5931 68.248 90.7398L67.228 94.0598H70.948L69.908 90.7398ZM86.7966 85.7198V88.2198H80.7966V99.9998H77.7766V85.7198H86.7966ZM93.5675 99.9998H102.988V97.7998H96.6075L100.688 93.8998C101.948 92.6998 102.968 91.4398 102.968 89.6198C102.968 86.8998 100.708 85.4798 98.2475 85.4798C95.6475 85.4798 93.7475 87.1998 93.4675 89.5398L95.8075 89.8998C95.9875 88.5198 96.8475 87.4798 98.2075 87.4798C99.4875 87.4798 100.468 88.3398 100.468 89.6598C100.468 90.7598 99.9075 91.5798 99.0275 92.4398L93.5675 97.7998V99.9998Z" fill="#061058"/>
</svg>
