<svg width="127" height="121" viewBox="0 0 127 121" fill="none" xmlns="http://www.w3.org/2000/svg">
<path d="M123.411 119.24L123.06 58.7997C122.875 26.7985 96.782 1.00708 64.7809 1.19284L58.532 1.22911C26.5308 1.41487 0.739267 27.5075 0.925024 59.5087L0.939521 62.0062C1.12528 94.0074 27.218 119.799 59.2191 119.613L123.411 119.24Z" stroke="#00A87C" stroke-width="1.17059"/>
<path d="M60.3655 99.9999H42.4055V85.7199H45.4255V97.4799H49.8655V85.7199H52.9055V97.4799H57.3455V85.7199H60.3655V99.9999ZM72.708 99.9999L71.668 96.5999H66.468L65.428 99.9999H62.168L67.208 85.6599H70.908L75.968 99.9999H72.708ZM69.908 90.7399C69.8413 90.5132 69.7546 90.2265 69.648 89.8799C69.5413 89.5332 69.4346 89.1799 69.328 88.8199C69.2213 88.4599 69.1346 88.1465 69.068 87.8799C69.0013 88.1465 68.908 88.4799 68.788 88.8799C68.6813 89.2665 68.5746 89.6399 68.468 89.9999C68.3746 90.3465 68.3013 90.5932 68.248 90.7399L67.228 94.0599H70.948L69.908 90.7399ZM86.7966 85.7199V88.2199H80.7966V99.9999H77.7766V85.7199H86.7966ZM96.4275 93.5799H97.0275C98.5275 93.5799 100.468 94.1399 100.468 95.9799C100.468 97.6799 99.1075 98.3199 97.8675 98.3199C96.3675 98.3199 95.3875 97.4399 95.0475 96.3199L92.8075 97.0199C93.5675 99.3799 95.5675 100.36 97.9475 100.36C100.348 100.36 102.888 98.9399 102.888 95.9999C102.888 94.2599 101.688 92.9399 99.9675 92.5999V92.5599C101.508 92.1799 102.508 90.8799 102.508 89.3599C102.508 86.8199 100.428 85.4799 97.9475 85.4799C95.6875 85.4799 93.8275 86.8199 93.3275 88.7199L95.5875 89.2999C95.8675 88.2199 96.6875 87.4799 97.8475 87.4799C99.0475 87.4799 100.088 88.2399 100.088 89.5199C100.088 91.2599 98.4875 91.6599 97.0675 91.6599H96.4275V93.5799Z" fill="#061058"/>
</svg>
