<svg width="127" height="121" viewBox="0 0 127 121" fill="none" xmlns="http://www.w3.org/2000/svg">
<path d="M123.411 119.24L123.06 58.7997C122.875 26.7985 96.782 1.00708 64.7809 1.19284L58.532 1.22911C26.5308 1.41487 0.739267 27.5075 0.925024 59.5087L0.939521 62.0062C1.12528 94.0074 27.218 119.799 59.2191 119.613L123.411 119.24Z" stroke="#00A87C" stroke-width="1.17059"/>
<path d="M60.3655 99.9999H42.4055V85.7199H45.4255V97.4799H49.8655V85.7199H52.9055V97.4799H57.3455V85.7199H60.3655V99.9999ZM72.708 99.9999L71.668 96.5999H66.468L65.428 99.9999H62.168L67.208 85.6599H70.908L75.968 99.9999H72.708ZM69.908 90.7399C69.8413 90.5132 69.7546 90.2265 69.648 89.8799C69.5413 89.5332 69.4346 89.1799 69.328 88.8199C69.2213 88.4599 69.1346 88.1465 69.068 87.8799C69.0013 88.1465 68.908 88.4799 68.788 88.8799C68.6813 89.2665 68.5746 89.6399 68.468 89.9999C68.3746 90.3465 68.3013 90.5932 68.248 90.7399L67.228 94.0599H70.948L69.908 90.7399ZM86.7966 85.7199V88.2199H80.7966V99.9999H77.7766V85.7199H86.7966ZM96.4275 93.5799H97.0275C98.5275 93.5799 100.468 94.1399 100.468 95.9799C100.468 97.6799 99.1075 98.3199 97.8675 98.3199C96.3675 98.3199 95.3875 97.4399 95.0475 96.3199L92.8075 97.0199C93.5675 99.3799 95.5675 100.36 97.9475 100.36C100.348 100.36 102.888 98.9399 102.888 95.9999C102.888 94.2599 101.688 92.9399 99.9675 92.5999V92.5599C101.508 92.1799 102.508 90.8799 102.508 89.3599C102.508 86.8199 100.428 85.4799 97.9475 85.4799C95.6875 85.4799 93.8275 86.8199 93.3275 88.7199L95.5875 89.2999C95.8675 88.2199 96.6875 87.4799 97.8475 87.4799C99.0475 87.4799 100.088 88.2399 100.088 89.5199C100.088 91.2599 98.4875 91.6599 97.0675 91.6599H96.4275V93.5799Z" fill="#061058"/>
<path d="M107.218 43.6L77.071 31.0977C76.9175 31.0331 76.7528 30.9999 76.5865 30.9999C76.4202 30.9999 76.2555 31.0331 76.102 31.0977L45.768 44.0517C45.5393 44.1497 45.3444 44.3138 45.2077 44.5233C45.0711 44.7329 44.9988 44.9785 45 45.2294C45.0012 45.4803 45.0759 45.7253 45.2145 45.9335C45.3532 46.1416 45.5497 46.3038 45.7794 46.3995L75.9269 58.9018C76.0806 58.9665 76.2455 58.9999 76.412 58.9999C76.5785 58.9999 76.7434 58.9665 76.8971 58.9018L107.231 45.949C107.46 45.8511 107.655 45.687 107.792 45.4772C107.929 45.2674 108.001 45.0215 108 44.7703C107.999 44.5191 107.924 44.2739 107.785 44.0657C107.646 43.8574 107.449 43.6954 107.218 43.6V43.6Z" fill="#00A87C" fill-opacity="0.5"/>
<path d="M75.941 61.8441L55 53.3172V64.2386C55 64.4175 55.0386 64.5944 55.1132 64.7573C55.1878 64.9202 55.2967 65.0654 55.4325 65.1831C61.2747 70.2237 68.7572 72.9999 76.5006 72.9999C84.2441 72.9999 91.7265 70.2237 97.5687 65.1831C97.7044 65.0653 97.813 64.92 97.8874 64.7571C97.9618 64.5942 98.0002 64.4174 98 64.2386V52.9999L76.9136 61.8366C76.76 61.9014 76.595 61.9355 76.428 61.9368C76.2611 61.9381 76.0956 61.9066 75.941 61.8441Z" fill="#00A87C" fill-opacity="0.5"/>
<g clip-path="url(#clip0)">
<path d="M78.2673 30.2098H73.4687C72.4665 26.226 70.0972 22.8894 66.5868 20.5341C63.236 18.2861 58.9535 17.048 54.5282 17.048C50.3255 17.048 46.7594 18.149 43.9291 20.3209C41.7979 21.9563 40.0716 24.2128 38.7983 27.0278C38.6317 27.3964 38.7953 27.8305 39.1638 27.9972C39.5326 28.1638 39.9665 28.0001 40.1332 27.6316C42.8698 21.581 47.7129 18.5131 54.5282 18.5131C58.666 18.5131 62.6586 19.6629 65.7705 21.7508C68.8676 23.8288 70.9907 26.7402 71.9534 30.2099H71.2427C70.8381 30.2099 70.5102 30.5378 70.5102 30.9425V32.2762H67.8764C66.0596 26.6149 60.9227 22.3855 54.7105 21.9853C54.5075 21.971 54.3102 22.0435 54.1624 22.1819C54.0146 22.3203 53.931 22.5137 53.931 22.7163V24.7842C47.5076 25.0101 42.3515 30.3052 42.3515 36.7828C42.3515 37.0661 42.3627 37.348 42.3825 37.6283H37.4896V36.2945C37.4896 36.1164 37.4259 35.9531 37.3202 35.826C37.7759 34.6667 38.0859 33.8424 38.2422 33.3731C38.3277 33.1167 38.4176 32.779 38.5315 32.3516C38.682 31.7867 38.8693 31.0837 39.1212 30.2926C39.244 29.9072 39.031 29.4951 38.6455 29.3723C38.2599 29.2493 37.848 29.4625 37.7253 29.8481C37.4628 30.6726 37.2705 31.3945 37.1159 31.9745C37.0128 32.3616 36.9237 32.696 36.8524 32.9098C36.692 33.3913 36.3546 34.2832 35.8496 35.5619H29.7325C29.328 35.5619 29 35.8897 29 36.2944V40.4271C29 40.8317 29.3279 41.1596 29.7325 41.1596H33.5837C32.9636 42.6689 32.3817 44.0728 31.9725 45.0568C31.7308 45.6385 31.7951 46.2986 32.1447 46.8227C32.4945 47.347 33.0798 47.66 33.7103 47.66H36.0148C36.3514 49.3961 37.3543 54.3893 38.1366 56.4549C38.8711 58.3937 40.6073 59.5236 43.1576 59.7226C44.2259 59.8059 45.2171 59.7079 45.8657 59.6098L47.0605 66.351C47.1225 66.7008 47.4265 66.9557 47.7818 66.9557H67.7416C67.9554 66.9557 68.1585 66.8623 68.2977 66.7C68.4369 66.5377 68.4982 66.3228 68.4656 66.1114L67.4216 59.355C67.3599 58.9554 66.9863 58.6819 66.5858 58.7429C66.1861 58.8047 65.912 59.1789 65.9737 59.5788L66.8872 65.4908H48.3958L47.1792 58.6267C47.144 58.4275 47.0278 58.2517 46.8583 58.141C46.6888 58.0304 46.481 57.9951 46.2846 58.0427C46.2297 58.0563 40.7953 59.3375 39.5068 55.936C38.6181 53.5899 37.3534 46.8605 37.3407 46.7928C37.2758 46.4463 36.9733 46.195 36.6207 46.195H33.7103C33.5089 46.195 33.4006 46.0653 33.3634 46.0096C33.3263 45.954 33.2482 45.8046 33.3254 45.6193C33.7848 44.5138 34.4623 42.879 35.1673 41.1597H36.7571C37.1617 41.1597 37.4896 40.8319 37.4896 40.4272V39.0935H42.5774C43.1748 42.1368 44.9362 44.8676 47.5394 46.6669C47.8723 46.8969 48.3283 46.8136 48.5585 46.4809C48.7884 46.1481 48.7052 45.6918 48.3725 45.4617C46.167 43.9374 44.6495 41.6521 44.0741 39.0935H50.2492C50.6538 39.0935 50.9817 38.7657 50.9817 38.361C50.9817 37.9563 50.6539 37.6285 50.2492 37.6285H43.8518C43.8292 37.3485 43.8167 37.0665 43.8167 36.783C43.8167 31.1133 48.3158 26.4748 53.9312 26.2494V36.2748C53.9312 36.5303 54.0644 36.7675 54.2827 36.9004L57.6056 38.9237L63.2906 42.3854C61.3674 45.4489 58.0057 47.3249 54.3587 47.3249C53.152 47.3249 51.9687 47.123 50.842 46.7244C50.4606 46.5892 50.042 46.7893 49.9072 47.1707C49.7723 47.5521 49.9721 47.9706 50.3534 48.1055C51.6373 48.5597 52.985 48.7899 54.3586 48.7899C58.5192 48.7899 62.3529 46.6461 64.5411 43.147L65.865 43.9532C65.9808 44.0237 66.1127 44.0601 66.2458 44.0601C66.3115 44.0601 66.3774 44.0513 66.4417 44.0334C66.6368 43.9793 66.8007 43.8469 66.8947 43.6676C67.9982 41.561 68.5816 39.1833 68.5816 36.7921C68.5816 35.7482 68.4715 34.7279 68.2639 33.7418H70.5101V35.0754C70.5101 35.48 70.8379 35.808 71.2426 35.808H72.5192C72.2352 41.2079 69.8052 47.2594 65.285 53.8103C65.1787 53.9643 65.1354 54.1533 65.164 54.3383L65.5231 56.6622C65.579 57.024 65.891 57.2829 66.2461 57.2829C66.2833 57.2829 66.3209 57.28 66.3588 57.2742C66.7586 57.2124 67.0328 56.8382 66.9709 56.4383L66.6562 54.4015C71.2472 47.6856 73.7093 41.4364 73.9862 35.808H78.2673C78.6718 35.808 78.9998 35.4801 78.9998 35.0754V30.9428C78.9998 30.5377 78.672 30.2098 78.2673 30.2098ZM36.0247 39.6945H34.6712C34.6693 39.6945 34.6674 39.6945 34.6655 39.6945H30.465V37.0268H36.0247V39.6945V39.6945ZM65.9396 42.2829L64.6672 41.5081C64.6668 41.5078 64.6664 41.5074 64.6659 41.5072L58.9009 37.9968L55.3962 35.8628V23.5203C60.4801 24.1479 64.6563 27.6344 66.3295 32.2762H61.2564C60.8518 32.2762 60.5239 32.6041 60.5239 33.0088C60.5239 33.4133 60.8517 33.7413 61.2564 33.7413H66.764C66.9946 34.7228 67.1167 35.7442 67.1167 36.7916C67.1167 38.6842 66.7114 40.567 65.9396 42.2829ZM77.5349 34.3424H71.9752V31.6749H77.5349V34.3424Z" fill="#061058"/>
<path d="M75.7772 32.2743H73.733C73.3284 32.2743 73.0005 32.6021 73.0005 33.0068C73.0005 33.4115 73.3283 33.7393 73.733 33.7393H75.7772C76.1818 33.7393 76.5098 33.4115 76.5098 33.0068C76.5098 32.6022 76.1819 32.2743 75.7772 32.2743Z" fill="#061058"/>
<path d="M34.2669 37.6263H32.2228C31.8182 37.6263 31.4902 37.9542 31.4902 38.3589C31.4902 38.7634 31.8181 39.0914 32.2228 39.0914H34.2669C34.6715 39.0914 34.9994 38.7635 34.9994 38.3589C34.9994 37.9543 34.6715 37.6263 34.2669 37.6263Z" fill="#061058"/>
</g>
<defs>
<clipPath id="clip0">
<rect width="50" height="50" fill="white" transform="translate(29 16.9999)"/>
</clipPath>
</defs>
</svg>
