<svg width="127" height="121" viewBox="0 0 127 121" fill="none" xmlns="http://www.w3.org/2000/svg">
<path d="M123.411 119.24L123.06 58.7997C122.875 26.7985 96.782 1.00708 64.7809 1.19284L58.532 1.22911C26.5308 1.41487 0.739267 27.5075 0.925024 59.5087L0.939521 62.0062C1.12528 94.0074 27.218 119.799 59.2191 119.613L123.411 119.24Z" stroke="#00A87C" stroke-width="1.17059"/>
<path d="M60.3655 99.9999H42.4055V85.7199H45.4255V97.4799H49.8655V85.7199H52.9055V97.4799H57.3455V85.7199H60.3655V99.9999ZM72.708 99.9999L71.668 96.5999H66.468L65.428 99.9999H62.168L67.208 85.6599H70.908L75.968 99.9999H72.708ZM69.908 90.7399C69.8413 90.5132 69.7546 90.2265 69.648 89.8799C69.5413 89.5332 69.4346 89.1799 69.328 88.8199C69.2213 88.4599 69.1346 88.1465 69.068 87.8799C69.0013 88.1465 68.908 88.4799 68.788 88.8799C68.6813 89.2665 68.5746 89.6399 68.468 89.9999C68.3746 90.3465 68.3013 90.5932 68.248 90.7399L67.228 94.0599H70.948L69.908 90.7399ZM86.7966 85.7199V88.2199H80.7966V99.9999H77.7766V85.7199H86.7966ZM97.7675 99.9999H100.168V85.8399H97.9875L93.5675 89.3999L94.9675 91.0599L97.7675 88.7599V99.9999Z" fill="#061058"/>
<path d="M80 36.1667C76.2422 36.1667 72.5687 37.281 69.4442 39.3688C66.3196 41.4565 63.8844 44.4239 62.4463 47.8957C61.0082 51.3675 60.632 55.1878 61.3651 58.8734C62.0982 62.559 63.9078 65.9445 66.565 68.6017C69.2222 71.2589 72.6077 73.0685 76.2933 73.8016C79.9789 74.5347 83.7992 74.1585 87.271 72.7204C90.7428 71.2823 93.7102 68.847 95.7979 65.7225C97.8857 62.598 99 58.9245 99 55.1667C98.9945 50.1293 96.9909 45.2997 93.4289 41.7377C89.8669 38.1757 85.0374 36.1722 80 36.1667V36.1667ZM88.7056 52.4524L79.3251 60.2415C79.0769 60.4467 78.7707 60.5689 78.4495 60.5908C78.1282 60.6127 77.8082 60.5332 77.5345 60.3636L71.4645 56.5908C71.2785 56.4918 71.1148 56.3557 70.9836 56.1909C70.8524 56.026 70.7564 55.836 70.7017 55.6325C70.6469 55.4291 70.6346 55.2165 70.6654 55.0081C70.6962 54.7997 70.7695 54.5998 70.8807 54.4209C70.9919 54.2419 71.1387 54.0878 71.312 53.9679C71.4853 53.8481 71.6814 53.7651 71.888 53.7242C72.0947 53.6832 72.3076 53.6852 72.5135 53.7299C72.7194 53.7746 72.9139 53.8612 73.0849 53.9842L78.2149 57.1734L86.745 50.0919C87.0612 49.8649 87.4516 49.7662 87.8376 49.8157C88.2237 49.8652 88.5766 50.0591 88.8253 50.3585C89.0739 50.6579 89.1999 51.0405 89.1777 51.429C89.1555 51.8176 88.9868 52.1833 88.7056 52.4524V52.4524Z" fill="#00A87C" fill-opacity="0.5"/>
<path d="M67.5 44.1H53.1C50.9525 44.1026 48.8938 44.9568 47.3753 46.4753C45.8569 47.9938 45.0026 50.0525 45 52.2V60.3C45 61.016 45.2845 61.7028 45.7908 62.2092C46.2972 62.7155 46.9839 63 47.7 63H72.9C73.6161 63 74.3028 62.7155 74.8092 62.2092C75.3155 61.7028 75.6 61.016 75.6 60.3V52.2C75.5974 50.0525 74.7431 47.9938 73.2247 46.4753C71.7062 44.9568 69.6474 44.1026 67.5 44.1V44.1ZM73.8 60.3C73.8 60.5387 73.7052 60.7676 73.5364 60.9364C73.3676 61.1051 73.1387 61.2 72.9 61.2H47.7C47.4613 61.2 47.2324 61.1051 47.0636 60.9364C46.8948 60.7676 46.8 60.5387 46.8 60.3V52.2C46.8019 50.5297 47.4663 48.9284 48.6473 47.7473C49.8284 46.5662 51.4297 45.9019 53.1 45.9H67.5C69.1703 45.9019 70.7716 46.5662 71.9526 47.7473C73.1337 48.9284 73.7981 50.5297 73.8 52.2V60.3Z" fill="#151A6A"/>
<path d="M60.2998 41.4C62.829 41.3971 65.2539 40.3911 67.0424 38.6026C68.8309 36.8142 69.8369 34.3893 69.8398 31.86V27.54C69.8398 25.0098 68.8347 22.5833 67.0456 20.7942C65.2565 19.0051 62.8299 18 60.2998 18C57.7696 18 55.3431 19.0051 53.554 20.7942C51.7649 22.5833 50.7598 25.0098 50.7598 27.54V31.86C50.7626 34.3893 51.7686 36.8142 53.5571 38.6026C55.3456 40.3911 57.7705 41.3971 60.2998 41.4V41.4ZM52.5598 27.54C52.5598 25.4872 53.3752 23.5185 54.8268 22.067C56.2783 20.6155 58.247 19.8 60.2998 19.8C62.3525 19.8 64.3212 20.6155 65.7728 22.067C67.2243 23.5185 68.0398 25.4872 68.0398 27.54V31.86C68.0398 33.9128 67.2243 35.8815 65.7728 37.333C64.3212 38.7845 62.3525 39.6 60.2998 39.6C58.247 39.6 56.2783 38.7845 54.8268 37.333C53.3752 35.8815 52.5598 33.9128 52.5598 31.86V27.54Z" fill="#151A6A"/>
<path d="M60.2999 36.9C61.7316 36.8985 63.1043 36.3292 64.1167 35.3168C65.1291 34.3044 65.6985 32.9317 65.6999 31.5C65.6999 31.2613 65.6051 31.0324 65.4363 30.8636C65.2675 30.6948 65.0386 30.6 64.7999 30.6C64.5612 30.6 64.3323 30.6948 64.1635 30.8636C63.9947 31.0324 63.8999 31.2613 63.8999 31.5C63.8999 32.4548 63.5206 33.3704 62.8455 34.0456C62.1704 34.7207 61.2547 35.1 60.2999 35.1C59.3451 35.1 58.4294 34.7207 57.7543 34.0456C57.0792 33.3704 56.6999 32.4548 56.6999 31.5C56.6999 31.2613 56.6051 31.0324 56.4363 30.8636C56.2675 30.6948 56.0386 30.6 55.7999 30.6C55.5612 30.6 55.3323 30.6948 55.1635 30.8636C54.9947 31.0324 54.8999 31.2613 54.8999 31.5C54.9013 32.9317 55.4707 34.3044 56.4831 35.3168C57.4955 36.3292 58.8682 36.8985 60.2999 36.9Z" fill="#151A6A"/>
</svg>
