<svg width="127" height="121" viewBox="0 0 127 121" fill="none" xmlns="http://www.w3.org/2000/svg">
<path d="M123.411 119.24L123.06 58.7997C122.875 26.7985 96.782 1.00708 64.7809 1.19284L58.532 1.22911C26.5308 1.41487 0.739267 27.5075 0.925024 59.5087L0.939521 62.0062C1.12528 94.0074 27.218 119.799 59.2191 119.613L123.411 119.24Z" stroke="#00A87C" stroke-width="1.17059"/>
<path d="M74.4565 58.136V73.145C75.1979 72.7746 76.0152 72.5818 76.8439 72.5818C77.6725 72.5818 78.4898 72.7746 79.2312 73.145V58.136C78.4362 58.1228 77.6388 58.0918 76.8439 58.0918C76.0489 58.0918 75.2563 58.1228 74.4565 58.136Z" fill="#7CD0BB"/>
<path d="M66.1011 75.3926C66.1009 75.5963 66.1528 75.7966 66.2519 75.9745C66.351 76.1524 66.4939 76.302 66.6671 76.4091C66.8404 76.5162 67.0381 76.5772 67.2416 76.5862C67.445 76.5953 67.6474 76.5522 67.8295 76.4609L72.0693 74.3386V58.1801C70.0807 58.2458 68.0909 58.3401 66.1011 58.4761V75.3926Z" fill="#7CD0BB"/>
<path d="M81.6187 74.3386L85.8597 76.4597C86.0416 76.5506 86.2438 76.5936 86.447 76.5844C86.6502 76.5753 86.8476 76.5143 87.0207 76.4074C87.1937 76.3005 87.3365 76.1512 87.4356 75.9736C87.5347 75.796 87.5868 75.596 87.5869 75.3926V58.4761C85.5983 58.3401 83.6073 58.2458 81.6187 58.1801V74.3386Z" fill="#7CD0BB"/>
<path d="M66.1011 37.4034V56.0841C73.2548 55.6006 80.4331 55.6006 87.5868 56.0841V37.4034C80.4331 37.8868 73.2548 37.8868 66.1011 37.4034Z" fill="#7CD0BB"/>
<path d="M51.8631 36.7606C49.3831 43.1731 49.3788 50.2792 51.8511 56.6946C51.9445 56.9548 52.1253 57.1744 52.3625 57.3161C52.5998 57.4579 52.8789 57.5128 53.1522 57.4717C56.664 56.9453 60.1948 56.555 63.7173 56.2625V37.2238C60.1888 36.9325 56.664 36.5422 53.1522 36.0146C52.8846 35.9744 52.6112 36.0263 52.377 36.1619C52.1428 36.2974 51.9616 36.5085 51.8631 36.7606Z" fill="#7CD0BB"/>
<path d="M101.791 36.6609C101.679 36.4347 101.498 36.25 101.275 36.1337C101.051 36.0173 100.796 35.9754 100.546 36.0139C97.0345 36.5415 93.5096 36.9318 89.98 37.2231V56.2643C93.5096 56.5567 97.0345 56.947 100.546 57.4734C100.795 57.5109 101.05 57.4684 101.274 57.3522C101.497 57.236 101.679 57.0519 101.791 56.8265C103.439 53.7211 104.301 50.2592 104.301 46.7437C104.301 43.2282 103.439 39.7663 101.791 36.6609Z" fill="#7CD0BB"/>
<path d="M81.8685 34.557L56.6048 23.573C55.7322 23.195 54.7913 23 53.8403 23C52.8893 23 51.9484 23.195 51.0758 23.573L25.8097 34.5546C25.2718 34.7894 24.8141 35.176 24.4927 35.667C24.1712 36.1581 24 36.7322 24 37.3191C24 37.906 24.1712 38.4802 24.4927 38.9712C24.8141 39.4622 25.2718 39.8488 25.8097 40.0836L33.5506 43.4497V58.8097C33.5506 59.0121 33.6021 59.2112 33.7002 59.3883C33.7983 59.5654 33.9399 59.7146 34.1116 59.8219C39.9723 63.6995 46.8165 65.8273 53.8427 65.9561C60.8696 65.8268 67.7142 63.6982 73.575 59.8195C73.7461 59.7123 73.8872 59.5634 73.9851 59.3868C74.083 59.2102 74.1345 59.0116 74.1348 58.8097V43.4497L81.8733 40.086C82.411 39.8508 82.8684 39.4638 83.1894 38.9725C83.5104 38.4811 83.6811 37.9068 83.6806 37.3199C83.6801 36.733 83.5084 36.159 83.1865 35.6683C82.8646 35.1775 82.4066 34.7913 81.8685 34.557ZM71.7475 58.14C59.7071 65.444 47.9795 65.444 35.9379 58.14V44.4858L39.5188 46.0376V54.035C39.5188 54.3516 39.6446 54.6552 39.8685 54.8791C40.0923 55.1029 40.3959 55.2287 40.7125 55.2287C41.0291 55.2287 41.3327 55.1029 41.5565 54.8791C41.7804 54.6552 41.9062 54.3516 41.9062 54.035V47.082L51.0782 51.07C51.9503 51.4499 52.8914 51.6459 53.8427 51.6459C54.794 51.6459 55.7351 51.4499 56.6072 51.07L71.7475 44.4858V58.14ZM80.9172 37.8968L55.6511 48.8785C55.079 49.1259 54.4624 49.2535 53.8391 49.2535C53.2159 49.2535 52.5992 49.1259 52.0271 48.8785L42.6307 44.7926L54.4109 38.3671C54.6847 38.2135 54.887 37.9581 54.9738 37.6563C55.0607 37.3545 55.0251 37.0307 54.8748 36.755C54.7246 36.4793 54.4717 36.2739 54.171 36.1833C53.8704 36.0927 53.5461 36.1242 53.2685 36.2711C39.3171 43.8997 40.13 43.396 39.8996 43.6061L26.7635 37.8968C26.6515 37.8479 26.5563 37.7675 26.4895 37.6653C26.4226 37.5631 26.387 37.4436 26.387 37.3215C26.387 37.1994 26.4226 37.0799 26.4895 36.9777C26.5563 36.8755 26.6515 36.7951 26.7635 36.7462L52.0295 25.7645C52.6011 25.5155 53.218 25.3869 53.8415 25.3869C54.465 25.3869 55.0819 25.5155 55.6535 25.7645L80.9172 36.7462C81.0291 36.7951 81.1243 36.8755 81.1912 36.9777C81.258 37.0799 81.2936 37.1994 81.2936 37.3215C81.2936 37.4436 81.258 37.5631 81.1912 37.6653C81.1243 37.7675 81.0291 37.8479 80.9172 37.8968Z" fill="#151A6A"/>
<path d="M60.3655 99.9999H42.4055V85.7199H45.4255V97.4799H49.8655V85.7199H52.9055V97.4799H57.3455V85.7199H60.3655V99.9999ZM72.708 99.9999L71.668 96.5999H66.468L65.428 99.9999H62.168L67.208 85.6599H70.908L75.968 99.9999H72.708ZM69.908 90.7399C69.8413 90.5132 69.7546 90.2265 69.648 89.8799C69.5413 89.5332 69.4346 89.1799 69.328 88.8199C69.2213 88.4599 69.1346 88.1465 69.068 87.8799C69.0013 88.1465 68.908 88.4799 68.788 88.8799C68.6813 89.2665 68.5746 89.6399 68.468 89.9999C68.3746 90.3465 68.3013 90.5932 68.248 90.7399L67.228 94.0599H70.948L69.908 90.7399ZM86.7966 85.7199V88.2199H80.7966V99.9999H77.7766V85.7199H86.7966ZM99.1475 99.9999H101.508V97.0599H103.487V94.9999H101.508V85.8399H98.6275L92.6075 94.9399V97.0599H99.1475V99.9999ZM99.1475 94.9999H95.0875L99.1075 88.6599H99.1475V94.9999Z" fill="#061058"/>
</svg>
