<svg width="224" height="335" viewBox="0 0 224 335" fill="none" xmlns="http://www.w3.org/2000/svg">
<path opacity="0.3" d="M2.18491 330.915C1.47244 332.233 0.759979 333.458 0 334.588H224V12.0621C214.263 4.34032 203.718 0.291093 193.221 0.479429C186.667 0.573597 179.589 2.73946 174.887 11.7796C166.718 27.5057 169.757 55.0969 175.647 74.4955C181.537 93.8 189.897 111.692 191.179 134.104C192.936 164.426 178.307 194.183 162.965 191.358C154.843 189.946 147.576 181 139.644 176.95C131.712 172.901 121.595 175.914 118.222 190.699C115.325 203.317 118.792 218.102 117.89 231.85C116.322 255.675 102.073 268.576 90.056 266.033C78.039 263.585 67.257 250.778 55.81 242.962C44.363 235.146 30.3037 233.357 21.4691 249.742C10.4495 270.648 13.1569 309.821 2.18491 330.915Z" fill="url(#paint0_linear)"/>
<defs>
<linearGradient id="paint0_linear" x1="58.4201" y1="36.2989" x2="387.661" y2="250.579" gradientUnits="userSpaceOnUse">
<stop stop-color="#0B77C3"/>
<stop offset="0.1307" stop-color="#0759A5"/>
<stop offset="0.2991" stop-color="#033A84"/>
<stop offset="0.4399" stop-color="#012670"/>
<stop offset="0.5351" stop-color="#001F69"/>
<stop offset="1" stop-color="#0F181D"/>
</linearGradient>
</defs>
</svg>
