<svg width="35" height="35" viewBox="0 0 35 35" fill="none" xmlns="http://www.w3.org/2000/svg">
<path d="M17.1975 3.26672C25.2941 3.26672 31.8844 9.80005 31.8844 17.8267C31.8844 25.8534 25.2941 32.3867 17.1975 32.3867C9.10086 32.3867 2.51058 25.8534 2.51058 17.8267C2.51058 9.80005 9.10086 3.26672 17.1975 3.26672ZM17.1975 0.777832C7.68866 0.777832 0 8.40005 0 17.8267C0 27.2534 7.68866 34.8756 17.1975 34.8756C26.7063 34.8756 34.395 27.2534 34.395 17.8267C34.395 8.43117 26.7063 0.777832 17.1975 0.777832Z" fill="white" fill-opacity="0.5"/>
<path d="M13.2119 16.8623V19.2267H17.1661C17.0092 20.2534 15.9736 22.2134 13.2119 22.2134C10.8269 22.2134 8.91257 20.2534 8.91257 17.8578C8.91257 15.4623 10.8583 13.5023 13.2119 13.5023C14.5614 13.5023 15.4715 14.0623 15.9736 14.5601L17.8565 12.7556C16.6326 11.6356 15.0635 10.9512 13.1806 10.9512C9.32053 10.9512 6.21368 14.0312 6.21368 17.8578C6.21368 21.6845 9.32053 24.7645 13.1806 24.7645C17.1975 24.7645 19.865 21.9645 19.865 18.0134C19.865 17.5467 19.8022 17.2045 19.7708 16.8623H13.2119Z" fill="white" fill-opacity="0.5"/>
<path d="M28.1185 16.8623H26.1414V14.9023H24.1643V16.8623H22.1873V18.8223H24.1643V20.7823H26.1414V18.8223H28.1185V16.8623Z" fill="white" fill-opacity="0.5"/>
</svg>
