<svg width="132" height="109" viewBox="0 0 132 109" fill="none" xmlns="http://www.w3.org/2000/svg">
<g filter="url(#filter0_d)">
<path d="M116.349 61.4715H110.19V30.0951C110.19 24.5581 105.674 20.0465 100.131 20.0465H80.6276V10.408C80.6276 5.89641 76.9324 2 72.2106 2H37.5159C32.9994 2 29.0988 5.69133 29.0988 10.408V30.5053H13.2912C7.13235 30.5053 2 35.4271 2 41.7844V87.7209C2 93.8732 6.92706 99 13.2912 99H59.2771C65.4359 99 70.5682 94.0782 70.5682 87.7209V83.0042H89.4553V88.1311C89.4553 91.2072 92.1241 93.6681 95.2035 93.6681H116.144C119.223 93.6681 121.686 91.2072 121.686 88.1311V67.2135C121.892 63.9323 119.428 61.4715 116.349 61.4715ZM67.6941 87.7209C67.6941 92.2326 63.9988 95.9239 59.4823 95.9239H13.2912C8.77471 95.9239 5.07941 92.2326 5.07941 87.7209V41.7844C5.07941 37.2727 8.77471 33.5814 13.2912 33.5814H29.0988V45.0655C29.0988 49.5772 32.7941 53.4736 37.5159 53.4736H46.9594V72.9556C46.9594 78.4926 51.4759 83.0042 57.0188 83.0042H67.6941V87.7209ZM119.428 88.1311C119.428 89.9767 117.991 91.4123 116.144 91.4123H95.2035C93.3559 91.4123 91.9188 89.9767 91.9188 88.1311V83.0042H99.9253C105.468 83.0042 109.985 78.4926 109.985 72.9556V63.9324H116.144C117.991 63.9324 119.428 65.3679 119.428 67.2135V88.1311Z" fill="white" stroke="white"/>
<path d="M108.137 20.4566H116.349C117.786 20.4566 119.018 19.2262 119.018 17.7907V9.58771C119.018 8.1522 117.786 6.92175 116.349 6.92175H108.137C106.7 6.92175 105.468 8.1522 105.468 9.58771V17.7907C105.468 19.2262 106.7 20.4566 108.137 20.4566Z" fill="white" stroke="white"/>
<path d="M43.6747 80.5433H35.463C34.0259 80.5433 32.7941 81.7738 32.7941 83.2093V91.4123C32.7941 92.8478 34.0259 94.0782 35.463 94.0782H43.6747C45.1118 94.0782 46.3435 92.8478 46.3435 91.4123V83.2093C46.3435 81.7738 45.1118 80.5433 43.6747 80.5433Z" fill="white" stroke="white"/>
</g>
<defs>
<filter id="filter0_d" x="0.5" y="0.5" width="130.698" height="108" filterUnits="userSpaceOnUse" color-interpolation-filters="sRGB">
<feFlood flood-opacity="0" result="BackgroundImageFix"/>
<feColorMatrix in="SourceAlpha" type="matrix" values="0 0 0 0 0 0 0 0 0 0 0 0 0 0 0 0 0 0 127 0" result="hardAlpha"/>
<feOffset dx="4" dy="4"/>
<feGaussianBlur stdDeviation="2.5"/>
<feColorMatrix type="matrix" values="0 0 0 0 0 0 0 0 0 0 0 0 0 0 0 0 0 0 0.25 0"/>
<feBlend mode="normal" in2="BackgroundImageFix" result="effect1_dropShadow"/>
<feBlend mode="normal" in="SourceGraphic" in2="effect1_dropShadow" result="shape"/>
</filter>
</defs>
</svg>
