<svg width="160" height="67" viewBox="0 0 160 67" fill="none" xmlns="http://www.w3.org/2000/svg">
<g clip-path="url(#clip0)">
<path d="M13.1885 0H0.222595V11.8466H13.1885V0Z" fill="#2F4886"/>
<path d="M32.126 0H19.1601V11.8466H32.126V0Z" fill="#5790CC"/>
<path d="M32.1639 17.7986H19.198V29.6452H32.1639V17.7986Z" fill="#2F4886"/>
<path d="M51.0303 17.8752H38.0644V29.7219H51.0303V17.8752Z" fill="#5790CC"/>
<path d="M32.1591 36.4592V48.3011C32.1591 51.0528 32.609 52.8836 33.5087 53.7934C34.4085 54.7032 36.2175 55.1581 38.9357 55.1581H47.6207V67.0048H35.8434C29.5672 67.0048 25.1363 65.4086 22.5507 62.2163C20.2681 59.3752 19.1269 54.7463 19.1269 48.3298L19.1932 36.488H32.1591V36.4592Z" fill="#2F4886"/>
<path d="M14.2683 43.3356C13.3922 40.5727 13.2738 38.2215 13.0938 34.1561C13.0086 32.2072 13.0039 30.5983 13.0181 29.5209V17.6982H0.0616049L-0.00469971 29.5401C-0.00469971 35.9726 1.13656 40.6014 3.41909 43.4266C5.90052 46.4864 10.7071 48.1576 16.5697 48.2869C15.5994 46.741 14.8262 45.0774 14.2683 43.3356Z" fill="#2F4886"/>
<path d="M94.4127 4.41016C97.4182 7.28323 98.921 10.8873 98.921 15.2225C98.921 19.2607 97.3961 22.8425 94.3464 25.9678C91.2967 29.093 87.8856 30.6573 84.1129 30.6605H65.9473V25.6182C65.9548 23.821 66.6642 22.0995 67.921 20.8287C69.1778 19.5578 70.8803 18.8405 72.6576 18.833H82.7254C83.169 18.8562 83.6121 18.7783 84.0219 18.6051C84.4317 18.4319 84.7979 18.1677 85.0932 17.8322C85.6716 17.148 85.9771 16.2706 85.9503 15.3709C85.9925 14.4689 85.685 13.5859 85.0932 12.9097C84.7872 12.5923 84.4176 12.3448 84.0092 12.1837C83.6008 12.0227 83.1631 11.9518 82.7254 11.9759H65.9426V0.119706H84.0419C87.9238 0.10706 91.6528 1.64972 94.4127 4.41016Z" fill="#2F4886"/>
<path d="M98.5942 37.5127H65.9521V49.3593H98.5942V37.5127Z" fill="#2F4886"/>
<path d="M119.402 38.322H106.569V50.1686H119.402V38.322Z" fill="#5790CC"/>
<path d="M154.914 4.42459C151.536 1.65048 147.149 0.263428 141.754 0.263428C136.359 0.263428 132.015 1.59462 128.722 4.25699C125.167 7.13006 123.39 11.1891 123.39 16.434V34.7163C123.39 39.8623 125.145 43.8766 128.655 46.7593C131.989 49.4664 136.355 50.8199 141.754 50.8199C147.153 50.8199 151.474 49.4664 154.72 46.7593C158.231 43.8862 159.986 39.8719 159.986 34.7163V16.434C159.995 11.1987 158.305 7.19551 154.914 4.42459ZM147.015 33.6677C147.028 34.3705 146.901 35.0687 146.641 35.7206C146.38 36.3725 145.993 36.9647 145.501 37.4618C145.01 37.9588 144.424 38.3506 143.78 38.6136C143.135 38.8766 142.444 39.0054 141.749 38.9924C141.044 39.0061 140.344 38.8777 139.688 38.6146C139.033 38.3515 138.436 37.959 137.932 37.4601C137.42 36.9758 137.015 36.3876 136.744 35.7341C136.472 35.0806 136.34 34.3764 136.355 33.6677V17.2959C136.353 16.6226 136.483 15.9556 136.737 15.3333C136.992 14.7111 137.366 14.1461 137.838 13.6711C138.346 13.1474 138.957 12.7374 139.631 12.4676C140.306 12.1979 141.029 12.0744 141.754 12.1053C142.469 12.0705 143.184 12.1924 143.848 12.4626C144.513 12.7329 145.112 13.1451 145.604 13.6711C146.532 14.6693 147.042 15.9928 147.025 17.363V33.6437L147.015 33.6677Z" fill="#2F4886"/>
<path d="M74.5566 64.376H72.4634L71.7484 62.3217H68.3624L67.6237 64.376H65.5827L69.0444 55.1726H71.0949L74.5566 64.376ZM70.0625 57.428L68.8502 60.8517H71.2653L70.0625 57.428Z" fill="#2F4886"/>
<path d="M84.4823 64.5435C82.4507 64.5435 81.1248 63.174 81.1248 61.0958C81.1248 58.941 82.4649 57.5188 84.5059 57.5188C86.2676 57.5188 87.442 58.4765 87.5983 60.0375H85.8224C85.7935 59.7133 85.6419 59.4128 85.3993 59.1987C85.1567 58.9846 84.8418 58.8734 84.5201 58.8883C83.5351 58.8883 82.948 59.688 82.948 61.0575C82.948 62.427 83.5115 63.15 84.4823 63.15C85.2589 63.15 85.7467 62.6712 85.903 61.8093H87.6503C87.4041 63.5331 86.2486 64.5435 84.4823 64.5435Z" fill="#2F4886"/>
<path d="M99.1908 64.3759C99.1125 64.1692 99.0694 63.9506 99.063 63.7294C98.4903 64.2829 97.724 64.5843 96.932 64.5674C95.4782 64.5674 94.5642 63.806 94.5642 62.5515C94.5642 60.8085 96.1364 60.6026 97.4387 60.435C98.6131 60.2817 99.0488 60.1764 99.0488 59.6353C99.0488 59.0942 98.6652 58.7446 97.8601 58.7446C97.0551 58.7446 96.6857 59.0032 96.5579 59.7646H94.8578C94.962 58.2802 96.0085 57.5188 97.9075 57.5188C99.2334 57.5188 100.782 57.83 100.782 59.688V62.561C100.737 63.1725 100.816 63.7867 101.014 64.3663H99.1766L99.1908 64.3759ZM97.7701 61.5028C97.145 61.6081 96.4442 61.6847 96.4442 62.4988C96.4407 62.6268 96.465 62.754 96.5154 62.8715C96.5658 62.989 96.6411 63.0939 96.7359 63.1788C96.8307 63.2637 96.9428 63.3265 97.0642 63.3629C97.1856 63.3993 97.3134 63.4084 97.4387 63.3894C98.3858 63.3894 99.0488 62.8579 99.0488 61.905V61.158C98.6487 61.3481 98.2162 61.4587 97.7749 61.4836L97.7701 61.5028Z" fill="#2F4886"/>
<path d="M113.161 64.3761V63.5237C112.951 63.8615 112.655 64.1358 112.304 64.3178C111.954 64.4999 111.561 64.5828 111.167 64.558C109.339 64.558 108.179 63.1742 108.179 61.0193C108.179 58.8645 109.315 57.5334 111.063 57.5334C111.453 57.5172 111.842 57.6009 112.192 57.7766C112.542 57.9524 112.843 58.2146 113.066 58.5389V55.187H114.866V64.3809H113.156L113.161 64.3761ZM111.565 58.9795C110.58 58.9795 110.007 59.7408 110.007 61.0193C110.007 62.2979 110.594 63.0832 111.565 63.0832C112.536 63.0832 113.137 62.3362 113.137 61.0289C113.137 59.7217 112.55 58.9795 111.565 58.9795Z" fill="#2F4886"/>
<path d="M125.554 64.5674C123.522 64.5674 122.182 63.174 122.182 61.0814C122.182 58.9889 123.574 57.5188 125.497 57.5188C127.491 57.5188 128.755 58.9889 128.755 61.3496V61.5315H124.019C124.043 62.6807 124.592 63.2985 125.563 63.2985C125.861 63.3158 126.155 63.2306 126.399 63.0566C126.642 62.8826 126.82 62.6303 126.903 62.3408H128.641C128.453 63.0112 128.045 63.597 127.484 64.0016C126.923 64.4063 126.242 64.6058 125.554 64.5674ZM125.492 58.85C124.687 58.85 124.128 59.4198 124.024 60.3488H126.908C126.851 59.5347 126.416 58.85 125.511 58.85H125.492Z" fill="#2F4886"/>
<path d="M144.33 64.3758V60.4014C144.33 59.664 144.216 59.0319 143.284 59.0319C142.351 59.0319 142.019 59.731 142.019 60.6313V64.3758H140.205V60.32C140.205 59.6113 140.063 59.0175 139.211 59.0175C138.164 59.0175 137.895 59.8555 137.895 60.7606V64.3758H136.081V57.7007H137.805V58.6153C138.03 58.2653 138.341 57.9803 138.708 57.7881C139.075 57.596 139.485 57.5032 139.898 57.5188C140.282 57.4878 140.667 57.5761 141 57.7721C141.333 57.968 141.6 58.2622 141.763 58.6153C142.004 58.2642 142.327 57.9798 142.705 57.7882C143.082 57.5966 143.501 57.5039 143.923 57.5188C145.405 57.5188 146.172 58.4764 146.172 59.8795V64.3615H144.335L144.33 64.3758Z" fill="#2F4886"/>
<path d="M157.372 64.347C156.837 65.8171 156.529 66.7413 154.857 66.7413C154.294 66.7413 154.526 66.7413 153.645 66.7413V65.2281H154.526C154.647 65.2435 154.77 65.2314 154.885 65.1926C155.001 65.1539 155.107 65.0895 155.195 65.0042C155.283 64.9188 155.351 64.8147 155.394 64.6993C155.437 64.584 155.455 64.4604 155.444 64.3375C155.438 64.2493 155.421 64.1624 155.392 64.0789L153.02 57.7007H154.976L156.482 62.2305L157.935 57.7007H159.83L157.372 64.347Z" fill="#2F4886"/>
</g>
<defs>
<clipPath id="clip0">
<rect width="160" height="67" fill="white"/>
</clipPath>
</defs>
</svg>
