<?xml version="1.0" encoding="UTF-8"?>
<!DOCTYPE svg PUBLIC "-//W3C//DTD SVG 1.1//EN" "http://www.w3.org/Graphics/SVG/1.1/DTD/svg11.dtd">
<!-- Creator: CorelDRAW 2021 (64-Bit) -->
<?xml-stylesheet href="group2.css" type="text/css"?>
<svg xmlns="http://www.w3.org/2000/svg" xml:space="preserve" width="592px" height="477px" version="1.1" style="shape-rendering:geometricPrecision; text-rendering:geometricPrecision; image-rendering:optimizeQuality; fill-rule:evenodd; clip-rule:evenodd"
viewBox="0 0 591.86 477.05"
 xmlns:xlink="http://www.w3.org/1999/xlink"
 xmlns:xodm="http://www.corel.com/coreldraw/odm/2003">
 <g id="Слой_x0020_1">
  <metadata id="CorelCorpID_0Corel-Layer"/>
  <g id="_1632158705664">
   <g filter="url(#filter0_d)">
    <path class="fil0 str0" d="M533.9 349.93c0,25.24 -20.6,45.82 -45.86,45.82l-216.01 0c-25.25,0 -45.86,-20.58 -45.86,-45.82l0 -215.83c0,-25.23 20.61,-45.82 45.86,-45.82l216.01 0c25.26,0 45.86,20.59 45.86,45.82l0 215.83z"/>
    <path class="fil0 str0" d="M135.32 37.36c0,-20.26 16.62,-36.86 36.89,-36.86l174.14 0c20.27,0 36.88,16.6 36.88,36.86l0 173.99c0,20.25 -16.61,36.85 -36.88,36.85l-174.14 0c-20.27,0 -36.89,-16.6 -36.89,-36.85l0 -173.99 0 0z"/>
    <path class="fil0 str1" d="M331.06 427.18c0,27.22 -21.93,49.14 -49.18,49.14l-231.96 0c-27.25,0 -49.19,-21.92 -49.19,-49.14l0 -231.77c0,-27.23 21.94,-49.14 49.19,-49.14l231.96 0c27.25,0 49.18,21.91 49.18,49.14l0 231.77z"/>
    <path class="fil1 str2" d="M591.27 429.17c0,12.28 -9.97,22.24 -22.27,22.24l-106.01 0c-12.3,0 -22.6,-9.96 -22.6,-22.24l0 -105.92c0,-12.29 9.97,-22.58 22.6,-22.58l106.01 0c12.3,0 22.27,9.96 22.27,22.58l0 105.92z"/>
    <path class="fil2 str3" d="M528.13 82.18c-4.66,0 -8.64,-3.98 -8.64,-8.63l0 -41.17c0,-4.65 3.98,-8.64 8.64,-8.64l41.2 0c4.66,0 8.64,3.99 8.64,8.64l0 41.17c0,4.65 -3.98,8.63 -8.64,8.63l-41.2 0z"/>
    <path class="fil3 str0" d="M161.24 454.07c-4.65,0 -8.64,-3.98 -8.64,-8.63l0 -41.18c0,-4.65 3.99,-8.63 8.64,-8.63l41.21 0c4.99,0 8.64,3.98 8.64,8.63l0 41.18c0,4.65 -3.99,8.63 -8.64,8.63l-41.21 0z"/>
   </g>
   <g filter="url(#filter0_d)">
    <path class="fil4 str4" d="M230.02 270.58l-6.14 0 0 -31.3c0,-5.52 -4.5,-10.02 -10.03,-10.02l-19.46 0 0 -9.61c0,-4.5 -3.68,-8.39 -8.39,-8.39l-34.61 0c-4.51,0 -8.4,3.68 -8.4,8.39l0 20.04 -15.77 0c-6.14,0 -11.26,4.91 -11.26,11.25l0 45.83c0,6.13 4.91,11.25 11.26,11.25l45.87 0c6.15,0 11.27,-4.91 11.27,-11.25l0 -4.71 18.84 0 0 5.12c0,3.06 2.66,5.52 5.73,5.52l20.89 0c3.07,0 5.53,-2.46 5.53,-5.52l0 -20.87c0.2,-3.27 -2.25,-5.73 -5.33,-5.73zm-48.53 26.19c0,4.5 -3.69,8.18 -8.19,8.18l-46.08 0c-4.5,0 -8.19,-3.68 -8.19,-8.18l0 -45.83c0,-4.5 3.69,-8.18 8.19,-8.18l15.77 0 0 11.46c0,4.5 3.69,8.38 8.4,8.38l9.42 0 0 19.44c0,5.52 4.5,10.02 10.03,10.02l10.65 0 0 4.71zm51.61 0.41c0,1.84 -1.44,3.27 -3.28,3.27l-20.89 0c-1.84,0 -3.28,-1.43 -3.28,-3.27l0 -5.12 7.99 0c5.53,0 10.04,-4.5 10.04,-10.02l0 -9 6.14 0c1.84,0 3.28,1.43 3.28,3.27l0 20.87z"/>
    <path class="fil4 str4" d="M221.83 229.67l8.19 0c1.44,0 2.67,-1.23 2.67,-2.66l0 -8.18c0,-1.43 -1.23,-2.66 -2.67,-2.66l-8.19 0c-1.43,0 -2.66,1.23 -2.66,2.66l0 8.18c0,1.43 1.23,2.66 2.66,2.66z"/>
    <path class="fil4 str4" d="M157.53 289.61l-8.19 0c-1.43,0 -2.66,1.22 -2.66,2.66l0 8.18c0,1.43 1.23,2.66 2.66,2.66l8.19 0c1.43,0 2.66,-1.23 2.66,-2.66l0 -8.18c0,-1.44 -1.23,-2.66 -2.66,-2.66z"/>
   </g>
  </g>
 </g>
</svg>
