<svg width="602" height="487" viewBox="0 0 602 487" fill="none" xmlns="http://www.w3.org/2000/svg">
<g opacity="0.2" filter="url(#filter0_d)">
<path d="M539.493 351.3C539.493 376.598 518.838 397.236 493.519 397.236H276.974C251.655 397.236 231 376.598 231 351.3V134.936C231 109.638 251.655 89 276.974 89H493.519C518.838 89 539.493 109.638 539.493 134.936V351.3Z" stroke="white"/>
<path d="M139.924 37.9484C139.924 17.6434 156.581 1 176.903 1H351.472C371.793 1 388.451 17.6434 388.451 37.9484V212.371C388.451 232.676 371.793 249.32 351.472 249.32H176.903C156.581 249.32 139.924 232.676 139.924 212.371V37.9484V37.9484Z" stroke="white"/>
<path d="M336.147 428.736C336.147 456.031 314.159 478 286.841 478H54.3056C26.9876 478 5 456.031 5 428.736V196.394C5 169.098 26.9876 147.129 54.3056 147.129H286.841C314.159 147.129 336.147 169.098 336.147 196.394V428.736Z" stroke="white" stroke-width="1.47"/>
<path d="M597 430.733C597 443.049 587.006 453.035 574.679 453.035H468.406C456.079 453.035 445.752 443.049 445.752 430.733V324.548C445.752 312.232 455.746 301.913 468.406 301.913H574.679C587.006 301.913 597 311.899 597 324.548V430.733Z" stroke="white" stroke-width="1.1979"/>
<path d="M533.702 82.8856C529.038 82.8856 525.041 78.8911 525.041 74.231V32.9554C525.041 28.2952 529.038 24.3008 533.702 24.3008H575.012C579.676 24.3008 583.674 28.2952 583.674 32.9554V74.231C583.674 78.8911 579.676 82.8856 575.012 82.8856H533.702Z" fill="white" stroke="white"/>
<path d="M165.909 455.698C161.245 455.698 157.248 451.703 157.248 447.043V405.768C157.248 401.107 161.245 397.113 165.909 397.113H207.22C212.217 397.113 215.881 401.107 215.881 405.768V447.043C215.881 451.703 211.884 455.698 207.22 455.698H165.909Z" fill="white" stroke="white"/>
</g>
<defs>
<filter id="filter0_d" x="0.265015" y="0.5" width="601.334" height="486.235" filterUnits="userSpaceOnUse" color-interpolation-filters="sRGB">
<feFlood flood-opacity="0" result="BackgroundImageFix"/>
<feColorMatrix in="SourceAlpha" type="matrix" values="0 0 0 0 0 0 0 0 0 0 0 0 0 0 0 0 0 0 127 0" result="hardAlpha"/>
<feOffset dy="4"/>
<feGaussianBlur stdDeviation="2"/>
<feColorMatrix type="matrix" values="0 0 0 0 0 0 0 0 0 0 0 0 0 0 0 0 0 0 0.25 0"/>
<feBlend mode="normal" in2="BackgroundImageFix" result="effect1_dropShadow"/>
<feBlend mode="normal" in="SourceGraphic" in2="effect1_dropShadow" result="shape"/>
</filter>
</defs>
</svg>
