<svg width="59" height="48" viewBox="0 0 59 48" fill="none" xmlns="http://www.w3.org/2000/svg">
<path d="M55.7 29H52.7V13.7C52.7 11 50.5 8.8 47.8 8.8H38.3V4.1C38.3 1.9 36.5 1.19209e-08 34.2 1.19209e-08H17.3C15.1 1.19209e-08 13.2 1.8 13.2 4.1V13.9H5.5C2.5 13.9 0 16.3 0 19.4V41.8C0 44.8 2.4 47.3 5.5 47.3H27.9C30.9 47.3 33.4 44.9 33.4 41.8V39.5H42.6V42C42.6 43.5 43.9 44.7 45.4 44.7H55.6C57.1 44.7 58.3 43.5 58.3 42V31.8C58.4 30.2 57.2 29 55.7 29ZM32 41.8C32 44 30.2 45.8 28 45.8H5.5C3.3 45.8 1.5 44 1.5 41.8V19.4C1.5 17.2 3.3 15.4 5.5 15.4H13.2V21C13.2 23.2 15 25.1 17.3 25.1H21.9V34.6C21.9 37.3 24.1 39.5 26.8 39.5H32V41.8ZM57.2 42C57.2 42.9 56.5 43.6 55.6 43.6H45.4C44.5 43.6 43.8 42.9 43.8 42V39.5H47.7C50.4 39.5 52.6 37.3 52.6 34.6V30.2H55.6C56.5 30.2 57.2 30.9 57.2 31.8V42Z" fill="white"/>
<path d="M51.7 8.9999H55.7C56.4 8.9999 57 8.3999 57 7.6999V3.6999C57 2.9999 56.4 2.3999 55.7 2.3999H51.7C51 2.3999 50.4 2.9999 50.4 3.6999V7.6999C50.4 8.3999 51 8.9999 51.7 8.9999Z" fill="white"/>
<path d="M20.3 38.3H16.3C15.6 38.3 15 38.9001 15 39.6001V43.6001C15 44.3001 15.6 44.9 16.3 44.9H20.3C21 44.9 21.6 44.3001 21.6 43.6001V39.6001C21.6 38.9001 21 38.3 20.3 38.3Z" fill="white"/>
</svg>
