<svg width="35" height="35" viewBox="0 0 35 35" fill="none" xmlns="http://www.w3.org/2000/svg">
<path d="M17.1975 2.48889C25.2941 2.48889 31.8844 9.02222 31.8844 17.0489C31.8844 25.0756 25.2941 31.6089 17.1975 31.6089C9.10086 31.6089 2.51058 25.0756 2.51058 17.0489C2.4792 9.02222 9.06948 2.48889 17.1975 2.48889ZM17.1975 0C7.68866 0 -3.83085e-06 7.62222 -3.83085e-06 17.0489C-3.83085e-06 26.4756 7.68866 34.0978 17.1975 34.0978C26.7063 34.0978 34.395 26.4756 34.395 17.0489C34.395 7.62222 26.6749 0 17.1975 0Z" fill="white" fill-opacity="0.5"/>
<path d="M18.2959 11.1998V6.68872H15.3774C15.3146 6.84428 15.2832 7.06205 15.2832 7.24872C15.2518 7.34205 15.2205 7.40428 15.2205 7.52872C14.9066 9.20872 14.0279 10.3598 12.553 11.0132C12.1136 11.1998 11.7057 11.2309 11.2663 11.1998V14.8398H13.4317C13.4631 19.9421 13.4631 22.5865 13.4631 22.7109V23.0221C13.7455 25.2621 14.9066 26.5998 17.0093 27.0976C17.8566 27.3154 18.7667 27.4398 19.6767 27.4398C20.8693 27.4087 21.999 27.1909 23.1602 26.8487V22.5554C22.5012 22.7421 21.8735 22.9287 21.34 23.0843C20.3044 23.3954 19.4257 23.1776 18.7039 22.5243C18.6411 22.4309 18.547 22.2754 18.5156 22.1509C18.4215 21.6221 18.3587 21.0621 18.3587 20.5021V14.8398H22.9719V11.1998H18.2959Z" fill="white" fill-opacity="0.5"/>
</svg>
