<svg width="35" height="35" viewBox="0 0 35 35" fill="none" xmlns="http://www.w3.org/2000/svg">
<path d="M17.1975 2.48889C25.2941 2.48889 31.8844 9.02222 31.8844 17.0489C31.8844 25.0756 25.2941 31.6089 17.1975 31.6089C9.10086 31.6089 2.51058 25.0756 2.51058 17.0489C2.51058 9.02222 9.10086 2.48889 17.1975 2.48889ZM17.1975 0C7.68866 0 1.91542e-06 7.62222 1.91542e-06 17.0489C1.91542e-06 26.4756 7.68866 34.0978 17.1975 34.0978C26.7063 34.0978 34.395 26.4756 34.395 17.0489C34.4264 7.62222 26.7063 0 17.1975 0Z" fill="white" fill-opacity="0.5"/>
<path fill-rule="evenodd" clip-rule="evenodd" d="M24.5723 19.382C25.2941 20.0975 26.0787 20.7508 26.7377 21.5286C27.0201 21.8708 27.3026 22.2442 27.5222 22.6486C27.8361 23.2086 27.5536 23.862 27.0201 23.8931H23.7878C22.9718 23.9553 22.2814 23.6442 21.7479 23.0531C21.3086 22.6175 20.9006 22.1197 20.4612 21.6531C20.2729 21.4664 20.116 21.2797 19.8964 21.1553C19.457 20.8753 19.0804 20.9686 18.8294 21.4042C18.5783 21.8708 18.5155 22.3686 18.4841 22.8975C18.4528 23.6442 18.2331 23.862 17.4485 23.8931C15.8167 23.9553 14.2789 23.7375 12.8353 22.8975C11.58 22.182 10.5758 21.1553 9.72849 20.0042C8.06523 17.7642 6.77856 15.3064 5.6488 12.7864C5.39774 12.2264 5.58603 11.9153 6.21367 11.9153C7.24929 11.8842 8.31629 11.8842 9.3519 11.9153C9.79125 11.9153 10.0737 12.1642 10.2306 12.5686C10.7955 13.9686 11.4859 15.2753 12.3646 16.4886C12.5843 16.7997 12.8353 17.142 13.1805 17.3597C13.5571 17.6086 13.8396 17.5153 14.0279 17.1108C14.1534 16.862 14.1848 16.582 14.2162 16.302C14.3103 15.3375 14.3103 14.3731 14.1534 13.4086C14.0592 12.8175 13.714 12.4131 13.1178 12.3197C12.804 12.2575 12.8667 12.1331 12.9922 11.9775C13.2433 11.6664 13.4944 11.4797 13.9651 11.4797H17.6054C18.1703 11.6042 18.2959 11.8531 18.39 12.4131V16.4264C18.39 16.6442 18.5155 17.2975 18.8921 17.4531C19.2059 17.5464 19.4256 17.2975 19.6139 17.1108C20.4926 16.2086 21.1203 15.1197 21.6538 13.9997C21.9048 13.502 22.1245 13.0042 22.3128 12.4753C22.4697 12.102 22.6894 11.9153 23.1287 11.9153H26.6435C26.7377 11.9153 26.8632 11.9153 26.9574 11.9464C27.5536 12.0397 27.7105 12.2886 27.5222 12.8797C27.2398 13.782 26.6749 14.5286 26.1414 15.2753C25.5452 16.0842 24.9175 16.862 24.3526 17.6708C23.8819 18.3864 23.9133 18.7597 24.5723 19.382Z" fill="white" fill-opacity="0.5"/>
</svg>
