<svg width="193" height="64" viewBox="0 0 193 64" fill="none" xmlns="http://www.w3.org/2000/svg">
<path d="M42.252 52.8C45.0717 50.1 46.6829 48.9 50.1069 46.7C50.0062 45.8 50.0062 45.4 49.9055 44.6C46.5822 46.7 45.0717 48 42.3527 50.6C42.252 51.4 42.252 51.9 42.252 52.8Z" fill="#3B68CF"/>
<path d="M46.582 42.8C49.6032 40.4 51.3151 39.5 54.5377 37.9C54.9405 39.2 55.0412 39.8 55.444 41.1C51.8186 42.8 50.006 43.9 46.7834 46.3C46.7834 44.8 46.6827 44.2 46.582 42.8Z" fill="#83CD38"/>
<path d="M52.7251 40.2C56.2497 38.3 58.0624 37.5 61.7885 36.9C62.5941 38.2 62.9969 38.8 63.8026 40.2C59.4723 41.1 57.3575 41.9 53.5307 44C53.2286 42.4 53.0272 41.7 52.7251 40.2Z" fill="#4675DF"/>
<path d="M44.5679 55.5C47.589 52.9 49.301 51.7 52.9263 49.5C53.027 50.2 53.1277 50.5 53.2284 51.3C49.4017 53.6 47.6897 54.9 44.5679 57.6C44.6686 56.7 44.6686 56.3 44.5679 55.5Z" fill="#FF6742"/>
<path d="M44.5679 53.7C47.589 51.2 49.2003 49.9 52.7249 47.9C52.8256 48.6 52.8256 48.9 52.9263 49.5C49.301 51.6 47.589 52.9 44.5679 55.5C44.5679 54.7 44.5679 54.4 44.5679 53.7Z" fill="#FF7547"/>
<path d="M42.252 57.1C44.0646 55.4 45.0717 54.5 47.1865 52.9C47.0858 51.8 47.0858 51.2 47.0858 50.1C44.971 51.7 44.0646 52.5 42.252 54.2C42.252 55.3 42.252 55.9 42.252 57.1Z" fill="#E33C58"/>
<path d="M54.3364 46.2C56.5519 45 57.8611 44.5 60.278 43.6C60.5801 44.3 60.6808 44.7 60.9829 45.4C58.3646 46.3 57.1561 46.9 54.7392 48.1C54.5378 47.4 54.5378 47 54.3364 46.2Z" fill="#FF5780"/>
<path d="M42.252 55.3C45.4745 52.3 47.2872 50.8 51.3153 48.3C51.2146 47.3 51.1139 46.7 50.9125 45.8C47.0858 48.2 45.3738 49.6 42.252 52.5C42.252 53.6 42.252 54.1 42.252 55.3Z" fill="#EC3A6C"/>
<path d="M59.3715 41.2C57.5588 41.9 55.8468 42.6 53.5306 43.9C53.4299 43.2 53.3292 42.7 53.1278 42.2C52.1208 42.8 51.1137 43.3 50.2074 43.9C50.2074 44.2 50.3081 44.5 50.3081 44.9C50.2074 45 50.006 45 49.9053 45.2C49.9053 45.6 50.006 45.9 50.006 46.5C50.3081 46.3 50.6102 46.1 50.9123 45.9C51.013 46.4 51.013 46.8999 51.1137 47.2999C54.1349 45.2999 56.6525 44.0999 60.882 42.7999C60.7813 42.6999 60.7813 42.6 60.6806 42.4C60.4792 42.5 60.2778 42.5 59.9757 42.7C59.7743 42 59.6736 41.7 59.3715 41.2Z" fill="#33DAD3"/>
<path d="M49.9054 45.1C49.2005 45.5 48.5963 45.9 48.0928 46.3C48.1935 46.7 48.1935 47.1 48.1935 47.6C48.7977 47.2 49.4019 46.8 50.0061 46.4C50.0061 45.9 49.9054 45.6 49.9054 45.1Z" fill="#0C59AB"/>
<path d="M53.1279 41.7C52.1209 42.2 51.3153 42.8 50.2075 43.5C50.2075 43.6 50.2075 43.7 50.3082 43.9C51.2146 43.3 52.1209 42.8 53.2286 42.2C53.1279 42 53.1279 41.9 53.1279 41.7Z" fill="#1AAF2E"/>
<path d="M59.3716 39.2C56.7533 40 54.9406 40.8 53.1279 41.7C53.1279 41.8 53.2286 41.9999 53.2286 42.0999C53.3293 42.5999 53.43 43.0999 53.6315 43.7999C55.9476 42.4999 57.6596 41.7999 59.4723 41.0999C59.3716 40.8999 59.3716 40.7 59.1702 40.4C59.4723 40.3 59.6737 40.3 59.8751 40.2C59.6737 40 59.4723 39.7 59.3716 39.2Z" fill="#0E64B9"/>
<path d="M50.9124 45.8C50.6103 45.9 50.3081 46.2001 50.006 46.4001C49.3011 46.8001 48.6969 47.2 48.1934 47.6C48.2941 48 48.2941 48.6001 48.2941 49.2001C49.3011 48.5001 50.2074 47.9 51.1138 47.3C51.1138 46.8 51.1138 46.3 50.9124 45.8Z" fill="#2F3259"/>
<path d="M62.1909 42.5C63.8022 42.1 64.6078 41.9 66.3198 41.7C66.5212 42 66.6219 42.2 66.8233 42.5C65.1113 42.7 64.3057 42.9 62.6944 43.4C62.493 43.1 62.3923 42.8 62.1909 42.5Z" fill="#5BE2DE"/>
<path d="M66.5216 39C65.3132 39.1 64.3061 39.2 63.3998 39.4C63.5005 39.6 63.7019 39.8 63.8026 40.1C62.3927 40.4 61.1843 40.7 60.1772 41C60.278 41.4 60.5801 41.8 60.6808 42.3C63.3998 41.5 64.9103 41.1 67.9315 40.9C67.3272 40.2 67.1258 39.8 66.5216 39Z" fill="#2BA2CC"/>
<path d="M63.3997 39.4C62.2919 39.5 61.2849 39.8 59.875 40.3C59.9757 40.5 59.9757 40.7 60.1771 41C61.1842 40.7 62.3926 40.4 63.8025 40.1C63.7018 39.9 63.5004 39.7 63.3997 39.4Z" fill="#0C4AB2"/>
<path d="M60.1771 41C59.875 41.1 59.6736 41.1 59.4722 41.2C59.6736 41.6 59.875 42 60.0764 42.6C60.2778 42.5 60.4792 42.4 60.7813 42.3C60.5799 41.8 60.2778 41.4 60.1771 41Z" fill="#098AA9"/>
<path d="M59.8749 40.3C59.6734 40.4 59.472 40.4 59.1699 40.5C59.2706 40.8 59.3713 40.9001 59.472 41.2001C59.6734 41.1001 59.8749 41.1 60.177 41C59.9756 40.8 59.9756 40.6 59.8749 40.3Z" fill="#024094"/>
<path d="M70.6504 42.4C72.4631 42.4 73.3694 42.4 75.0814 42.6C75.3835 43 75.4842 43.1 75.7863 43.4C73.9736 43.2 73.0673 43.2 71.2546 43.2C71.0532 42.9 70.9525 42.8 70.6504 42.4Z" fill="#FFC0C4"/>
<path d="M62.292 31.7C63.3997 31.6 63.9033 31.7 65.011 31.8C65.2124 32.2 65.4138 32.3 65.7159 32.6C64.6082 32.5 64.1047 32.5 62.9969 32.5C62.6948 32.1 62.4934 32 62.292 31.7Z" fill="#4574DE"/>
<path d="M69.0391 40.2C70.4489 40.1 71.1539 40.2 72.5637 40.3C72.8658 40.7 72.9665 40.8 73.2686 41.2C71.9595 41 71.2546 41 69.744 41C69.4419 40.7 69.3412 40.5 69.0391 40.2Z" fill="#53B2DE"/>
<path d="M71.6572 39C72.9664 39.1 73.6713 39.3 74.9805 39.7C75.3833 40.1 75.5847 40.2 75.9875 40.6C74.5776 40.2 73.8727 40.1 72.4629 39.9C72.1607 39.4 71.9593 39.3 71.6572 39Z" fill="#AEE0F9"/>
<path d="M64.709 37.7C66.0181 37.6 66.6224 37.6 67.9315 37.6C68.2336 37.9 68.3343 38.1 68.6365 38.4C67.3273 38.4 66.7231 38.4 65.3132 38.5C65.1118 38.2 65.0111 38 64.709 37.7Z" fill="#7097FC"/>
<path d="M61.9897 33.7C62.9968 33.6 63.601 33.6 64.6081 33.6C64.8095 34 65.0109 34.1 65.313 34.4C64.2052 34.4 63.7017 34.4 62.594 34.5C62.2919 34.1 62.1912 34 61.9897 33.7Z" fill="#FFF001"/>
<path d="M52.4229 37.2C53.4299 36.7 53.9334 36.4 54.9405 35.9C55.0412 36.3 55.1419 36.5 55.2426 36.8C54.2355 37.3 53.6313 37.5 52.5236 38.1C52.5236 37.8 52.5236 37.6 52.4229 37.2Z" fill="#3DB399"/>
<path d="M51.5166 34.4C52.5236 33.8 53.1279 33.6 54.1349 33.1C54.2356 33.5 54.2356 33.6 54.3363 34C53.3293 34.4 52.7251 34.7 51.718 35.3C51.718 34.9 51.6173 34.8 51.5166 34.4Z" fill="#045999"/>
<path d="M49.0996 36.9001C50.1067 36.2001 50.7109 35.9 51.8186 35.3C51.9193 35.7 51.9193 35.9 51.9193 36.3C50.8116 36.9 50.3081 37.2001 49.2003 37.9001C49.2003 37.5001 49.2003 37.4001 49.0996 36.9001Z" fill="#006181"/>
<path d="M46.6829 43.6C45.1724 44.6 43.9639 45.7 42.252 47.4C42.252 48.7 42.252 49.4 42.252 50.6C44.4674 48.5 45.8773 47.3 48.0928 45.7C48.0928 45.6 48.0928 45.6 48.0928 45.5C47.69 45.8 47.3879 46.1 46.8843 46.4C46.7836 45.2 46.6829 44.5 46.6829 43.6Z" fill="#FCEE07"/>
<path d="M47.9917 45.6C45.8769 47.2 44.4671 48.3 42.1509 50.5C42.1509 50.6 42.1509 50.9 42.1509 51.1C44.3664 49 45.8769 47.8 47.9917 46.3C48.0924 46.1 48.0924 45.9 47.9917 45.6Z" fill="#3A6106"/>
<path d="M49.9052 41.4C48.596 42.2 47.589 42.9 46.6826 43.6C46.6826 44.5 46.7833 45.2 46.7833 46.3C47.1861 46 47.589 45.7 47.9918 45.4C47.9918 45.3 47.9918 45.1 47.9918 45C48.6967 44.4 49.5023 43.9 50.1066 43.4C50.1066 42.8 50.0059 42.3 49.9052 41.4Z" fill="#81BF02"/>
<path d="M50.3083 43.9C49.6033 44.3 48.8984 44.9 48.0928 45.5C48.0928 45.6 48.0928 45.6 48.0928 45.7C48.697 45.4 49.2005 45 49.9055 44.6C49.9055 44.8 49.9055 45 50.0062 45.2C50.1069 45.1 50.3083 45 50.409 44.9C50.3083 44.5 50.3083 44.2 50.3083 43.9Z" fill="#32CB06"/>
<path d="M49.8044 44.5C49.0994 44.9 48.5959 45.3 47.9917 45.6C48.0924 45.8 48.0924 46 48.0924 46.3C48.5959 45.9 49.2002 45.5 49.9051 45.1C49.8044 44.9 49.8044 44.8 49.8044 44.5Z" fill="#0C5305"/>
<path d="M50.2076 43.5C49.5026 43.9 48.7977 44.5 48.0928 45.1C48.0928 45.2 48.0928 45.3 48.0928 45.5C48.8984 44.9 49.6033 44.4 50.3083 43.9C50.2076 43.7 50.2076 43.7 50.2076 43.5Z" fill="#1AA301"/>
<path d="M42.252 51.1C43.5611 50 44.1653 49.4 45.5752 48.3C45.5752 47.7 45.4745 47.4 45.4745 46.8C44.1653 47.8 43.5611 48.4 42.252 49.5C42.252 50.2 42.252 50.5 42.252 51.1Z" fill="#FD8B4D"/>
<path d="M58.6665 36.4C60.7813 35.8 61.889 35.6 63.9031 35.4C64.3059 36 64.608 36.4 65.1116 37C62.7954 37.2 61.5869 37.4 59.3714 38.1C59.0693 37.4 58.9686 37.1 58.6665 36.4Z" fill="#51D4E6"/>
<path d="M43.8628 42.5C46.4811 40.2 47.891 39.2 50.61 37.5C50.8114 38.6 50.9121 39.2 51.0128 40.2C47.9917 42 46.5818 43.1 43.8628 45.4C43.8628 44.3 43.8628 43.7 43.8628 42.5Z" fill="#1EAB67"/>
<path d="M42.252 49C43.9639 47.4 44.971 46.6 46.7836 45.2C46.7836 44 46.6829 43.4 46.6829 42.2C44.8703 43.6 43.9639 44.3 42.252 46C42.252 47.1 42.252 47.7 42.252 49Z" fill="#2CA67D"/>
<path d="M42.252 47.3C43.7625 46 44.4674 45.2 46.0787 44C45.978 43.1 45.978 42.7 45.978 41.8C44.4674 43 43.7625 43.6 42.252 45C42.252 46 42.252 46.5 42.252 47.3Z" fill="#00997A"/>
<path d="M42.252 45.9001C44.0646 44.1001 45.0717 43.3 47.0858 41.8C46.9851 41 46.985 40.6 46.985 39.8C45.0717 41.2 44.1653 42.0001 42.252 43.7001C42.252 44.6001 42.252 45.0001 42.252 45.9001Z" fill="#4293B0"/>
<path d="M42.6543 42C45.2726 39.6 46.6825 38.5 49.4015 36.8C49.5022 37.5 49.5022 38.0001 49.6029 38.7001C46.6825 40.5001 45.2726 41.7001 42.6543 44.2001C42.6543 43.4001 42.6543 42.9 42.6543 42Z" fill="#027298"/>
<path d="M42.252 44.8C42.5536 44.6 42.6542 44.4 42.9559 44.2C42.9559 43.1 42.9559 42.5 42.9559 41.4C42.6542 41.6 42.5536 41.8 42.252 42C42.252 43.1 42.252 43.7 42.252 44.8Z" fill="#192263"/>
<path d="M63.0977 44.8C64.5075 44.4 65.2124 44.2 66.6223 43.9C66.8237 44.3 66.9244 44.4 67.0251 44.8C65.6153 45.1 64.9103 45.2 63.5005 45.6C63.2991 45.4 63.1984 45.1 63.0977 44.8Z" fill="#FDCB5A"/>
<path d="M55.2427 49.7C56.6525 48.9 57.3575 48.6 58.868 47.9C58.9687 48.3 59.0694 48.6 59.1701 48.9C57.6596 49.6 56.9547 49.9 55.4441 50.7C55.4441 50.4 55.3434 50.2 55.2427 49.7Z" fill="#FE9D3E"/>
<path d="M56.4512 33.8C57.4582 33.5 57.9617 33.4 58.8681 33.1C59.0695 33.5 59.1702 33.6 59.3716 34.1C58.3646 34.3 57.7603 34.5 56.7533 34.8C56.6526 34.3 56.5519 34.1 56.4512 33.8Z" fill="#3DB19A"/>
<path d="M31.7782 25.1C32.0803 25.3001 32.4832 25.5001 32.7853 25.7001C28.2536 30.7001 28.2536 30.7001 28.2536 30.7001C28.0522 30.6001 27.8508 30.6 27.6494 30.6C27.1458 30.4001 26.6423 30.3001 26.0381 30.2001C30.0663 23.8001 30.0663 23.8 30.0663 23.8C30.167 24.1 30.4691 24.4 30.7712 24.6C30.9726 24.7 31.3754 24.9 31.7782 25.1Z" fill="#535353"/>
<path d="M41.8489 14.2C41.9496 14.2 42.2517 14.2 42.3524 14.1C41.6475 15.9 41.6475 15.9 41.6475 15.9C41.6475 16 41.6475 16 41.6475 16C41.5468 16.1 41.5468 16.1 41.5468 16.1C36.1087 22 36.1087 22 36.1087 22C35.6052 21.8 35.1017 21.6 34.4975 21.3C34.0947 21.1 33.7925 20.9 33.3897 20.6C32.9869 20.3 32.5841 20.2 32.0806 20.2C37.4179 11.5 37.4179 11.5 37.4179 11.5C37.4179 11.6 37.4179 11.6 37.4179 11.6C37.9214 12.6 38.9285 13.5 40.0362 14C40.439 14.1 41.0432 14.3 41.5468 14.3C41.7482 14.2 41.7482 14.2 41.8489 14.2Z" fill="#535353"/>
<path d="M51.2142 19.6C50.5093 20.2 49.8044 20.7 49.0995 21.2C48.4952 21.5 47.891 21.8 47.2868 22.1C41.748 16.1 41.748 16.1 41.748 16.1C41.748 15.9 41.748 15.9 41.748 15.9C41.748 14.2 41.748 14.2 41.748 14.2C41.8488 14.2 41.8487 14.2 41.9495 14.2C42.0502 14.2 42.3523 14.2 42.453 14.1C42.8558 14.1 43.1579 14 43.5607 13.9C44.7692 13.5 45.6755 12.6 46.2797 11.5L51.2142 19.6Z" fill="#6D6D6D"/>
<path d="M58.4652 31.2C57.9616 31.3 57.4581 31.4 56.9546 31.6C56.7532 31.7 56.5518 31.7 56.3504 31.7C50.7109 25.7 50.7109 25.7 50.7109 25.7C51.1138 25.5 51.5166 25.3 52.0201 25C52.6243 24.6 53.2285 24.2 53.8328 23.7L58.4652 31.2Z" fill="#6D6D6D"/>
<path d="M51.2146 19.6C50.5096 20.2 49.8047 20.7 49.0998 21.2C43.561 13.9 43.561 13.9 43.561 13.9C44.7695 13.5 45.6758 12.6 46.28 11.5L51.2146 19.6Z" fill="#535353"/>
<path d="M58.4651 31.2C57.9616 31.3 57.458 31.4 56.9545 31.6C52.02 25 52.02 25 52.02 25C52.6242 24.6 53.2285 24.2 53.8327 23.7L58.4651 31.2Z" fill="#535353"/>
<path d="M30.6706 24.4C30.9727 24.6 31.3755 24.8 31.6776 25.1C27.5488 30.5 27.5488 30.5 27.5488 30.5C27.0452 30.3 26.5417 30.2 25.9375 30.1C29.9657 23.7 29.9657 23.7 29.9657 23.7C30.1671 23.9 30.3685 24.2 30.6706 24.4Z" fill="#494949"/>
<path d="M40.1368 13.9C34.5981 21.3 34.5981 21.3 34.5981 21.3C34.1952 21.1 33.8931 20.9 33.4903 20.6C33.0875 20.3 32.6847 20.2 32.1812 20.2C37.5185 11.6 37.5185 11.6 37.5185 11.6C38.022 12.6 39.029 13.4 40.1368 13.9Z" fill="#494949"/>
<path d="M73.1679 45.5C72.7651 45.5 72.2616 45.5 71.758 45.6C82.5334 58.6 82.5334 58.6 82.5334 58.6C72.9665 53.1 62.8961 52 52.8257 55.6C49.5024 56.7 46.1792 58.3 42.7552 60.5C42.7552 59.5 42.7552 59.5 42.7552 59.5C42.6545 59.6 42.3524 59.9 42.2517 60C42.151 41.4 42.151 41.4 42.151 41.4C43.3595 40.2 44.5679 39.2 45.7764 38.2C44.5679 38.8 43.3595 39.5 42.151 40.3L42.0503 40.2C37.2165 35.7 32.3827 32.7 27.7503 31.2C24.0242 30.1 20.8017 30.2 17.3778 31.1C17.1764 31.2 17.1764 31.2 17.1764 31.2C0.560162 47.5 0.560162 47.5 0.560162 47.5C0.560162 47.5 4.58833 46.7 10.3285 47C0.0566406 60.1 0.0566406 60.1 0.0566406 60.1C0.157345 60.1 0.157345 60.1 0.157345 60C1.4665 59.4 10.5299 55.1 20.4996 55.1C27.6496 55.1 34.6989 58.3 41.6475 63.1C42.0503 63.4 42.0503 63.4 42.0503 63.4C42.151 63.4 42.151 63.4 42.151 63.4C42.2517 63.4 42.2517 63.4 42.2517 63.4C42.3524 63.3 42.3524 63.3 42.3524 63.3C42.7552 63.1 42.7552 63.1 42.7552 63.1C44.5679 61.9 46.2799 60.8 47.9918 59.8C50.2073 58.6 52.4228 57.6 54.6383 56.8C55.5447 56.5 56.451 56.2 57.2566 56C58.163 55.8 59.0693 55.6 59.9757 55.4C61.2848 55.2 62.6947 55.1 64.0038 55.1C73.2686 55.2 81.8285 58.9 84.044 59.9C84.4468 60 84.6482 60.1 84.6482 60.1L73.1679 45.5ZM1.66791 58.8C10.1271 48.3 10.1271 48.3 10.1271 48.3C11.1341 47 11.1341 47 11.1341 47C14.1552 47.2 17.5792 47.7 21.1038 48.8C24.9306 50.1 28.858 52.2 32.5841 55C33.3897 55.7 34.1954 56.3 35.001 56.9C23.8228 51.9 12.3426 52.7 1.66791 58.8ZM41.6475 60.3C28.5559 47.7 14.7595 43.3 2.17143 46.6C17.8813 32 17.8813 32 17.8813 32C25.6355 30 33.994 33.3 42.151 41L41.6475 60.3Z" fill="#5D5D5D"/>
<path d="M45.6755 9.39998C45.6755 11.5 43.9635 13.2 41.8487 13.2C39.7339 13.2 38.022 11.5 38.022 9.39998C38.022 7.29998 39.7339 5.59998 41.8487 5.59998C43.9635 5.59998 45.6755 7.29998 45.6755 9.39998Z" fill="#535353"/>
<path d="M52.5237 22.5C52.5237 23.3 51.8188 24.1 50.9124 24.1C50.1068 24.1 49.4019 23.4 49.4019 22.5C49.4019 21.6 50.1068 20.9 50.9124 20.9C51.9195 21 52.5237 21.7 52.5237 22.5Z" fill="#535353"/>
<path d="M51.013 24.7001C50.6102 24.7001 50.2073 24.6 49.9052 24.3C48.3947 25.1 46.8841 25.6 45.1721 26C41.144 26.7 37.1158 26.2 33.6918 24.4C33.3897 24.6 32.9869 24.8 32.4834 24.8C36.3102 26.9 40.7411 27.8 45.3735 26.9C47.4883 26.5 49.5024 25.7001 51.2144 24.7001C51.1137 24.7001 51.1137 24.7001 51.013 24.7001Z" fill="#535353"/>
<path d="M34.5983 22.7C34.5983 22.8 34.5983 22.9 34.5983 23.1C37.7201 24.7 41.3454 25.2 44.8701 24.4C46.3807 24.2 47.6898 23.7 48.999 23C48.999 22.9 48.8983 22.7 48.8983 22.6C48.8983 22.4 48.999 22.2 48.999 22C47.6898 22.7 46.28 23.3 44.7694 23.6C41.144 24.3 37.5187 23.7 34.4976 22C34.4976 22.2 34.5983 22.4 34.5983 22.7Z" fill="#535353"/>
<path d="M56.7531 16.4C56.6524 16.4 56.6524 16.4 56.7531 16.4C55.9475 16 54.9404 16.2 54.3362 17C53.5306 18.3 52.5235 19.4 51.2144 20.4C51.6172 20.5 51.9193 20.5 52.2214 20.8C53.3291 19.8 54.3362 18.7 55.1418 17.5C55.2425 17.4 55.4439 17.2 55.6453 17.1C55.746 17.1 55.9475 17.1 56.1489 17.2C56.3503 17.3 56.5517 17.5 56.5517 17.7C56.6524 17.8 56.6524 18.1 56.451 18.2C55.4439 19.7 54.3362 21 53.1277 22.1C53.1277 22.2 53.1277 22.3 53.1277 22.5C53.1277 22.9 53.027 23.2 52.9263 23.5C54.6383 22.2 56.1489 20.5 57.3573 18.8C57.8608 17.9 57.5587 16.9 56.7531 16.4Z" fill="#535353"/>
<path d="M33.9939 22.7C33.9939 23.5 33.289 24.2 32.3826 24.2C31.4763 24.2 30.8721 23.5 30.8721 22.7C30.8721 21.8 31.577 21.1 32.3826 21.1C33.1883 21.1 33.9939 21.8 33.9939 22.7Z" fill="#535353"/>
<path d="M32.6847 55C26.1389 51.4 19.1903 48.5 10.127 48.3C11.134 47 11.134 47 11.134 47C14.1551 47.2 17.5791 47.7 21.1037 48.8C24.9305 50 28.8579 52.1 32.6847 55Z" fill="#D1D3D4"/>
<path d="M42.2515 63.4C30.7712 59.4 18.7874 56.8 0.257812 60.1C0.257812 60 0.257812 60 0.257812 60C1.56697 59.4 10.6303 55.1 20.6001 55.1C27.7501 55.1 34.7994 58.3 41.748 63.1C42.1508 63.4 42.1508 63.4 42.2515 63.4Z" fill="#D1D3D4"/>
<path d="M84.1448 60.1C65.7159 56.6 53.7321 59.3 42.3525 63.3C42.7554 63.1 42.7554 63.1 42.7554 63.1C44.568 61.9 46.28 60.8 47.992 59.8C50.2075 58.6 52.423 57.6 54.6385 56.8C55.5448 56.5 56.4511 56.2 57.2568 56C58.1631 55.8 59.0694 55.6 59.9758 55.4C61.2849 55.2 62.6948 55.1 64.0039 55.1C73.2687 55.2 81.8286 58.9 84.0441 59.9L84.1448 60.1Z" fill="#D1D3D4"/>
<path d="M42.554 0.7C42.554 4.8 42.554 4.8 42.554 4.8C42.3526 4.7 42.1512 4.7 41.8491 4.7C41.7484 4.7 41.7484 4.7 41.7484 4.7C41.6477 4.7 41.6477 4.7 41.6477 4.7C41.4463 4.7 41.2449 4.7 41.0435 4.8C41.0435 0.7 41.0435 0.7 41.0435 0.7C41.0435 0.3 41.3456 0 41.7484 0C42.2519 0 42.554 0.3 42.554 0.7Z" fill="#535353"/>
</svg>
